<?xml version="1.0" standalone="no"?>
<!DOCTYPE svg PUBLIC "-//W3C//DTD SVG 1.1//EN" "http://www.w3.org/Graphics/SVG/1.1/DTD/svg11.dtd" >
<svg>
<metadata>
Created by FontForge 20120731 at Tue Dec  3 03:21:51 2013
 By root
Copyright (c) 2012 by Paula Nazal. All rights reserved.
</metadata>
<defs>
<font id="VNFRomeoPro" horiz-adv-x="346" >
  <font-face 
    font-family="VNF Romeo Pro"
    font-weight="400"
    font-stretch="normal"
    units-per-em="1000"
    panose-1="2 0 0 0 0 0 0 0 0 0"
    ascent="750"
    descent="-250"
    x-height="689"
    cap-height="689"
    bbox="-1019 -886 2207 1715"
    underline-thickness="50"
    underline-position="-50"
    unicode-range="U+000D-FB05"
  />
<missing-glyph horiz-adv-x="0" 
 />
    <glyph glyph-name=".notdef" horiz-adv-x="0" 
 />
    <glyph glyph-name=".null" horiz-adv-x="500" 
 />
    <glyph glyph-name=".null" horiz-adv-x="500" 
 />
    <glyph glyph-name="nonmarkingreturn" unicode="&#xd;" horiz-adv-x="500" 
 />
    <glyph glyph-name="space" unicode=" " horiz-adv-x="183" 
 />
    <glyph glyph-name="i" unicode="i" horiz-adv-x="199" 
d="M42 648q0 19 12.5 32t31.5 13t32 -13t13 -32t-13 -31.5t-32 -12.5t-31.5 12.5t-12.5 31.5zM57 563h60v-459q0 -29 14.5 -43.5t48.5 -14.5q9 0 12 1t4 2v-47q-4 -2 -9 -4t-13 -3t-22 -1q-43 0 -69 23.5t-26 86.5v459z" />
    <glyph glyph-name="e" unicode="e" horiz-adv-x="343" 
d="M311 329h-213v-82q0 -60 7.5 -98t21 -59.5t31.5 -30t38 -8.5q36 0 50 20.5t14 52.5q0 2 -0.5 4t-0.5 4v4h57q1 -2 2 -6q2 -8 2 -18q0 -22 -7 -44t-22 -39t-39 -28t-58 -11q-33 0 -61.5 11.5t-49.5 40.5t-33 78.5t-12 126.5v189q0 80 11.5 129.5t30.5 77t44 37t52 9.5
q42 0 68.5 -22t41 -62t20 -96t5.5 -124v-56zM251 385q0 55 -2.5 100t-11 77t-23 49.5t-38.5 17.5q-15 0 -29.5 -7t-25 -28t-17 -59t-6.5 -99v-51h153z" />
    <glyph glyph-name="j" unicode="j" horiz-adv-x="336" 
d="M213 648q0 19 12.5 32t31.5 13t32 -13t13 -32t-13 -31.5t-32 -12.5t-31.5 12.5t-12.5 31.5zM148 -4q-60 0 -95 36t-35 94q0 45 23.5 78t65.5 33q40 0 64 -26.5t24 -61.5q0 -8 -2 -16q-1 -4 -1 -6h-50v1q0 1 0.5 2.5t0.5 5.5q0 23 -9.5 34.5t-22.5 11.5q-17 0 -25 -16.5
t-8 -39.5q0 -31 18.5 -52t51.5 -21q16 0 30 5t24.5 20t17 41.5t6.5 69.5v367h60v-367q0 -61 -11.5 -99t-30.5 -59t-44 -28t-52 -7z" />
    <glyph glyph-name="h" unicode="h" horiz-adv-x="363" 
d="M328 0h-60v349v35t-5 32.5t-17 24t-35 9.5q-29 0 -56 -14t-47 -28v-408h-60v690h60v-234q20 18 51 36t71 18q35 0 54.5 -15.5t29.5 -39t12 -52t2 -53.5v-350z" />
    <glyph glyph-name="n" unicode="n" horiz-adv-x="376" 
d="M329 0h-60v534v35t-5 32.5t-17 24t-35 9.5q-29 0 -56 -14t-47 -28v-593h-60v688h60v-47q20 18 51 36t71 18q35 0 54.5 -15.5t29.5 -39t12 -52t2 -53.5v-535z" />
    <glyph glyph-name="m" unicode="m" horiz-adv-x="593" 
d="M545 0h-60v534v35t-5 32.5t-17 24t-35 9.5q-29 0 -55.5 -13.5t-46.5 -27.5q3 -30 3 -60v-534h-60v533v35t-5 32.5t-17 24t-35 9.5q-29 0 -56 -14t-47 -28v-592h-60v688h60v-48q20 18 51 36t71 18q37 0 57 -17.5t29 -43.5q9 9 22.5 20t30 20.5t36 15.5t41.5 6
q35 0 54.5 -15.5t29.5 -39t12 -52t2 -53.5v-535z" />
    <glyph glyph-name="p" unicode="p" horiz-adv-x="325" 
d="M61 690q59 0 105.5 -6t78 -26.5t48 -59.5t16.5 -105q0 -56 -13 -92t-38 -56.5t-62.5 -29t-86.5 -10.5v-305h-60v690h12zM249 493q0 42 -9 67.5t-27 40.5t-44 20.5t-60 7.5v-265q34 1 60 7t44 20.5t27 39t9 62.5z" />
    <glyph glyph-name="q" unicode="q" horiz-adv-x="376" 
d="M382 -149q17 0 28 10.5t11 29.5q0 17 -13 27.5t-36 10.5q-4 0 -5.5 -0.5t-2.5 -0.5h-1v50q2 0 6 1q8 2 16 2q35 0 61.5 -24.5t26.5 -68.5q0 -43 -26.5 -68.5t-64.5 -25.5q-64 0 -93.5 52t-29.5 143v11t-1 10q-16 -8 -33 -11t-35 -3q-30 0 -57.5 10t-48.5 37.5t-33.5 76.5
t-12.5 129v190q0 80 12.5 129.5t33.5 77t49 37t58 9.5t57.5 -9.5t48.5 -37.5t33.5 -77.5t12.5 -128.5v-190q0 -66 -9 -111t-24 -74q5 -17 6 -35.5t1 -39.5q0 -66 15 -102t50 -36zM283 439q0 61 -7.5 99t-20.5 59t-29.5 28t-35.5 7t-35.5 -7.5t-29 -28.5t-20 -58.5
t-7.5 -98.5v-190q0 -54 5.5 -89.5t16.5 -57.5q10 19 31 38.5t58 19.5q36 0 63 -24q11 42 11 113v190zM191 56q14 0 27.5 4.5t24.5 15.5q-12 24 -34 24t-35 -11.5t-21 -24.5q16 -8 38 -8z" />
    <glyph glyph-name="o" unicode="o" horiz-adv-x="443" 
d="M390 487q0 17 -7.5 29.5t-20.5 12.5q-2 0 -3 -0.5t-3 -0.5h-3v50q2 0 6 1q8 2 16 2q28 0 48 -26t20 -64q0 -48 -26.5 -80.5t-73.5 -46.5v-118q0 -80 -12.5 -129.5t-33.5 -77t-49 -37t-58 -9.5t-57.5 10t-48.5 37.5t-33.5 76.5t-12.5 129v190q0 80 12.5 129.5t33.5 77
t49 37t58 9.5t57.5 -9.5t48.5 -37.5t33.5 -77.5t12.5 -128.5v-13q22 9 34.5 25.5t12.5 38.5zM98 246q0 -61 7.5 -99t20 -59t29.5 -28t36 -7q18 0 35 7.5t29.5 28.5t20 58.5t7.5 98.5v111q-29 0 -57 7.5t-52 25.5t-42.5 47t-30.5 71q-3 -30 -3 -72v-190zM283 436
q0 61 -7.5 99t-20.5 59t-29.5 28t-35.5 7q-16 0 -30.5 -5t-25.5 -19q3 -54 17 -91t34 -59.5t45.5 -32.5t52.5 -10v24z" />
    <glyph glyph-name="g" unicode="g" horiz-adv-x="336" 
d="M289 688v-504q0 -61 -11.5 -99t-30.5 -59t-44 -28t-52 -7q-60 0 -95 36t-35 94q0 45 23.5 78t65.5 33q40 0 64 -26.5t24 -61.5q0 -8 -2 -16q-1 -4 -1 -6h-50v1q0 1 0.5 2.5t0.5 5.5q0 23 -9.5 34.5t-22.5 11.5q-17 0 -25 -16.5t-8 -39.5q0 -31 18.5 -52t51.5 -21
q16 0 30 5t24.5 20t17 41.5t6.5 69.5v118q-50 2 -88.5 10.5t-64 29t-38.5 56.5t-13 93q0 66 16.5 105t48 59.5t78 26.5t105.5 6h16zM85 491q0 -38 7.5 -62t25 -38.5t45 -21t66.5 -7.5v265q-39 -2 -66.5 -8.5t-45 -21.5t-25 -40.5t-7.5 -65.5z" />
    <glyph glyph-name="f" unicode="f" horiz-adv-x="383" 
d="M243 689q60 0 95 -33t35 -87q0 -42 -23.5 -71.5t-65.5 -29.5q-40 0 -64 23t-24 55q0 12 1 16t2 6h50q-1 -1 -1 -3v-6q0 -18 9.5 -27t22.5 -9q17 0 25 13.5t8 32.5q0 26 -18.5 44.5t-51.5 18.5q-20 0 -37.5 -7.5t-31 -29t-21.5 -60t-8 -99.5v-51h127v-58h-127v-325h-60
v325h-72v58h72v51q0 80 13 129.5t35 77t50.5 37t59.5 9.5z" />
    <glyph glyph-name="a.alt" horiz-adv-x="371" 
d="M88 689q61 0 99 -12t59.5 -38t29 -67.5t7.5 -101.5v-360q0 -29 14.5 -46.5t48.5 -17.5q9 0 12 1t4 2v-47q-4 -2 -9 -4t-13 -3t-22 -1q-32 0 -54 13.5t-33 44.5q-14 -23 -37 -41t-58 -18q-23 0 -44 11t-37 32t-25.5 52t-9.5 72q0 51 17.5 89.5t46.5 66.5t65 44t74 22v88
q0 44 -5.5 74.5t-22 50t-48 28.5t-83.5 9q-4 0 -7.5 -0.5t-6.5 -0.5q-4 -1 -6 -1v51q5 2 11 4q5 2 13.5 3t19.5 1zM148 53q24 0 38.5 12t22.5 26q10 17 14 39v191q-27 -5 -53 -17.5t-46 -33t-32 -48t-12 -62.5q0 -53 19.5 -80t48.5 -27z" />
    <glyph glyph-name="u" unicode="u" horiz-adv-x="377" 
d="M268 0v48q-20 -18 -51.5 -36t-70.5 -18q-35 0 -54.5 15.5t-29.5 39t-12 51.5t-2 54v535h60v-534v-35t5 -32.5t17 -24t35 -9.5q29 0 56 14t47 28v593h60v-689h-60z" />
    <glyph glyph-name="d" unicode="d" horiz-adv-x="345" 
d="M21 185q0 58 17.5 103.5t46 78t64.5 52.5t74 27v244h60v-586q0 -29 14.5 -43.5t48.5 -14.5q9 0 12 1t4 2v-47q-4 -2 -9 -4t-13 -3t-22 -1q-31 0 -53 11t-33 40q-13 -21 -32.5 -36.5t-50.5 -15.5q-55 0 -91.5 49t-36.5 143zM149 53q23 0 37.5 10.5t22.5 24.5q10 16 14 36
v261q-27 -7 -53 -23.5t-45.5 -41.5t-31.5 -59t-12 -76q0 -64 19.5 -98t48.5 -34z" />
    <glyph glyph-name="l" unicode="l" horiz-adv-x="198" 
d="M57 688h60v-584q0 -29 14.5 -43.5t48.5 -14.5q9 0 12 1t4 2v-47q-4 -2 -9 -4t-13 -3t-22 -1q-43 0 -69 23.5t-26 86.5v584z" />
    <glyph glyph-name="r" unicode="r" horiz-adv-x="336" 
d="M268 171q0 -22 1.5 -44t6.5 -40t14 -29.5t23 -11.5q5 0 7 1q2 0 3 1v-48q-1 -2 -4 -3q-5 -3 -16 -3q-28 0 -46 15.5t-29 40.5t-15.5 56.5t-4.5 63.5q0 27 -2.5 52t-10 44t-20 30.5t-31.5 11.5q-17 -3 -35 -3v-305h-60v690q58 0 103 -6t75.5 -26.5t46 -59.5t15.5 -105
q0 -68 -18.5 -106t-55.5 -57q33 -24 43 -66t10 -93zM229 493q0 40 -7.5 65.5t-22.5 40.5t-37.5 21t-52.5 8v-264q33 1 56 7t37 20.5t20.5 39t6.5 62.5z" />
    <glyph glyph-name="r.alt" horiz-adv-x="350" 
d="M334 594q0 -6 -0.5 -10t-1.5 -7q-1 -4 -1 -5h-50v1q0 1 0.5 2.5t0.5 5.5q0 23 -14.5 38t-50.5 15q-31 0 -60 -16t-48 -30v-588h-60v690h60v-55q9 9 22.5 19.5t29.5 19.5t35 14.5t40 5.5q30 0 49 -9.5t30 -24t15 -32.5t4 -34z" />
    <glyph glyph-name="k" unicode="k" horiz-adv-x="340" 
d="M289 688q0 -128 -18 -201t-53 -110q33 -23 44.5 -79.5t11.5 -127.5q0 -22 1.5 -44t6 -40t13.5 -29.5t23 -11.5q5 0 7 1q2 0 3 1v-48q-1 -2 -4 -3q-5 -3 -16 -3q-28 0 -46 15.5t-28.5 40.5t-15 56.5t-4.5 63.5q0 34 -2 66t-7 56.5t-13 39t-20 15.5q-29 -12 -63 -15v-331
h-60v690h60v-308q29 5 51.5 22t37.5 51.5t23 91t8 141.5h60z" />
    <glyph glyph-name="x" unicode="x" horiz-adv-x="342" 
d="M81 689l90 -238l90 238h61l-121 -318l131 -371h-61l-100 290l-100 -290h-61l130 371l-120 318h61z" />
    <glyph glyph-name="v" unicode="v" horiz-adv-x="374" 
d="M352 689q-19 -147 -40 -279q-9 -57 -19.5 -115.5t-22.5 -113.5t-24.5 -101.5t-25.5 -79.5h-60q-13 33 -26 80t-26 101.5t-25 113.5t-22 115q-25 132 -47 279h61q17 -109 35 -215q8 -45 17 -94.5t19 -99t21 -96.5t22 -88q10 40 20.5 87.5t19.5 97t17 99t15 94.5
q16 106 30 215h61z" />
    <glyph glyph-name="w" unicode="w" horiz-adv-x="551" 
d="M248 689q2 -20 6 -45q3 -21 7.5 -51t10.5 -65q5 35 9 64.5t7 51.5q4 25 6 45h61q-6 -43 -14 -93q-7 -43 -16 -98.5t-20 -116.5q15 -75 32 -149t35 -136q10 40 19.5 87.5t17.5 97t15.5 99t13.5 94.5q14 106 26 215h61q-16 -147 -35 -280q-8 -57 -18 -115.5t-21 -113
t-23 -101.5t-25 -79h-60q-17 43 -33.5 110.5t-33.5 143.5q-15 -77 -30.5 -144t-32.5 -110h-60q-13 32 -26 79t-25 101.5t-23 113t-20 115.5q-22 133 -42 280h61q14 -110 31 -216q7 -45 15.5 -94.5t18 -99t19.5 -96.5t21 -87q17 62 32 136t29 149q-13 61 -23 116.5t-18 98.5
q-9 50 -16 93h61z" />
    <glyph glyph-name="z" unicode="z" horiz-adv-x="357" 
d="M314 631l-91 -224q5 -1 9.5 -1.5t9.5 -0.5q13 0 20 2t12 5q4 4 7 8l20 -42q-4 -9 -11 -15q-7 -5 -18 -9.5t-30 -4.5q-11 0 -21 1.5t-20 3.5l-111 -272q12 3 24 3q24 0 42 -5t33.5 -10.5t30.5 -10.5t33 -5q13 0 24.5 9t11.5 32q0 3 -0.5 5t-0.5 3v1h50q0 -2 1 -6
q2 -8 2 -16q0 -35 -24 -61.5t-64 -26.5q-19 0 -34 5t-30.5 10.5t-33 10.5t-41.5 5q-14 0 -31 -4.5t-31 -9.5q-17 -6 -33 -14v60l127 314q-12 3 -21 3q-13 0 -22 -3t-16 -7q-8 -4 -14 -9l-14 50q8 7 18 12q8 5 20 9t28 4q9 0 20 -2.5t22 -5.5l85 209h-232v58h294v-58z" />
    <glyph glyph-name="t" unicode="t" horiz-adv-x="359" 
d="M210 50q33 0 51.5 20t18.5 51q0 23 -8 39.5t-25 16.5q-13 0 -22.5 -11.5t-9.5 -34.5v-8q0 -1 1 -1h-50q-1 2 -2 6t-1 16q0 35 24 61.5t64 26.5q42 0 65.5 -33t23.5 -78q0 -58 -35 -94t-95 -36q-27 0 -52 7t-44 28t-30.5 59t-11.5 99v229h-66v57h66v218h60v-218h133v-57
h-133v-229q0 -43 6.5 -69.5t17 -40.5t24.5 -19t30 -5z" />
    <glyph glyph-name="y" unicode="y" horiz-adv-x="354" 
d="M169 -6q-60 0 -95 36t-35 94q0 45 23.5 78t65.5 33q40 0 64 -26.5t24 -61.5q0 -8 -2 -16q-1 -4 -1 -6h-50v1q0 1 0.5 2.5t0.5 5.5q0 23 -9.5 34.5t-22.5 11.5q-17 0 -25 -16.5t-8 -39.5q0 -31 18.5 -52t51.5 -21q16 0 30 5t24.5 20t17 41.5t6.5 69.5v160q-20 -17 -50 -33
t-67 -16q-35 0 -54.5 15.5t-29.5 39t-12 51.5t-2 54v231h60v-230v-35t5 -32.5t17 -24t35 -9.5q26 0 52 12t46 26v294h60v-503q0 -61 -11.5 -99t-30.5 -59t-44 -28t-52 -7z" />
    <glyph glyph-name="s" unicode="s" horiz-adv-x="370" 
d="M82 148q0 -42 25 -67.5t70 -25.5q21 0 40.5 6.5t34.5 21t23.5 38.5t8.5 59q0 46 -18 77t-45.5 54.5t-59 44t-59 46t-45.5 59.5t-18 85q0 39 13 66.5t35.5 44.5t52 24.5t62.5 7.5q60 0 95 -33t35 -87q0 -42 -23.5 -71.5t-65.5 -29.5q-40 0 -64 23t-24 55q0 12 1 16t2 6h50
q-1 -1 -1 -3v-6q0 -18 9.5 -27t22.5 -9q17 0 25 13.5t8 32.5q0 26 -18.5 44.5t-51.5 18.5q-42 0 -72 -20t-30 -65q0 -41 18 -69t45.5 -50.5t59 -43t59 -47.5t45.5 -64.5t18 -92.5q0 -52 -14 -87.5t-37 -57.5t-53.5 -31.5t-63.5 -9.5q-72 0 -113.5 42.5t-41.5 111.5
q0 60 33 95t87 35q42 0 71.5 -24t29.5 -71q0 -41 -23 -61.5t-55 -20.5q-12 0 -16 1t-6 2v50q1 -1 3 -1h6q18 0 27 9t9 20q0 19 -13.5 27.5t-32.5 8.5q-26 0 -43 -18.5t-17 -51.5z" />
    <glyph glyph-name="A" unicode="A" 
d="M201 689l131 -689h-61l-47 247h-106l-42 -247h-61l127 689h59zM128 306h85l-40 233z" />
    <glyph glyph-name="A.swash" 
d="M323 45q8 -42 18.5 -88t33.5 -81q25 21 54.5 34.5t67.5 13.5q21 0 39.5 -4.5t32.5 -13.5t22.5 -23t8.5 -34q0 -45 -29.5 -65t-74.5 -20q-40 0 -69.5 9t-52.5 25q-19 -20 -37.5 -41t-38.5 -41q13 -16 24 -31.5t22 -31.5q27 10 55.5 15.5t60.5 5.5q62 0 86.5 -24t24.5 -60
q0 -34 -23.5 -58t-77.5 -24q-50 0 -84.5 21t-60.5 52q-39 -19 -77 -44t-78 -52.5t-83 -54t-92 -47.5t-105 -34t-122 -13q-68 0 -125 21t-98 60t-64 94t-23 123q0 61 15.5 104t41.5 70t59.5 39t69.5 12q41 0 70.5 -16t49 -40.5t28.5 -53t9 -53.5q0 -6 -0.5 -10t-1.5 -7
q-1 -4 -1 -5h-50v3q0 2 0.5 3t0.5 3q0 21 -7 41.5t-20.5 37t-33 27t-44.5 10.5q-24 0 -47 -8.5t-40.5 -28t-28 -51t-10.5 -77.5q0 -54 18.5 -98t51.5 -75t79 -48t101 -17q89 0 160 25t131.5 61t116 76t112.5 70l-36 50q-23 -16 -49.5 -25.5t-58.5 -9.5q-46 0 -72 23.5
t-26 60.5q0 21 8 35.5t21 23.5t29 13.5t32 4.5q41 0 71.5 -13.5t54.5 -35.5q19 19 36.5 40t35.5 41q-18 23 -29.5 50t-19 54.5t-13 54.5t-9.5 50l-42 223h-99l-46 -267h-61l123 689h60zM132 327h78l-41 217zM468 -439q22 0 34 5t12 21q0 27 -54 27q-38 0 -77 -11
q18 -19 38.5 -30.5t46.5 -11.5zM496 -183q47 0 47 26q0 16 -13 21t-33 5q-23 0 -43 -8.5t-39 -23.5q16 -9 35.5 -14.5t45.5 -5.5zM136 -250q-13 0 -23 -6t-10 -20q0 -11 9.5 -19.5t25.5 -8.5q22 0 41 6t36 16q-17 15 -36 23.5t-43 8.5z" />
    <glyph glyph-name="B" unicode="B" horiz-adv-x="340" 
d="M66 689q57 0 101.5 -5.5t74.5 -23t46 -48.5t16 -82q0 -72 -33 -109t-96 -45q66 -8 101.5 -52.5t35.5 -134.5q0 -62 -15.5 -99t-46 -57t-75.5 -26.5t-105 -6.5h-21v689h17zM251 189q0 47 -11 77t-30.5 47.5t-45 24.5t-54.5 7v-284q37 1 63.5 7.5t44 21t25.5 38.5t8 61z
M243 530q0 27 -8.5 44.5t-25.5 28.5t-42 16.5t-57 7.5v-220q28 0 52.5 6.5t42.5 21t28 38t10 57.5z" />
    <glyph glyph-name="C" unicode="C" horiz-adv-x="360" 
d="M97 251q0 -60 8.5 -98t22.5 -59.5t33.5 -30t42.5 -8.5q36 0 50 20.5t14 52.5q0 2 -0.5 4t-0.5 4v4h57q1 -2 2 -6q2 -8 2 -18q0 -22 -7 -44t-22 -39t-39 -28t-58 -11q-35 0 -65 11.5t-52.5 40.5t-35.5 78.5t-13 126.5v185q0 80 14 129.5t37.5 77t55 37t66.5 9.5
q60 0 95 -33t35 -87q0 -42 -23.5 -71.5t-65.5 -29.5q-40 0 -64 23t-24 55q0 12 1 16t2 6h50q-1 -1 -1 -3v-6q0 -18 9.5 -27t22.5 -9q17 0 25 13.5t8 32.5q0 26 -18.5 42.5t-51.5 16.5q-23 0 -43.5 -7t-35.5 -28t-24 -58.5t-9 -98.5v-185z" />
    <glyph glyph-name="D" unicode="D" horiz-adv-x="360" 
d="M66 689q54 0 101 -9.5t82 -36.5t55 -76t20 -129v-185q0 -80 -20 -129.5t-55 -77t-82 -37t-101 -9.5h-17v689h17zM263 438q0 52 -11.5 86.5t-32 56t-48.5 32t-61 13.5v-563q33 3 61 13t48.5 32t32 57t11.5 88v185z" />
    <glyph glyph-name="E" unicode="E" horiz-adv-x="356" 
d="M33 187q0 46 8 78t20 53t27 33.5t29 20.5q-12 9 -26.5 22.5t-27.5 31.5t-21.5 41.5t-8.5 53.5q0 47 13 79t35.5 52t52 28.5t62.5 8.5q65 0 102.5 -33t37.5 -87q0 -42 -23.5 -71.5t-65.5 -29.5q-40 0 -64 23t-24 55q0 12 1 16t2 6h50q-1 -1 -1 -3v-6q0 -18 9.5 -27
t22.5 -9q17 0 25 13.5t8 32.5q0 26 -21 44.5t-59 18.5q-46 0 -74 -26.5t-28 -83.5q0 -30 11 -52.5t26.5 -38t33.5 -23t32 -7.5h71v-58h-74q-13 0 -30.5 -10t-33 -30t-26 -49t-10.5 -67q0 -73 27.5 -102.5t74.5 -29.5q36 0 53 20t17 53q0 2 -0.5 4t-0.5 4v4h57q1 -2 2 -6
q2 -8 2 -18q0 -23 -7 -45t-22.5 -39t-40.5 -27.5t-60 -10.5t-65 10t-51.5 32.5t-34 59.5t-12.5 91z" />
    <glyph glyph-name="G" unicode="G" horiz-adv-x="370" 
d="M279 273q0 30 -8 43t-25 13q-13 0 -22.5 -9t-9.5 -27v-6q0 -2 1 -3h-50q-1 2 -2 6t-1 16q0 32 24 55t64 23q42 0 65.5 -29t23.5 -82v-101q0 -49 -12 -83t-31 -55t-42 -30.5t-45 -9.5q-35 0 -66.5 10t-55 38.5t-37.5 78.5t-14 130v185q0 80 14 129.5t37.5 77t55 37
t66.5 9.5t60 -10.5t40.5 -27.5t22.5 -39t7 -45q0 -10 -2 -18q-1 -4 -2 -6h-57v4q0 2 0.5 4t0.5 4q0 33 -17 53t-53 20q-23 0 -43.5 -7t-35.5 -28t-24 -58.5t-9 -98.5v-185q0 -61 9 -99.5t24 -60t35.5 -29t43.5 -7.5q12 0 24.5 6.5t23 21t17 38t6.5 57.5z" />
    <glyph glyph-name="F" unicode="F" horiz-adv-x="368" 
d="M218 695q65 0 102.5 -33t37.5 -87q0 -42 -23.5 -71.5t-65.5 -29.5q-40 0 -64 23t-24 55q0 12 1 16t2 6h50q-1 -1 -1 -3v-6q0 -18 9.5 -27t22.5 -9q17 0 25 13.5t8 32.5q0 26 -21 44.5t-59 18.5q-23 0 -43.5 -7.5t-35.5 -29t-24 -60t-9 -99.5v-57h134v-60h-134v-325h-61
v446q0 78 14 127t37.5 76t55 36.5t66.5 9.5z" />
    <glyph glyph-name="H" unicode="H" horiz-adv-x="357" 
d="M308 689v-689h-61v297h-137v-297h-61v689h61v-333h137v333h61z" />
    <glyph glyph-name="I" unicode="I" horiz-adv-x="159" 
d="M110 689v-689h-61v689h61z" />
    <glyph glyph-name="J" unicode="J" horiz-adv-x="360" 
d="M16 147q0 72 33 113.5t87 41.5q36 0 61 -20t25 -58q0 -36 -21.5 -59.5t-56.5 -23.5q-13 0 -17 1t-5 2v50q1 -1 3 -1h6q20 0 28 9t8 17q0 13 -8.5 18t-22.5 5q-25 0 -42 -23.5t-17 -65.5q0 -27 7.5 -45.5t18.5 -30.5t25 -17t28 -5q19 0 37 7.5t31 29t21 60t8 99.5v438h61
v-438q0 -80 -13 -130t-35 -78.5t-50.5 -38.5t-59.5 -10q-23 0 -48 8.5t-45.5 26.5t-33.5 47t-13 71z" />
    <glyph glyph-name="L" unicode="L" horiz-adv-x="294" 
d="M110 689v-631h167v-58h-228v689h61z" />
    <glyph glyph-name="N" unicode="N" horiz-adv-x="367" 
d="M318 689v-689h-61l-147 485v-485h-61v689h61l147 -498v498h61z" />
    <glyph glyph-name="O" unicode="O" horiz-adv-x="408" 
d="M36 436q0 80 13.5 129.5t36.5 77t53.5 37t64.5 9.5t64.5 -9.5t53.5 -37t36.5 -77t13.5 -129.5v-185q0 -80 -13.5 -130t-36.5 -78.5t-53.5 -38.5t-64.5 -10t-64.5 10t-53.5 38.5t-36.5 78.5t-13.5 130v185zM311 436q0 61 -8.5 98.5t-23 58.5t-34 28t-41.5 7t-41.5 -7
t-34 -28t-23 -58.5t-8.5 -98.5v-185q0 -61 8.5 -100t23 -61t34 -30.5t41.5 -8.5t41.5 8.5t34 30.5t23 61t8.5 100v185z" />
    <glyph glyph-name="Q" unicode="Q" horiz-adv-x="408" 
d="M465 -127q0 12 -9 20.5t-27 8.5q-2 0 -3 -0.5t-3 -0.5h-3v50q2 0 6 1q8 2 16 2q32 0 55 -23.5t23 -61.5q0 -51 -35 -82t-95 -31q-39 0 -76 11.5t-65.5 39.5t-46.5 73t-20 113q-30 3 -57 15.5t-46.5 41.5t-31 77t-11.5 122v185q0 80 13.5 129.5t36.5 77t53.5 37t64.5 9.5
t64.5 -9.5t53.5 -37t36.5 -77t13.5 -129.5v-185q0 -69 -10 -115t-27.5 -75.5t-41.5 -44t-51 -18.5q1 -50 13.5 -85t32.5 -56.5t46.5 -31.5t55.5 -10q42 0 58.5 17.5t16.5 42.5zM311 434q0 61 -8.5 98.5t-23 58.5t-34 28t-41.5 7t-41.5 -7t-34 -28t-23 -58.5t-8.5 -98.5v-185
q0 -61 8.5 -100t23 -61t34 -30.5t41.5 -8.5t41.5 8.5t34 30.5t23 61t8.5 100v185z" />
    <glyph glyph-name="U" unicode="U" horiz-adv-x="422" 
d="M376 689v-438q0 -80 -13 -130t-35.5 -78.5t-52.5 -38.5t-64 -10t-64 10t-52.5 38.5t-35.5 78.5t-13 130v438h61v-438q0 -61 8 -99.5t22.5 -60t33.5 -29t40 -7.5t40 7.5t33.5 29t22.5 60t8 99.5v438h61z" />
    <glyph glyph-name="P" unicode="P" horiz-adv-x="322" 
d="M66 689q57 0 101.5 -5.5t74.5 -23t46 -48.5t16 -82q0 -45 -12.5 -75.5t-37 -49.5t-61 -28t-83.5 -11v-366h-61v689h17zM243 530q0 27 -8.5 44.5t-25.5 28.5t-42 16.5t-57 7.5v-199q66 4 99.5 25t33.5 77z" />
    <glyph glyph-name="R" unicode="R" horiz-adv-x="334" 
d="M66 689q57 0 101.5 -5.5t74.5 -23t46 -48.5t16 -82q0 -65 -25 -100t-75 -50l115 -380h-62l-111 368q-8 -1 -17.5 -1.5t-18.5 -0.5v-366h-61v689h17zM243 530q0 27 -8.5 44.5t-25.5 28.5t-42 16.5t-57 7.5v-199q66 4 99.5 25t33.5 77z" />
    <glyph glyph-name="T" unicode="T" horiz-adv-x="301" 
d="M180 629v-631h-61v631h-103v59h269v-59h-105z" />
    <glyph glyph-name="B.swash" horiz-adv-x="363" 
d="M274 189q0 47 -11 77t-30.5 47.5t-45 24.5t-54.5 7v-284q37 1 63.5 7.5t44 21t25.5 38.5t8 61zM266 530q0 27 -8.5 44.5t-25.5 28.5t-42 16.5t-57 7.5v-220q28 0 52.5 6.5t42.5 21t28 38t10 57.5zM-124 1066q58 0 58 26q0 11 -11.5 21t-46.5 10q-26 0 -47 -11t-38 -30
q19 -8 40 -12t45 -4zM14 822q0 13 -3.5 25.5t-17.5 12.5q-8 0 -15 -10.5t-7 -33.5q0 -30 8 -57q22 12 28.5 29t6.5 34zM89 689q57 0 101.5 -5.5t74.5 -23t46 -48.5t16 -82q0 -72 -33 -109t-96 -45q66 -8 101.5 -52.5t35.5 -134.5q0 -62 -15.5 -99t-46 -57t-75.5 -26.5
t-105 -6.5h-21v633q-44 0 -75.5 15.5t-51.5 44.5q-20 -3 -43 -3q-48 0 -88 18.5t-69.5 51.5t-45.5 78t-16 99q0 67 28 126q-51 39 -77 99.5t-26 130.5q0 99 39 177.5t110.5 132.5t172 83t223.5 29q98 0 180 -21.5t148.5 -59t117 -87.5t84.5 -107.5t51 -119t17 -120.5
q0 -93 -24.5 -164t-67 -119.5t-99.5 -73.5t-121 -25q-79 0 -130 27t-81 68t-42 91t-12 95q0 13 1 17t2 5h50q-1 -1 -1 -3v-6q0 -45 10.5 -88t35 -76.5t65.5 -53.5t102 -20q52 0 98 21.5t80 63t54 102.5t20 139q0 52 -15.5 106t-46 105t-76 96t-105.5 78.5t-134 53t-161 19.5
q-110 0 -199 -25t-153 -72t-98.5 -115t-34.5 -153q0 -55 19 -102t56 -79q26 30 62 48.5t84 18.5q29 0 49 -8.5t32.5 -21.5t18 -28.5t5.5 -28.5q0 -34 -30.5 -58t-87.5 -24q-63 0 -114 23q-9 -23 -14 -47t-5 -49q0 -40 12 -75t33 -61t50 -41t64 -15h19q-9 31 -9 71
q0 46 24 72.5t62 26.5q23 0 37.5 -9.5t23 -24.5t11.5 -32t3 -32q0 -10 -2.5 -24t-9.5 -28.5t-20 -28.5t-33 -25q25 -22 64 -22h17z" />
    <glyph glyph-name="P.swash" horiz-adv-x="344" 
d="M72 633q-45 0 -76 15.5t-51 44.5q-20 -3 -43 -3q-48 0 -88 18.5t-69.5 51.5t-45.5 78t-16 99q0 67 28 126q-51 39 -77 99.5t-26 130.5q0 99 39 177.5t110.5 132.5t172 83t223.5 29q98 0 180 -21.5t148.5 -59t117 -87.5t84.5 -107.5t51 -119t17 -120.5q0 -93 -24.5 -164
t-67 -119.5t-99.5 -73.5t-121 -25q-79 0 -130 27t-81 68t-42 91t-12 95q0 13 1 17t2 5h50q-1 -1 -1 -3v-6q0 -45 10.5 -88t35 -76.5t65.5 -53.5t102 -20q52 0 98 21.5t80 63t54 102.5t20 139q0 52 -15.5 106t-46 105t-76 96t-105.5 78.5t-134 53t-161 19.5q-110 0 -199 -25
t-153 -72t-98.5 -115t-34.5 -153q0 -55 19 -102t56 -79q26 30 62 48.5t84 18.5q29 0 49 -8.5t32.5 -21.5t18 -28.5t5.5 -28.5q0 -34 -30.5 -58t-87.5 -24q-63 0 -114 23q-9 -23 -14 -47t-5 -49q0 -40 12 -75t33 -61t50 -41t64 -15h19q-9 31 -9 71q0 46 24 72.5t62 26.5
q23 0 37.5 -9.5t23 -24.5t11.5 -32t3 -32q0 -10 -2.5 -24t-10 -28.5t-20 -28.5t-33.5 -25q25 -22 65 -22h17q57 0 101.5 -5.5t74.5 -23t46 -48.5t16 -82q0 -45 -12.5 -75.5t-37 -49.5t-61 -28t-83.5 -11v-366h-61v633zM266 530q0 27 -8.5 44.5t-25.5 28.5t-42 16.5t-57 7.5
v-199q66 4 99.5 25t33.5 77zM-124 1066q58 0 58 26q0 11 -11.5 21t-46.5 10q-26 0 -47 -11t-38 -30q19 -8 40 -12t45 -4zM14 822q0 13 -3.5 25.5t-17.5 12.5q-8 0 -15 -10.5t-7 -33.5q0 -30 8 -57q22 12 28.5 29t6.5 34z" />
    <glyph glyph-name="K" unicode="K" horiz-adv-x="342" 
d="M110 689v-242l158 241h64l-165 -253l167 -435h-62l-144 374l-18 -28v-346h-61v689h61z" />
    <glyph glyph-name="M" unicode="M" horiz-adv-x="447" 
d="M393 689l10 -689h-61l-7 489l-81 -295h-62l-85 310l-2 -504h-61l10 689h61l108 -387l109 387h61z" />
    <glyph glyph-name="V" unicode="V" 
d="M334 689l-134 -689h-60l-123 689h61l93 -543l101 543h62z" />
    <glyph glyph-name="W" unicode="W" horiz-adv-x="515" 
d="M501 689l-134 -689h-58l-52 299l-56 -299h-58l-123 689h61l93 -542l54 293l-44 249h61l14 -136v-1l16 137h62l-49 -251l50 -291l101 542h62z" />
    <glyph glyph-name="X" unicode="X" horiz-adv-x="323" 
d="M299 689q-14 -44 -31 -92q-14 -42 -32.5 -95.5t-38.5 -112.5q23 -70 46 -139t41 -125q21 -65 40 -125h-62q-14 44 -30 95q-14 44 -32.5 100t-38.5 116q-20 -61 -38 -116.5t-32 -99.5q-16 -51 -30 -95h-62q19 60 40 125q18 56 40.5 125t45.5 139q-20 59 -38 112.5
t-32 95.5q-17 48 -31 92h61q10 -31 22 -67q11 -31 24.5 -71.5t29.5 -87.5q16 47 30 87.5t25 71.5q12 36 22 67h61z" />
    <glyph glyph-name="Z" unicode="Z" horiz-adv-x="325" 
d="M15 0v59l233 573h-232v59h293v-59l-232 -573h232v-59h-294z" />
    <glyph glyph-name="Y" unicode="Y" horiz-adv-x="343" 
d="M78 689l93 -242l102 242h62l-134 -322v-367h-61v367l-123 322h61z" />
    <glyph glyph-name="S" unicode="S" horiz-adv-x="379" 
d="M81 148q0 -42 28 -67.5t77 -25.5q21 0 40.5 6.5t34.5 21t23.5 38.5t8.5 59q0 46 -19 77t-47 54.5t-61.5 44t-61.5 46t-47 59.5t-19 85q0 39 13 66.5t35.5 44.5t52 24.5t62.5 7.5q65 0 102.5 -33t37.5 -87q0 -42 -23.5 -71.5t-65.5 -29.5q-40 0 -64 23t-24 55q0 12 1 16
t2 6h50q-1 -1 -1 -3v-6q0 -18 9.5 -27t22.5 -9q17 0 25 13.5t8 32.5q0 26 -21 44.5t-59 18.5q-42 0 -72 -20t-30 -65q0 -41 19 -69t47 -50.5t61.5 -43t61.5 -47.5t47 -64.5t19 -92.5q0 -52 -14 -87.5t-37 -57.5t-53.5 -31.5t-63.5 -9.5q-76 0 -120.5 42.5t-44.5 111.5
q0 42 23.5 71.5t65.5 29.5q40 0 64 -23t24 -55q0 -8 -2 -16q-1 -4 -1 -6h-50v3q0 2 0.5 3t0.5 3q0 18 -9.5 27t-22.5 9q-17 0 -25 -13.5t-8 -32.5z" />
    <glyph glyph-name="tilde" unicode="&#x2dc;" horiz-adv-x="328" 
d="M-53 592q8 17 19 30q10 11 24 20.5t33 9.5t35 -5.5t29.5 -12t27 -12t28.5 -5.5q12 0 19.5 5t12.5 12q5 8 8 18l38 -11q-4 -21 -12 -37q-8 -14 -20.5 -25.5t-34.5 -11.5q-21 0 -38.5 5.5t-32 12t-28 12t-26.5 5.5q-11 0 -19.5 -5.5t-15.5 -12.5q-8 -8 -14 -17z" />
    <glyph glyph-name="Ntilde" unicode="&#xd1;" horiz-adv-x="365" 
d="M317 559v-559h-61l-147 392v-392h-61v559h61l147 -379v379h61zM51 630q8 17 19 30q10 11 24 20.5t33 9.5t35 -5.5t29.5 -12t27 -12t28.5 -5.5q12 0 19.5 5t12.5 12q5 8 8 18l38 -11q-4 -21 -12 -37q-8 -14 -20.5 -25.5t-34.5 -11.5q-21 0 -38.5 5.5t-32 12t-28 12
t-26.5 5.5q-11 0 -19.5 -5.5t-15.5 -12.5q-8 -8 -14 -17z" />
    <glyph glyph-name="Atilde" unicode="&#xc3;" 
d="M197 599l135 -599h-61l-49 217h-102l-44 -217h-61l123 599h59zM132 276h77l-40 177zM332 15h15v-15h-15v15zM28 630q8 17 19 30q10 11 24 20.5t33 9.5t35 -5.5t29.5 -12t27 -12t28.5 -5.5q12 0 19.5 5t12.5 12q5 8 8 18l38 -11q-4 -21 -12 -37q-8 -14 -20.5 -25.5
t-34.5 -11.5q-21 0 -38.5 5.5t-32 12t-28 12t-26.5 5.5q-11 0 -19.5 -5.5t-15.5 -12.5q-8 -8 -14 -17z" />
    <glyph glyph-name="Otilde" unicode="&#xd5;" horiz-adv-x="408" 
d="M36 373q0 72 13 117t34.5 69.5t50 33t60.5 8.5q31 0 60 -8.5t50.5 -33t34.5 -69.5t13 -117v-147q0 -72 -13 -117.5t-34.5 -71t-50.5 -34.5t-60 -9q-32 0 -60.5 9t-50 34.5t-34.5 71t-13 117.5v147zM291 373q0 53 -7.5 86t-21 51.5t-31 25t-37.5 6.5t-37.5 -6.5t-31 -25
t-21 -51.5t-7.5 -86v-147q0 -54 7.5 -87.5t21 -52.5t31 -26t37.5 -7t37.5 7t31 26t21 52.5t7.5 87.5v147zM58 630q8 17 19 30q10 11 24 20.5t33 9.5t35 -5.5t29.5 -12t27 -12t28.5 -5.5q12 0 19.5 5t12.5 12q5 8 8 18l38 -11q-4 -21 -12 -37q-8 -14 -20.5 -25.5t-34.5 -11.5
q-21 0 -38.5 5.5t-32 12t-28 12t-26.5 5.5q-11 0 -19.5 -5.5t-15.5 -12.5q-8 -8 -14 -17z" />
    <glyph glyph-name="atilde" unicode="&#xe3;" horiz-adv-x="353" 
d="M149 546q-35 0 -49 -13.5t-14 -42.5v-6q0 -2 1 -3h-50q-1 1 -2 5t-1 17q0 39 29.5 68.5t85.5 29.5q45 0 72.5 -12t43 -38t21 -67.5t5.5 -101.5v-272q0 -29 14.5 -46.5t48.5 -17.5q9 0 12 1t4 2v-47q-4 -2 -9 -4t-13 -3t-22 -1q-32 0 -54 13.5t-33 44.5q-14 -23 -37 -41
t-58 -18q-23 0 -44 10t-37 29.5t-25.5 49t-9.5 68.5q0 51 17.5 89.5t46.5 66.5t65 44t74 22v10q0 44 -3 75t-12 51t-25 29t-42 9zM156 53q22 0 36.5 10.5t22.5 24t11.5 25.5t4.5 16v182q-27 -5 -53 -17.5t-46 -33t-32 -48t-12 -62.5q0 -49 19.5 -73t48.5 -24zM28 632
q8 17 19 30q10 11 24 20.5t33 9.5t35 -5.5t29.5 -12t27 -12t28.5 -5.5q12 0 19.5 5t12.5 12q5 8 8 18l38 -11q-4 -21 -12 -37q-8 -14 -20.5 -25.5t-34.5 -11.5q-21 0 -38.5 5.5t-32 12t-28 12t-26.5 5.5q-11 0 -19.5 -5.5t-15.5 -12.5q-8 -8 -14 -17z" />
    <glyph glyph-name="ntilde" unicode="&#xf1;" horiz-adv-x="374" 
d="M328 0h-60v404v35t-5 32.5t-17 24t-35 9.5q-29 0 -56 -14t-47 -28v-463h-60v558h60v-47q20 18 51 36t71 18q35 0 54.5 -15.5t29.5 -39t12 -52t2 -53.5v-405zM45 630q8 17 19 30q10 11 24 20.5t33 9.5t35 -5.5t29.5 -12t27 -12t28.5 -5.5q12 0 19.5 5t12.5 12q5 8 8 18
l38 -11q-4 -21 -12 -37q-8 -14 -20.5 -25.5t-34.5 -11.5q-21 0 -38.5 5.5t-32 12t-28 12t-26.5 5.5q-11 0 -19.5 -5.5t-15.5 -12.5q-8 -8 -14 -17z" />
    <glyph glyph-name="otilde" unicode="&#xf5;" horiz-adv-x="443" 
d="M393 417q0 17 -7.5 29.5t-20.5 12.5q-2 0 -3 -0.5t-3 -0.5h-3v50q2 0 6 1q8 2 16 2q28 0 48 -26t20 -64q0 -48 -29.5 -79t-83.5 -41v-75q0 -74 -12 -119.5t-32.5 -71t-47.5 -34t-56 -8.5t-56 9t-47 34.5t-32 70.5t-12 119v133q0 75 12 122t32.5 72.5t47.5 34.5t56 9
t55.5 -9t47 -35t32.5 -72.5t12 -121.5v-1q27 7 43.5 22.5t16.5 36.5zM98 226q0 -55 7 -89t19 -52.5t28 -25t34 -6.5q17 0 33 6.5t28 25t19 52.5t7 89v71q-28 1 -54.5 9t-49 24.5t-40 41.5t-27.5 61q-2 -16 -3 -34t-1 -40v-133zM273 359q0 57 -7 92.5t-19 55.5t-28 27t-34 7
q-29 0 -49 -19q2 -45 14 -76.5t31 -51.5t42.5 -30t49.5 -12v7zM46 630q8 17 19 30q10 11 24 20.5t33 9.5t35 -5.5t29.5 -12t27 -12t28.5 -5.5q12 0 19.5 5t12.5 12q5 8 8 18l38 -11q-4 -21 -12 -37q-8 -14 -20.5 -25.5t-34.5 -11.5q-21 0 -38.5 5.5t-32 12t-28 12t-26.5 5.5
q-11 0 -19.5 -5.5t-15.5 -12.5q-8 -8 -14 -17z" />
    <glyph glyph-name="grave" unicode="`" horiz-adv-x="98" 
d="M81 751l-37 -33l-108 132l44 37z" />
    <glyph glyph-name="acute" unicode="&#xb4;" horiz-adv-x="96" 
d="M130 887l44 -37l-108 -132l-37 33z" />
    <glyph glyph-name="Agrave" unicode="&#xc0;" 
d="M190 510l118 -510h-60l-40 177h-93l-39 -177h-61l116 510h59zM128 236h66l-33 147zM188 575l-37 -33l-108 132l44 37z" />
    <glyph glyph-name="Aacute" unicode="&#xc1;" 
d="M190 510l118 -510h-60l-40 177h-93l-39 -177h-61l116 510h59zM128 236h66l-33 147zM233 711l44 -37l-108 -132l-37 33z" />
    <glyph glyph-name="Egrave" unicode="&#xc8;" horiz-adv-x="356" 
d="M94 387q0 -23 9 -39.5t21.5 -27t27 -16t25.5 -5.5h51v-58h-54q-11 0 -24.5 -6.5t-26 -19.5t-21 -32.5t-8.5 -45.5q0 -42 22 -62t60 -20q31 0 45.5 14.5t14.5 38.5q0 2 -0.5 4t-0.5 4v4h57q1 -2 2 -6q2 -8 2 -18q0 -19 -6.5 -37.5t-21 -32.5t-37 -23t-55.5 -9
q-30 0 -56.5 7.5t-45.5 24t-30 44t-11 67.5q0 33 8 56t20 38t27 24t29 15q-12 7 -26.5 16.5t-27.5 23.5t-21.5 33t-8.5 43q0 36 11.5 60.5t31 39.5t45.5 21.5t55 6.5q56 0 88 -29.5t32 -74.5q0 -38 -20.5 -62.5t-58.5 -24.5q-35 0 -56.5 20t-21.5 48q0 13 1 17t2 5h50
q-1 0 -1 -1v-8q0 -26 22 -26q23 0 23 32q0 19 -15.5 33t-44.5 14q-37 0 -59.5 -17t-22.5 -53zM207 574l-37 -33l-108 132l44 37z" />
    <glyph glyph-name="Eacute" unicode="&#xc9;" horiz-adv-x="356" 
d="M94 387q0 -23 9 -39.5t21.5 -27t27 -16t25.5 -5.5h51v-58h-54q-11 0 -24.5 -6.5t-26 -19.5t-21 -32.5t-8.5 -45.5q0 -42 22 -62t60 -20q31 0 45.5 14.5t14.5 38.5q0 2 -0.5 4t-0.5 4v4h57q1 -2 2 -6q2 -8 2 -18q0 -19 -6.5 -37.5t-21 -32.5t-37 -23t-55.5 -9
q-30 0 -56.5 7.5t-45.5 24t-30 44t-11 67.5q0 33 8 56t20 38t27 24t29 15q-12 7 -26.5 16.5t-27.5 23.5t-21.5 33t-8.5 43q0 36 11.5 60.5t31 39.5t45.5 21.5t55 6.5q56 0 88 -29.5t32 -74.5q0 -38 -20.5 -62.5t-58.5 -24.5q-35 0 -56.5 20t-21.5 48q0 13 1 17t2 5h50
q-1 0 -1 -1v-8q0 -26 22 -26q23 0 23 32q0 19 -15.5 33t-44.5 14q-37 0 -59.5 -17t-22.5 -53zM235 711l44 -37l-108 -132l-37 33z" />
    <glyph glyph-name="Igrave" unicode="&#xcc;" horiz-adv-x="155" 
d="M106 511v-511h-61v511h61zM102 579l-37 -33l-108 132l44 37z" />
    <glyph glyph-name="Iacute" unicode="&#xcd;" horiz-adv-x="155" 
d="M106 511v-511h-61v511h61zM153 710l44 -37l-108 -132l-37 33z" />
    <glyph glyph-name="Ograve" unicode="&#xd2;" horiz-adv-x="408" 
d="M36 317q0 60 11.5 98t30.5 60.5t44 31t52 8.5q28 0 54 -8.5t45.5 -31t31.5 -60.5t12 -98v-125q0 -58 -12 -96t-31.5 -60.5t-45.5 -31.5t-54 -9q-27 0 -52 9t-44 31.5t-30.5 60.5t-11.5 96v125zM256 317q0 42 -6.5 68.5t-18 41.5t-26.5 21t-31 6q-15 0 -29 -6t-24.5 -21.5
t-17 -42t-6.5 -67.5v-125q0 -39 6.5 -65.5t17 -42t24.5 -22t29 -6.5q16 0 31 6.5t26.5 22t18 42t6.5 65.5v125zM216 574l-37 -33l-108 132l44 37z" />
    <glyph glyph-name="Oacute" unicode="&#xd3;" horiz-adv-x="408" 
d="M36 317q0 60 11.5 98t30.5 60.5t44 31t52 8.5q28 0 54 -8.5t45.5 -31t31.5 -60.5t12 -98v-125q0 -58 -12 -96t-31.5 -60.5t-45.5 -31.5t-54 -9q-27 0 -52 9t-44 31.5t-30.5 60.5t-11.5 96v125zM256 317q0 42 -6.5 68.5t-18 41.5t-26.5 21t-31 6q-15 0 -29 -6t-24.5 -21.5
t-17 -42t-6.5 -67.5v-125q0 -39 6.5 -65.5t17 -42t24.5 -22t29 -6.5q16 0 31 6.5t26.5 22t18 42t6.5 65.5v125zM255 712l44 -37l-108 -132l-37 33z" />
    <glyph glyph-name="Ugrave" unicode="&#xd9;" horiz-adv-x="422" 
d="M336 511v-330q0 -55 -11.5 -91t-31 -57.5t-46 -30t-56.5 -8.5t-56.5 8.5t-46 30t-31 57.5t-11.5 91v330h61v-330q0 -42 6.5 -67t18 -38t27 -17t32.5 -4t32.5 3.5t27 16.5t18 38t6.5 68v330h61zM229 573l-37 -33l-108 132l44 37z" />
    <glyph glyph-name="Uacute" unicode="&#xda;" horiz-adv-x="422" 
d="M336 511v-330q0 -55 -11.5 -91t-31 -57.5t-46 -30t-56.5 -8.5t-56.5 8.5t-46 30t-31 57.5t-11.5 91v330h61v-330q0 -42 6.5 -67t18 -38t27 -17t32.5 -4t32.5 3.5t27 16.5t18 38t6.5 68v330h61zM267 711l44 -37l-108 -132l-37 33z" />
    <glyph glyph-name="Yacute" unicode="&#xdd;" horiz-adv-x="343" 
d="M78 511l87 -224l94 224h62l-126 -304v-207h-61v207l-117 304h61zM234 712l44 -37l-108 -132l-37 33z" />
    <glyph glyph-name="agrave" unicode="&#xe0;" horiz-adv-x="353" 
d="M149 454q-35 0 -49 -13.5t-14 -42.5v-6q0 -2 1 -3h-50q-1 1 -2 5t-1 17q0 39 29.5 68.5t85.5 29.5q45 0 72.5 -12t43 -38t21 -67.5t5.5 -101.5v-180q0 -29 14.5 -46.5t48.5 -17.5q9 0 12 1t4 2v-47q-4 -2 -9 -4t-13 -3t-22 -1q-32 0 -54 13.5t-33 44.5q-14 -23 -37 -41
t-58 -18q-23 0 -44 8t-37 24t-25.5 40t-9.5 55q0 41 17.5 73t46.5 54.5t65 36t74 18.5q0 40 -3.5 69t-12.5 47.5t-25 27t-41 8.5zM156 53q23 0 38 12t23 26q10 17 14 38v113q-27 -4 -53 -14t-46 -25t-32 -36t-12 -47q0 -33 19.5 -50t48.5 -17zM189 574l-37 -33l-108 132
l44 37z" />
    <glyph glyph-name="aacute" unicode="&#xe1;" horiz-adv-x="357" 
d="M150 454q-35 0 -49 -13.5t-14 -42.5v-6q0 -2 1 -3h-50q-1 1 -2 5t-1 17q0 39 29.5 68.5t85.5 29.5q45 0 72.5 -12t43 -38t21 -67.5t5.5 -101.5v-180q0 -29 14.5 -46.5t48.5 -17.5q9 0 12 1t4 2v-47q-4 -2 -9 -4t-13 -3t-22 -1q-32 0 -54 13.5t-33 44.5q-14 -23 -37 -41
t-58 -18q-23 0 -44 8t-37 24t-25.5 40t-9.5 55q0 41 17.5 73t46.5 54.5t65 36t74 18.5q0 40 -3.5 69t-12.5 47.5t-25 27t-41 8.5zM157 53q23 0 38 12t23 26q10 17 14 38v113q-27 -4 -53 -14t-46 -25t-32 -36t-12 -47q0 -33 19.5 -50t48.5 -17zM222 711l44 -37l-108 -132
l-37 33z" />
    <glyph glyph-name="egrave" unicode="&#xe8;" horiz-adv-x="343" 
d="M98 197q0 -45 6 -73t16.5 -44.5t25 -22.5t30.5 -6q36 0 50 20.5t14 52.5q0 2 -0.5 4t-0.5 4v4h57q1 -2 2 -6q2 -8 2 -18q0 -22 -7 -44t-22 -39t-39 -28t-58 -11q-28 0 -53 9t-43.5 32.5t-29 63.5t-10.5 102v109q0 65 10.5 105t28.5 61.5t41 29t48 7.5q42 0 68.5 -18.5
t41 -51.5t20 -80t5.5 -104v-26h-203v-32zM98 285h143q-1 37 -4.5 67.5t-12 52t-22.5 33t-36 11.5q-14 0 -26 -5t-21.5 -20.5t-15 -43.5t-5.5 -74v-21zM201 574l-37 -33l-108 132l44 37z" />
    <glyph glyph-name="eacute" unicode="&#xe9;" horiz-adv-x="343" 
d="M98 197q0 -45 6 -73t16.5 -44.5t25 -22.5t30.5 -6q36 0 50 20.5t14 52.5q0 2 -0.5 4t-0.5 4v4h57q1 -2 2 -6q2 -8 2 -18q0 -22 -7 -44t-22 -39t-39 -28t-58 -11q-28 0 -53 9t-43.5 32.5t-29 63.5t-10.5 102v109q0 65 10.5 105t28.5 61.5t41 29t48 7.5q42 0 68.5 -18.5
t41 -51.5t20 -80t5.5 -104v-26h-203v-32zM98 285h143q-1 37 -4.5 67.5t-12 52t-22.5 33t-36 11.5q-14 0 -26 -5t-21.5 -20.5t-15 -43.5t-5.5 -74v-21zM224 712l44 -37l-108 -132l-37 33z" />
    <glyph glyph-name="ograve" unicode="&#xf2;" horiz-adv-x="443" 
d="M375 355q0 17 -7.5 29.5t-20.5 12.5q-2 0 -3 -0.5t-3 -0.5h-3v50q2 0 6 1q8 2 16 2q28 0 48 -26t20 -64q0 -49 -27.5 -82t-77.5 -45v-36q0 -61 -12 -100.5t-31.5 -62t-45.5 -31.5t-54 -9t-54 9t-45.5 32t-31 62t-11.5 100v110q0 61 12 100.5t31.5 62t45.5 31.5t54 9
t53.5 -9t45 -32t31.5 -62t12 -100v-15q24 9 38 25.5t14 38.5zM98 196q0 -44 7 -71.5t18 -43.5t26 -22t32 -6q16 0 31 6.5t26 22.5t18 43.5t7 70.5v29q-51 1 -95 20.5t-70 67.5v-117zM263 306q0 43 -7 71.5t-18 45.5t-26.5 23.5t-31.5 6.5q-18 0 -34.5 -8t-27.5 -28
q3 -38 16 -64t33 -42t44.5 -23t51.5 -8v26zM219 575l-37 -33l-108 132l44 37z" />
    <glyph glyph-name="oacute" unicode="&#xf3;" horiz-adv-x="443" 
d="M375 355q0 17 -7.5 29.5t-20.5 12.5q-2 0 -3 -0.5t-3 -0.5h-3v50q2 0 6 1q8 2 16 2q28 0 48 -26t20 -64q0 -49 -27.5 -82t-77.5 -45v-36q0 -61 -12 -100.5t-31.5 -62t-45.5 -31.5t-54 -9t-54 9t-45.5 32t-31 62t-11.5 100v110q0 61 12 100.5t31.5 62t45.5 31.5t54 9
t53.5 -9t45 -32t31.5 -62t12 -100v-15q24 9 38 25.5t14 38.5zM98 196q0 -44 7 -71.5t18 -43.5t26 -22t32 -6q16 0 31 6.5t26 22.5t18 43.5t7 70.5v29q-51 1 -95 20.5t-70 67.5v-117zM263 306q0 43 -7 71.5t-18 45.5t-26.5 23.5t-31.5 6.5q-18 0 -34.5 -8t-27.5 -28
q3 -38 16 -64t33 -42t44.5 -23t51.5 -8v26zM260 710l44 -37l-108 -132l-37 33z" />
    <glyph glyph-name="ugrave" unicode="&#xf9;" horiz-adv-x="377" 
d="M248 0v46q-19 -18 -48 -35t-64 -17q-32 0 -49.5 15.5t-26 39t-10.5 51.5t-2 54v357h60v-356v-35t4 -32.5t14 -24t29 -9.5q25 0 50 13t43 27v417h60v-511h-60zM207 574l-37 -33l-108 132l44 37z" />
    <glyph glyph-name="uacute" unicode="&#xfa;" horiz-adv-x="348" 
d="M243 0v46q-19 -18 -48 -35t-64 -17q-32 0 -49.5 15.5t-26 39t-10.5 51.5t-2 54v357h60v-356v-35t4 -32.5t14 -24t29 -9.5q25 0 50 13t43 27v417h60v-511h-60zM243 711l44 -37l-108 -132l-37 33z" />
    <glyph glyph-name="yacute" unicode="&#xfd;" horiz-adv-x="334" 
d="M153 -6q-56 0 -88 31t-32 85q0 37 22 66t67 29q37 0 57.5 -23t20.5 -55q0 -6 -0.5 -10t-1.5 -7q-1 -4 -1 -5h-50v1q0 1 0.5 2.5t0.5 5.5q0 36 -26 36q-17 0 -23 -12.5t-6 -27.5q0 -26 15.5 -42.5t44.5 -16.5q16 0 30 5t24.5 20t17 41.5t6.5 69.5v92q-20 -17 -50 -32
t-67 -15q-32 0 -49.5 13.5t-26 34t-10.5 45t-2 47.5v137h60v-136v-28t4 -26t14 -19.5t29 -7.5q26 0 52 11.5t46 24.5v182h60v-323q0 -61 -11.5 -99t-30.5 -59t-44 -28t-52 -7zM219 709l44 -37l-108 -132l-37 33z" />
    <glyph glyph-name="zero" unicode="0" horiz-adv-x="420" 
d="M42 355q0 110 13.5 176t36.5 101t53.5 46t64.5 11t64.5 -11t53.5 -46t36.5 -101t13.5 -177q0 -119 -13.5 -190t-36.5 -108.5t-53.5 -49.5t-64.5 -12t-64.5 12t-53.5 50t-36.5 109t-13.5 190zM317 356q0 90 -8.5 144t-23 83.5t-34 39t-41.5 9.5t-41.5 -9.5t-34 -39
t-23 -84t-8.5 -144.5q0 -99 8.5 -158.5t23 -92t34 -43t41.5 -10.5t41.5 10.5t34 43t23 92.5t8.5 159z" />
    <glyph glyph-name="one" unicode="1" horiz-adv-x="245" 
d="M189 689v-689h-58v536l-59 -163l-51 20l110 296h58z" />
    <glyph glyph-name="two" unicode="2" horiz-adv-x="412" 
d="M92 506q0 -21 5 -39q3 -10 6 -18h-54q-4 9 -7 20q-3 10 -5 23.5t-2 30.5q0 48 13.5 81.5t36 54.5t51.5 31t61 10q36 0 67.5 -8.5t55.5 -30.5t37.5 -60t13.5 -96q0 -66 -19.5 -110t-49.5 -75.5t-64.5 -56.5t-64 -52.5t-50 -63t-20.5 -89.5h271v-58h-332v58q0 61 20.5 103
t50 73t64 57t64.5 55.5t49.5 67t19.5 93.5q0 39 -8.5 65t-23 42t-34 22.5t-41.5 6.5q-49 0 -80 -31.5t-31 -105.5z" />
    <glyph glyph-name="question" unicode="?" horiz-adv-x="388" 
d="M82 506q0 -21 5 -39q3 -10 6 -18h-54q-4 9 -7 20q-3 10 -5 23.5t-2 30.5q0 48 13.5 81.5t36 54.5t51.5 31t61 10q36 0 67.5 -8.5t55.5 -30.5t37.5 -60t13.5 -96q0 -54 -12.5 -90t-31 -62.5t-40.5 -47t-40.5 -43.5t-31 -52.5t-12.5 -74.5h-61q0 51 12.5 86t31 61
t40.5 47.5t40.5 45.5t31 55t12.5 77q0 39 -8.5 65t-23 42t-34 22.5t-41.5 6.5q-49 0 -80 -31.5t-31 -105.5zM126 33q0 17 11.5 29t28.5 12t29 -12t12 -29t-12 -28.5t-29 -11.5t-28.5 11.5t-11.5 28.5z" />
    <glyph glyph-name="questiondown" unicode="&#xbf;" horiz-adv-x="389" 
d="M306 184q0 10 -2 20.5t-4 18.5q-3 10 -5 18h54q3 -9 7 -20q2 -10 4.5 -23.5t2.5 -30.5q0 -48 -13.5 -81.5t-36 -54.5t-52 -31t-60.5 -10q-36 0 -67.5 8.5t-55.5 30.5t-37.5 60t-13.5 96q0 54 12.5 90t31 62.5t40.5 47t40.5 43.5t31 52.5t12.5 74.5h61q0 -51 -12.5 -86
t-31 -61t-40.5 -47.5t-40.5 -45.5t-31 -55t-12.5 -77q0 -39 8.5 -65t23 -42t34 -22.5t41.5 -6.5q49 0 80 31.5t31 105.5zM262 657q0 -17 -11.5 -29t-28.5 -12t-29 12t-12 29t12 28.5t29 11.5t28.5 -11.5t11.5 -28.5z" />
    <glyph glyph-name="three" unicode="3" horiz-adv-x="410" 
d="M95 185q0 -74 31 -105.5t80 -31.5q22 0 41.5 7.5t34 24.5t23 44t8.5 67q-1 84 -37.5 120.5t-97.5 38.5l-38 42l167 241h-263v58h332v-58l-159 -227q72 -12 114.5 -66t42.5 -150q0 -58 -14 -96t-37.5 -61t-55 -32.5t-67.5 -9.5q-32 0 -61 10t-51.5 31t-36 54.5t-13.5 81.5
q0 17 2 30.5t5 23.5q3 11 7 20h54q-3 -8 -6 -18q-5 -18 -5 -39z" />
    <glyph glyph-name="four" unicode="4" horiz-adv-x="392" 
d="M299 689v-522h62v-56h-62v-111h-61v111h-214v56l105 527l58 -5l-106 -522h157v522h61z" />
    <glyph glyph-name="five" unicode="5" horiz-adv-x="429" 
d="M99 187q0 -74 31 -105.5t80 -31.5q24 0 45.5 8t37.5 26t25 47.5t9 71.5q-1 95 -32 137t-83 42q-45 0 -68.5 -11t-34.5 -19h-51v341h322v-58h-261v-216q11 7 33 15t57 8q80 0 129.5 -60.5t49.5 -179.5q0 -61 -14.5 -101t-39.5 -64t-58.5 -34t-71.5 -10q-32 0 -61 10
t-51.5 31t-36 54.5t-13.5 81.5q0 17 2 30.5t5 23.5q3 11 7 20h54q-3 -8 -6 -18q-5 -18 -5 -39z" />
    <glyph glyph-name="seven" unicode="7" horiz-adv-x="372" 
d="M337 434v-57h-69l-107 -377h-61l106 377h-76v57h92l58 204h-260v55h322v-55l-58 -204h53z" />
    <glyph glyph-name="six" unicode="6" horiz-adv-x="402" 
d="M314 220q0 63 -24 94.5t-63 31.5q-33 0 -57 -12t-39 -31t-22.5 -41.5t-7.5 -43.5q0 -48 9 -80.5t23.5 -52t33.5 -27.5t40 -8q22 0 41.5 8t34 27.5t23 52t8.5 82.5zM330 636q-42 0 -79 -22t-67 -62t-51 -96t-29 -124q18 32 48.5 53t74.5 21q66 0 107 -45.5t41 -140.5
q0 -67 -13.5 -111t-36.5 -69.5t-53.5 -36t-64.5 -10.5t-64.5 11.5t-53.5 41t-36.5 79t-13.5 125.5q0 98 23 178.5t61.5 138.5t89 89.5t104.5 31.5q9 0 17 -2q4 -1 5 -1v-50h-1q-1 0 -3 0.5t-5 0.5z" />
    <glyph glyph-name="nine" unicode="9" horiz-adv-x="402" 
d="M85 -7q-13 0 -17 1t-5 2v50q0 -1 1 -1h8q42 0 79 22t67 61.5t50.5 95.5t28.5 124q-18 -31 -48 -52t-74 -21q-66 0 -107 45.5t-41 140.5q0 67 13.5 111t36.5 69.5t53.5 36t64.5 10.5t64.5 -11.5t53.5 -41t36.5 -79t13.5 -125.5q0 -98 -23 -178.5t-61.5 -138.5t-89 -89.5
t-104.5 -31.5zM88 461q0 -63 24 -94.5t63 -31.5q33 0 57 12t39 31t22.5 41.5t7.5 43.5q0 48 -9 80t-24 51.5t-34 28t-39 8.5q-22 0 -41.5 -8t-34 -27.5t-23 -52.5t-8.5 -82z" />
    <glyph glyph-name="eight" unicode="8" horiz-adv-x="412" 
d="M359 546q0 -36 -7.5 -62.5t-21 -45.5t-31.5 -31.5t-38 -19.5q24 -10 45 -24.5t37.5 -38.5t26 -59.5t9.5 -86.5q0 -89 -46.5 -137t-126.5 -48t-126.5 47.5t-46.5 137.5q0 51 9.5 86.5t26 59.5t37.5 38.5t45 24.5q-20 7 -38 19.5t-31.5 31.5t-21 45.5t-7.5 62.5
q0 33 12.5 59.5t33.5 45t49 28.5t58 10t58 -10t49 -28.5t33.5 -45t12.5 -59.5zM94 196q0 -69 27.5 -107.5t84.5 -38.5t84.5 38.5t27.5 107.5q0 41 -10 68.5t-25.5 46t-35.5 29.5t-41 19q-21 -8 -41.5 -19t-36 -29.5t-25 -46.5t-9.5 -68zM114 527q0 -27 7.5 -46.5t20 -32
t29 -20.5t35.5 -13q18 5 35 13t29.5 20.5t20 31.5t7.5 46q0 48 -23.5 76.5t-68.5 28.5q-92 0 -92 -104z" />
    <glyph glyph-name="exclam" unicode="!" horiz-adv-x="168" 
d="M122 749l-14 -615h-49l-14 615h77zM44 33q0 17 11.5 29t28.5 12t29 -12t12 -29t-12 -28.5t-29 -11.5t-28.5 11.5t-11.5 28.5z" />
    <glyph glyph-name="exclamdown" unicode="&#xa1;" horiz-adv-x="140" 
d="M45 -59l14 615h49l14 -615h-77zM44 657q0 17 11.5 28.5t28.5 11.5t29 -11.5t12 -28.5t-12 -29t-29 -12t-28.5 12t-11.5 29z" />
    <glyph glyph-name="quotedbl" unicode="&#x22;" horiz-adv-x="244" 
d="M102 689v-115h-50v115h50zM192 689v-115h-50v115h50z" />
    <glyph glyph-name="numbersign" unicode="#" horiz-adv-x="621" 
d="M525 689l-50 -195h101v-57h-116l-48 -191h164v-57h-179l-48 -189h-60l48 189h-125l-48 -189l-60 1l48 188h-94v57h108l49 191h-157v57h172l50 195h60l-50 -195h125l50 195h60zM227 246h125l48 191h-125z" />
    <glyph glyph-name="slash" unicode="/" horiz-adv-x="399" 
d="M382 689l-306 -689l-62 1l306 688h62z" />
    <glyph glyph-name="backslash" unicode="\" horiz-adv-x="399" 
d="M79 689l306 -688l-62 -1l-306 689h62z" />
    <glyph glyph-name="dollar" unicode="$" horiz-adv-x="391" 
d="M228 766v-78q56 -5 88 -37.5t32 -81.5q0 -42 -23.5 -71.5t-65.5 -29.5q-40 0 -64 23t-24 55q0 12 1 16t2 6h50q-1 -1 -1 -3v-6q0 -18 9.5 -27t22.5 -9q17 0 25 13.5t8 32.5q0 26 -21 44.5t-59 18.5q-42 0 -72 -20t-30 -65q0 -41 19 -69t47 -50.5t61.5 -43t61.5 -47.5
t47 -64.5t19 -92.5q0 -47 -11.5 -80.5t-31 -55.5t-45 -33.5t-54.5 -14.5v-75h-51v75q-66 7 -103 48t-37 104q0 42 23.5 71.5t65.5 29.5q40 0 64 -23t24 -55q0 -8 -2 -16q-1 -4 -1 -6h-50v3q0 2 0.5 3t0.5 3q0 18 -9.5 27t-22.5 9q-17 0 -25 -13.5t-8 -32.5q0 -42 28 -67.5
t77 -25.5q21 0 40.5 6.5t34.5 21t23.5 38.5t8.5 59q0 46 -19 77t-47 54.5t-61.5 44t-61.5 46t-47 59.5t-19 85q0 34 10.5 59.5t28.5 42.5t42 26.5t52 12.5v79h50z" />
    <glyph glyph-name="quotesingle" unicode="'" horiz-adv-x="154" 
d="M102 689v-115h-50v115h50z" />
    <glyph glyph-name="parenright" unicode=")" horiz-adv-x="309" 
d="M223 301q0 42 -9 79t-24 68.5t-34 58t-38 47.5q-46 50 -104 86l18 49q71 -39 126 -94q24 -24 46.5 -54t40 -66.5t28.5 -80t11 -93.5q0 -48 -11 -91t-29 -79.5t-40.5 -67.5t-46.5 -56q-56 -58 -127 -100l-24 43q60 40 108 94q20 23 39.5 50.5t35 60t25 69t9.5 77.5z" />
    <glyph glyph-name="parenleft" unicode="(" horiz-adv-x="309" 
d="M87 301q0 -41 9.5 -77.5t24.5 -69t34.5 -60t39.5 -50.5q48 -54 109 -94l-24 -43q-72 42 -127 100q-24 25 -47 56t-40.5 67.5t-28.5 79.5t-11 91q0 50 11 93.5t28.5 80t40 66.5t46.5 54q55 55 126 94l18 -49q-59 -36 -105 -86q-20 -21 -38.5 -47.5t-33 -58t-23.5 -68.5
t-9 -79z" />
    <glyph glyph-name="plus" unicode="+" horiz-adv-x="460" 
d="M415 303h-155v-165h-60v165h-155v60h155v165h60v-165h155v-60z" />
    <glyph glyph-name="asterisk" unicode="*" horiz-adv-x="366" 
d="M143 387l10 106l-87 -61l-36 62l97 44l-97 44l36 63l87 -62l-10 107h72l-10 -107l88 62l36 -63l-97 -44l97 -44l-36 -62l-88 62l10 -107h-72z" />
    <glyph glyph-name="period" unicode="." horiz-adv-x="158" 
d="M38 33q0 17 11.5 29t28.5 12t29 -12t12 -29t-12 -28.5t-29 -11.5t-28.5 11.5t-11.5 28.5z" />
    <glyph glyph-name="comma" unicode="," horiz-adv-x="158" 
d="M38 34q0 17 10.5 29t30.5 12q17 0 27.5 -12.5t10.5 -32.5q0 -14 -4 -31.5t-10.5 -34.5t-15.5 -32t-19 -24l-32 20q11 11 18 30t9 38q-25 8 -25 38z" />
    <glyph glyph-name="hyphen" horiz-adv-x="364" 
d="M327 323h-290v60h290v-60z" />
    <glyph glyph-name="equal" unicode="=" horiz-adv-x="477" 
d="M426 275h-373v60h373v-60zM426 438h-373v60h373v-60z" />
    <glyph glyph-name="colon" unicode=":" horiz-adv-x="186" 
d="M53 33q0 17 11.5 29t28.5 12t29 -12t12 -29t-12 -28.5t-29 -11.5t-28.5 11.5t-11.5 28.5zM52 470q0 17 11.5 29t28.5 12t29 -12t12 -29t-12 -28.5t-29 -11.5t-28.5 11.5t-11.5 28.5z" />
    <glyph glyph-name="semicolon" unicode=";" horiz-adv-x="187" 
d="M53 470q0 17 11.5 29t28.5 12t29 -12t12 -29t-12 -28.5t-29 -11.5t-28.5 11.5t-11.5 28.5zM55 34q0 17 10.5 29t30.5 12q15 0 26.5 -12t11.5 -29v-4q0 -14 -4 -31.5t-10.5 -34.5t-15.5 -32t-19 -24l-32 20q11 11 18 30t9 38q-25 8 -25 38z" />
    <glyph glyph-name="less" unicode="&#x3c;" horiz-adv-x="419" 
d="M343 104l-316 217v26l316 217l26 -53l-254 -177l254 -177z" />
    <glyph glyph-name="greater" unicode="&#x3e;" horiz-adv-x="419" 
d="M50 156l253 177l-253 177l26 53l316 -217v-26l-316 -217z" />
    <glyph glyph-name="percent" unicode="%" horiz-adv-x="542" 
d="M28 511q0 58 7.5 93t20.5 54t30 24.5t36 5.5t36 -5.5t30 -24.5t20.5 -54t7.5 -93q0 -63 -7.5 -100.5t-20.5 -57.5t-30 -26t-36 -6t-36 6t-30 26t-20.5 57.5t-7.5 100.5zM320 188q0 58 7.5 93t20.5 54t30 24.5t36 5.5t36 -5.5t30 -24.5t20.5 -54t7.5 -93
q0 -63 -7.5 -100.5t-20.5 -57.5t-30 -26t-36 -6t-36 6t-30 26t-20.5 57.5t-7.5 100.5zM453 690l-306 -689l-62 1l306 688h62zM78 511q0 -46 3.5 -73.5t9.5 -42.5t14 -19.5t17 -4.5t17 4.5t14 19.5t9.5 42.5t3.5 73.5q0 42 -3.5 67t-9.5 38.5t-14 17.5t-17 4t-17 -4
t-14 -17.5t-9.5 -38.5t-3.5 -67zM371 188q0 -46 3.5 -73.5t9.5 -42.5t14 -19.5t17 -4.5t17 4.5t14 19.5t9.5 42.5t3.5 73.5q0 42 -3.5 67t-9.5 38.5t-14 17.5t-17 4t-17 -4t-14 -17.5t-9.5 -38.5t-3.5 -67z" />
    <glyph glyph-name="ampersand" unicode="&#x26;" horiz-adv-x="598" 
d="M471 54q27 0 38 17t11 36q0 2 -0.5 3t-0.5 3v3h50q0 -1 1 -5q2 -8 2 -17q0 -44 -25 -72t-76 -28q-35 0 -71 19.5t-71 54.5q-20 -33 -53.5 -53t-86.5 -20q-35 0 -64.5 12t-51 35t-33.5 55.5t-11 74.5q1 46 10 80.5t23 60.5t31.5 45t36.5 35q-17 47 -26 90.5t-9 81.5
q0 55 25 89.5t87 34.5q21 0 39 -9.5t31 -25.5t20 -36t7 -42q0 -40 -9 -69.5t-23.5 -52.5t-33.5 -41.5t-39 -35.5q20 -51 47.5 -99.5t57.5 -90.5q2 19 3 37.5t1 37.5q0 101 32 155.5t110 56.5q25 0 47 -8.5t38.5 -24.5t25.5 -38t9 -49q0 -54 -21.5 -80t-61.5 -26
q-38 0 -56.5 24t-18.5 62q0 13 1 17t2 5h50q-1 -1 -1 -3v-6q0 -7 0.5 -14.5t2.5 -13.5t7 -10t13 -4q23 0 23 49q0 26 -15.5 43t-43.5 17q-50 0 -66.5 -39.5t-16.5 -114.5q0 -34 -3 -68t-12 -66q31 -33 61.5 -52.5t56.5 -19.5zM189 52q37 0 59.5 17.5t36.5 46.5
q-38 47 -72 103t-60 116q-27 -28 -45.5 -65.5t-18.5 -97.5q0 -57 29 -88.5t71 -31.5zM155 565q0 -29 6.5 -62t17.5 -69q27 25 46 57t19 85q0 22 -11.5 39t-32.5 17q-24 0 -34.5 -18.5t-10.5 -48.5z" />
    <glyph glyph-name="at" unicode="@" horiz-adv-x="539" 
d="M173 485q0 35 21.5 57t59.5 22q30 0 48.5 -8t29 -25.5t14 -46t3.5 -69.5v-233q0 -26 12 -36.5t28 -10.5q13 0 23.5 9.5t17.5 35t11 70.5t4 115q0 75 -7.5 126t-26 82.5t-51 45t-82.5 13.5q-56 0 -90.5 -17t-54 -59.5t-26.5 -113.5t-7 -179q0 -102 19.5 -159t47.5 -84
t58.5 -32.5t52.5 -5.5q46 0 76 13t47 30q20 18 31 43l18 -38q-12 -30 -35 -54q-20 -20 -53 -37t-84 -17q-19 0 -44 2t-51.5 12.5t-52 31.5t-45.5 58.5t-32.5 95.5t-12.5 141q0 118 9.5 200t36 133t72.5 73.5t120 22.5q68 0 112 -17.5t69.5 -56t35.5 -101t10 -152.5
q0 -85 -8 -139.5t-22.5 -85.5t-36 -43t-48.5 -12q-29 0 -50.5 11.5t-32.5 38.5q-7 -17 -20.5 -33.5t-37.5 -16.5q-30 0 -53 29t-23 83q0 33 10.5 58t28 43.5t40 30.5t47.5 17v69q0 56 -8 77.5t-37 21.5q-20 0 -30.5 -8t-10.5 -21h-40zM259 135q11 0 18.5 6t12 14t6.5 15
t3 10v115q-31 -10 -53.5 -34.5t-22.5 -63.5q0 -30 10.5 -46t25.5 -16z" />
    <glyph glyph-name="ordfeminine" unicode="&#xaa;" horiz-adv-x="253" 
d="M102 645q-23 0 -23 -27v-5h-38q-1 2 -1 4v8q0 26 14.5 46.5t49.5 20.5q25 0 40 -7t23 -22t11 -39.5t3 -58.5v-137q0 -17 7 -27t24 -10q5 0 7 1q1 0 2 1v-37q-1 -2 -5 -3q-3 -1 -7.5 -1.5t-12.5 -0.5q-17 0 -30.5 6t-22.5 20q-5 -11 -13.5 -19t-22.5 -8q-26 0 -44.5 21.5
t-18.5 60.5q0 45 26.5 71t61.5 36v26q0 46 -4.5 63t-25.5 17zM115 395q10 0 14 13q2 5 3 13v75q-17 -8 -27.5 -23.5t-10.5 -40.5q0 -37 21 -37z" />
    <glyph glyph-name="bracketleft" unicode="[" horiz-adv-x="220" 
d="M56 -96v785h136v-55h-75v-674h75v-56h-136z" />
    <glyph glyph-name="bracketright" unicode="]" horiz-adv-x="220" 
d="M28 -96v56h75v674h-75v55h136v-785h-136z" />
    <glyph glyph-name="circumflex" unicode="&#x2c6;" horiz-adv-x="245" 
d="M42 753l-44 37l108 132h37l108 -132l-44 -37l-83 111z" />
    <glyph glyph-name="caron" unicode="&#x2c7;" horiz-adv-x="237" 
d="M204 941l44 -37l-108 -132h-37l-108 132l44 37l82 -111z" />
    <glyph glyph-name="breve" unicode="&#x2d8;" horiz-adv-x="161" 
d="M161 841q0 -46 -24 -71t-56 -25t-56.5 25t-24.5 71h47q0 -24 10.5 -35t22.5 -11q14 0 24 11t10 35h47z" />
    <glyph glyph-name="dotaccent" unicode="&#x2d9;" horiz-adv-x="157" 
d="M6 788q0 32 21 52t50 20q30 0 51 -20t21 -52t-21 -51.5t-51 -19.5q-29 0 -50 20t-21 51z" />
    <glyph glyph-name="ring" unicode="&#x2da;" horiz-adv-x="113" 
d="M-8 811q0 30 18 47.5t48 17.5t47.5 -17.5t17.5 -47.5t-17 -48t-48 -18q-30 0 -48 18t-18 48zM32 811q0 -26 26 -26q25 0 25 26q0 25 -25 25q-26 0 -26 -25z" />
    <glyph glyph-name="ogonek" unicode="&#x2db;" horiz-adv-x="204" 
d="M154 -6q-17 -6 -30 -17q-11 -9 -20 -22.5t-9 -31.5q0 -11 3.5 -20.5t13 -16t26.5 -10.5t43 -4v-47q-71 0 -103.5 28.5t-32.5 69.5q0 33 15 53.5t34 31.5q21 13 49 19z" />
    <glyph glyph-name="hungarumlaut" unicode="&#x2dd;" horiz-adv-x="216" 
d="M130 902l44 -37l-108 -132l-37 33zM250 902l44 -37l-108 -132l-37 33z" />
    <glyph glyph-name="asciicircum" unicode="^" horiz-adv-x="348" 
d="M313 435l-51 -31l-89 152l-89 -152l-51 31l140 243z" />
    <glyph glyph-name="cedilla" unicode="&#xb8;" horiz-adv-x="140" 
d="M13 -1h43v-48q40 -9 61.5 -33t21.5 -53q0 -36 -32.5 -63.5t-103.5 -27.5v47q26 0 43 4t26.5 10t13 13.5t3.5 15.5q0 19 -18 31.5t-58 12.5v91z" />
    <glyph glyph-name="dieresis" unicode="&#xa8;" horiz-adv-x="264" 
d="M17 793q0 17 11.5 29t28.5 12t29 -12t12 -29t-12 -28.5t-29 -11.5t-28.5 11.5t-11.5 28.5zM167 793q0 17 11.5 29t28.5 12t29 -12t12 -29t-12 -28.5t-29 -11.5t-28.5 11.5t-11.5 28.5z" />
    <glyph glyph-name="Acircumflex" unicode="&#xc2;" 
d="M190 510l118 -510h-60l-40 177h-93l-39 -177h-61l116 510h59zM128 236h66l-33 147zM79 542l-44 37l108 132h37l108 -132l-44 -37l-83 111z" />
    <glyph glyph-name="Adieresis" unicode="&#xc4;" 
d="M197 599l135 -599h-61l-49 217h-102l-44 -217h-61l123 599h59zM132 276h77l-40 177zM55 672q0 17 11.5 29t28.5 12t29 -12t12 -29t-12 -28.5t-29 -11.5t-28.5 11.5t-11.5 28.5zM205 672q0 17 11.5 29t28.5 12t29 -12t12 -29t-12 -28.5t-29 -11.5t-28.5 11.5t-11.5 28.5z
" />
    <glyph glyph-name="Aring" unicode="&#xc5;" 
d="M190 510l118 -510h-60l-40 177h-93l-39 -177h-61l116 510h59zM128 236h66l-33 147zM96 623q0 30 18 47.5t48 17.5t47.5 -17.5t17.5 -47.5t-17 -48t-48 -18q-30 0 -48 18t-18 48zM136 623q0 -26 26 -26q25 0 25 26q0 25 -25 25q-26 0 -26 -25z" />
    <glyph glyph-name="Ccedilla" unicode="&#xc7;" horiz-adv-x="360" 
d="M182 -5q-31 3 -58 16.5t-46.5 43t-30.5 77.5t-11 119v185q0 80 14 129.5t37.5 77t55 37t66.5 9.5q60 0 95 -33t35 -87q0 -42 -23.5 -71.5t-65.5 -29.5q-40 0 -64 23t-24 55q0 12 1 16t2 6h50q-1 -1 -1 -3v-6q0 -18 9.5 -27t22.5 -9q17 0 25 13.5t8 32.5q0 26 -18.5 42.5
t-51.5 16.5q-23 0 -43.5 -7t-35.5 -28t-24 -58.5t-9 -98.5v-185q0 -60 8.5 -98t22.5 -59.5t33.5 -30t42.5 -8.5q36 0 50 20.5t14 52.5q0 2 -0.5 4t-0.5 4v4h57q1 -2 2 -6q2 -8 2 -18q0 -20 -5.5 -40t-18 -36.5t-32 -28.5t-47.5 -15v-45q40 -9 61.5 -33t21.5 -53
q0 -36 -32.5 -63.5t-103.5 -27.5v47q26 0 43 4t26.5 10t13 13.5t3.5 15.5q0 19 -18 31.5t-58 12.5v87z" />
    <glyph glyph-name="Ecircumflex" unicode="&#xca;" horiz-adv-x="356" 
d="M94 387q0 -23 9 -39.5t21.5 -27t27 -16t25.5 -5.5h51v-58h-54q-11 0 -24.5 -6.5t-26 -19.5t-21 -32.5t-8.5 -45.5q0 -42 22 -62t60 -20q31 0 45.5 14.5t14.5 38.5q0 2 -0.5 4t-0.5 4v4h57q1 -2 2 -6q2 -8 2 -18q0 -19 -6.5 -37.5t-21 -32.5t-37 -23t-55.5 -9
q-30 0 -56.5 7.5t-45.5 24t-30 44t-11 67.5q0 33 8 56t20 38t27 24t29 15q-12 7 -26.5 16.5t-27.5 23.5t-21.5 33t-8.5 43q0 36 11.5 60.5t31 39.5t45.5 21.5t55 6.5q56 0 88 -29.5t32 -74.5q0 -38 -20.5 -62.5t-58.5 -24.5q-35 0 -56.5 20t-21.5 48q0 13 1 17t2 5h50
q-1 0 -1 -1v-8q0 -26 22 -26q23 0 23 32q0 19 -15.5 33t-44.5 14q-37 0 -59.5 -17t-22.5 -53zM93 542l-44 37l108 132h37l108 -132l-44 -37l-83 111z" />
    <glyph glyph-name="Edieresis" unicode="&#xcb;" horiz-adv-x="356" 
d="M94 167q0 -62 27.5 -87t74.5 -25q37 0 54 20t17 53q0 2 -0.5 4t-0.5 4v4h56q1 -2 2 -6q1 -3 2 -7.5t1 -10.5q0 -23 -7 -45t-23 -39t-40.5 -27.5t-60.5 -10.5q-35 0 -64.5 8.5t-51.5 29t-34.5 53.5t-12.5 82q0 36 8 61t20.5 43t27.5 29.5t29 19.5q-12 7 -26 18.5t-26 27.5
t-19.5 36.5t-7.5 46.5q0 44 13 74.5t35 49t52 26.5t63 8q65 0 102 -33t37 -87q0 -42 -23 -71.5t-66 -29.5q-40 0 -63.5 23t-23.5 55q0 12 1 16q0 4 1 6h50q-1 0 -1 -1v-8q0 -18 9.5 -27t23.5 -9q17 0 24.5 13.5t7.5 32.5q0 26 -21 44.5t-58 18.5q-46 0 -74 -24t-28 -76
q0 -25 11 -44t26.5 -31.5t33.5 -19t32 -6.5h70v-58h-79q-13 0 -30 -8t-32.5 -23.5t-26.5 -39t-11 -53.5zM87 672q0 17 11.5 29t28.5 12t29 -12t12 -29t-12 -28.5t-29 -11.5t-28.5 11.5t-11.5 28.5zM237 672q0 17 11.5 29t28.5 12t29 -12t12 -29t-12 -28.5t-29 -11.5
t-28.5 11.5t-11.5 28.5z" />
    <glyph glyph-name="Icircumflex" unicode="&#xce;" horiz-adv-x="155" 
d="M106 511v-511h-61v511h61zM-5 540l-44 37l108 132h37l108 -132l-44 -37l-83 111z" />
    <glyph glyph-name="Idieresis" unicode="&#xcf;" horiz-adv-x="158" 
d="M109 597v-597h-61v597h61zM-37 675q0 17 11.5 29t28.5 12t29 -12t12 -29t-12 -28.5t-29 -11.5t-28.5 11.5t-11.5 28.5zM113 675q0 17 11.5 29t28.5 12t29 -12t12 -29t-12 -28.5t-29 -11.5t-28.5 11.5t-11.5 28.5z" />
    <glyph glyph-name="Ocircumflex" unicode="&#xd4;" horiz-adv-x="408" 
d="M36 317q0 60 11.5 98t30.5 60.5t44 31t52 8.5q28 0 54 -8.5t45.5 -31t31.5 -60.5t12 -98v-125q0 -58 -12 -96t-31.5 -60.5t-45.5 -31.5t-54 -9q-27 0 -52 9t-44 31.5t-30.5 60.5t-11.5 96v125zM256 317q0 42 -6.5 68.5t-18 41.5t-26.5 21t-31 6q-15 0 -29 -6t-24.5 -21.5
t-17 -42t-6.5 -67.5v-125q0 -39 6.5 -65.5t17 -42t24.5 -22t29 -6.5q16 0 31 6.5t26.5 22t18 42t6.5 65.5v125zM94 542l-44 37l108 132h37l108 -132l-44 -37l-83 111z" />
    <glyph glyph-name="Odieresis" unicode="&#xd6;" horiz-adv-x="408" 
d="M36 373q0 72 13 117t34.5 69.5t50 33t60.5 8.5q31 0 60 -8.5t50.5 -33t34.5 -69.5t13 -117v-147q0 -72 -13 -117.5t-34.5 -71t-50.5 -34.5t-60 -9q-32 0 -60.5 9t-50 34.5t-34.5 71t-13 117.5v147zM291 373q0 53 -7.5 86t-21 51.5t-31 25t-37.5 6.5t-37.5 -6.5t-31 -25
t-21 -51.5t-7.5 -86v-147q0 -54 7.5 -87.5t21 -52.5t31 -26t37.5 -7t37.5 7t31 26t21 52.5t7.5 87.5v147zM81 671q0 17 11.5 29t28.5 12t29 -12t12 -29t-12 -28.5t-29 -11.5t-28.5 11.5t-11.5 28.5zM231 671q0 17 11.5 29t28.5 12t29 -12t12 -29t-12 -28.5t-29 -11.5
t-28.5 11.5t-11.5 28.5z" />
    <glyph glyph-name="Oslash" unicode="&#xd8;" horiz-adv-x="419" 
d="M398 689l-43 -97q11 -28 16.5 -66.5t5.5 -89.5v-185q0 -80 -13.5 -130t-36.5 -78.5t-53.5 -38.5t-64.5 -10q-29 0 -56 7t-49 27l-12 -28l-62 1l37 83q-13 29 -19.5 69.5t-6.5 97.5v185q0 80 13.5 129.5t36.5 77t53.5 37t64.5 9.5q31 0 59 -8t51 -31l17 39h62zM209 628
q-22 0 -41.5 -7t-34 -28t-23 -58.5t-8.5 -98.5v-185q0 -23 1 -42t3 -36l184 412q-15 26 -36 34.5t-45 8.5zM316 436q0 35 -3 62l-181 -407q15 -23 34.5 -31.5t42.5 -8.5q22 0 41.5 8.5t34 30.5t23 61t8.5 100v185z" />
    <glyph glyph-name="Ucircumflex" unicode="&#xdb;" horiz-adv-x="422" 
d="M336 511v-330q0 -55 -11.5 -91t-31 -57.5t-46 -30t-56.5 -8.5t-56.5 8.5t-46 30t-31 57.5t-11.5 91v330h61v-330q0 -42 6.5 -67t18 -38t27 -17t32.5 -4t32.5 3.5t27 16.5t18 38t6.5 68v330h61zM103 541l-44 37l108 132h37l108 -132l-44 -37l-83 111z" />
    <glyph glyph-name="Udieresis" unicode="&#xdc;" horiz-adv-x="422" 
d="M376 596v-345q0 -80 -13 -130t-35.5 -78.5t-52.5 -38.5t-64 -10t-64 10t-52.5 38.5t-35.5 78.5t-13 130v345h61v-345q0 -61 8 -99.5t22.5 -60t33.5 -29t40 -7.5t40 7.5t33.5 29t22.5 60t8 99.5v345h61zM97 673q0 17 11.5 29t28.5 12t29 -12t12 -29t-12 -28.5t-29 -11.5
t-28.5 11.5t-11.5 28.5zM247 673q0 17 11.5 29t28.5 12t29 -12t12 -29t-12 -28.5t-29 -11.5t-28.5 11.5t-11.5 28.5z" />
    <glyph glyph-name="acircumflex" unicode="&#xe2;" horiz-adv-x="353" 
d="M149 454q-35 0 -49 -13.5t-14 -42.5v-6q0 -2 1 -3h-50q-1 1 -2 5t-1 17q0 39 29.5 68.5t85.5 29.5q45 0 72.5 -12t43 -38t21 -67.5t5.5 -101.5v-180q0 -29 14.5 -46.5t48.5 -17.5q9 0 12 1t4 2v-47q-4 -2 -9 -4t-13 -3t-22 -1q-32 0 -54 13.5t-33 44.5q-14 -23 -37 -41
t-58 -18q-23 0 -44 8t-37 24t-25.5 40t-9.5 55q0 41 17.5 73t46.5 54.5t65 36t74 18.5q0 40 -3.5 69t-12.5 47.5t-25 27t-41 8.5zM156 53q23 0 38 12t23 26q10 17 14 38v113q-27 -4 -53 -14t-46 -25t-32 -36t-12 -47q0 -33 19.5 -50t48.5 -17zM83 542l-44 37l108 132h37
l108 -132l-44 -37l-83 111z" />
    <glyph glyph-name="adieresis" unicode="&#xe4;" horiz-adv-x="353" 
d="M149 546q-35 0 -49 -13.5t-14 -42.5v-6q0 -2 1 -3h-50q-1 1 -2 5t-1 17q0 39 29.5 68.5t85.5 29.5q45 0 72.5 -12t43 -38t21 -67.5t5.5 -101.5v-272q0 -29 14.5 -46.5t48.5 -17.5q9 0 12 1t4 2v-47q-4 -2 -9 -4t-13 -3t-22 -1q-32 0 -54 13.5t-33 44.5q-14 -23 -37 -41
t-58 -18q-23 0 -44 10t-37 29.5t-25.5 49t-9.5 68.5q0 51 17.5 89.5t46.5 66.5t65 44t74 22v10q0 44 -3 75t-12 51t-25 29t-42 9zM156 53q22 0 36.5 10.5t22.5 24t11.5 25.5t4.5 16v182q-27 -5 -53 -17.5t-46 -33t-32 -48t-12 -62.5q0 -49 19.5 -73t48.5 -24zM28 671
q0 17 11.5 29t28.5 12t29 -12t12 -29t-12 -28.5t-29 -11.5t-28.5 11.5t-11.5 28.5zM178 671q0 17 11.5 29t28.5 12t29 -12t12 -29t-12 -28.5t-29 -11.5t-28.5 11.5t-11.5 28.5z" />
    <glyph glyph-name="aring" unicode="&#xe5;" horiz-adv-x="357" 
d="M150 454q-35 0 -49 -13.5t-14 -42.5v-6q0 -2 1 -3h-50q-1 1 -2 5t-1 17q0 39 29.5 68.5t85.5 29.5q45 0 72.5 -12t43 -38t21 -67.5t5.5 -101.5v-180q0 -29 14.5 -46.5t48.5 -17.5q9 0 12 1t4 2v-47q-4 -2 -9 -4t-13 -3t-22 -1q-32 0 -54 13.5t-33 44.5q-14 -23 -37 -41
t-58 -18q-23 0 -44 8t-37 24t-25.5 40t-9.5 55q0 41 17.5 73t46.5 54.5t65 36t74 18.5q0 40 -3.5 69t-12.5 47.5t-25 27t-41 8.5zM157 53q23 0 38 12t23 26q10 17 14 38v113q-27 -4 -53 -14t-46 -25t-32 -36t-12 -47q0 -33 19.5 -50t48.5 -17zM82 626q0 30 18 47.5t48 17.5
t47.5 -17.5t17.5 -47.5t-17 -48t-48 -18q-30 0 -48 18t-18 48zM122 626q0 -26 26 -26q25 0 25 26q0 25 -25 25q-26 0 -26 -25z" />
    <glyph glyph-name="ccedilla" unicode="&#xe7;" horiz-adv-x="373" 
d="M209 55q38 0 59 18.5t21 44.5q0 19 -8 32.5t-25 13.5q-13 0 -22.5 -9t-9.5 -27v-6q0 -2 1 -3h-50q-1 2 -2 6t-1 16q0 32 24 55t64 23q42 0 65.5 -29.5t23.5 -71.5q0 -51 -33.5 -83.5t-92.5 -35.5v-46q40 -9 61.5 -33t21.5 -53q0 -36 -32.5 -63.5t-103.5 -27.5v47
q26 0 43 4t26.5 10t13 13.5t3.5 15.5q0 19 -18 31.5t-58 12.5v90q-30 3 -56.5 15.5t-46 41t-30.5 75.5t-11 119v185q0 80 14 129.5t37.5 77t55 37t66.5 9.5q65 0 102.5 -33t37.5 -87q0 -42 -23.5 -71.5t-65.5 -29.5q-40 0 -64 23t-24 55q0 12 1 16t2 6h50q-1 -1 -1 -3v-6
q0 -18 9.5 -27t22.5 -9q17 0 25 13.5t8 32.5q0 26 -21 44.5t-59 18.5q-23 0 -43.5 -7.5t-36 -29t-24.5 -60t-9 -99.5v-185q0 -61 9 -99.5t24.5 -60t36 -29t43.5 -7.5z" />
    <glyph glyph-name="ecircumflex" unicode="&#xea;" horiz-adv-x="343" 
d="M98 197q0 -45 6 -73t16.5 -44.5t25 -22.5t30.5 -6q36 0 50 20.5t14 52.5q0 2 -0.5 4t-0.5 4v4h57q1 -2 2 -6q2 -8 2 -18q0 -22 -7 -44t-22 -39t-39 -28t-58 -11q-28 0 -53 9t-43.5 32.5t-29 63.5t-10.5 102v109q0 65 10.5 105t28.5 61.5t41 29t48 7.5q42 0 68.5 -18.5
t41 -51.5t20 -80t5.5 -104v-26h-203v-32zM98 285h143q-1 37 -4.5 67.5t-12 52t-22.5 33t-36 11.5q-14 0 -26 -5t-21.5 -20.5t-15 -43.5t-5.5 -74v-21zM87 541l-44 37l108 132h37l108 -132l-44 -37l-83 111z" />
    <glyph glyph-name="edieresis" unicode="&#xeb;" horiz-adv-x="343" 
d="M98 221q0 -51 7 -83t19 -50.5t28 -25.5t34 -7q36 0 50 20.5t14 52.5q0 2 -0.5 4t-0.5 4v4h57q1 -2 2 -6q2 -8 2 -18q0 -22 -7 -44t-22 -39t-39 -28t-58 -11q-30 0 -57 10t-46.5 35.5t-31 69.5t-11.5 112v155q0 70 11.5 114t30.5 68.5t44 33t52 8.5q42 0 68.5 -20t41 -56
t20 -87t5.5 -112v-26h-213v-78zM98 355h153q-1 42 -4.5 76t-11.5 58t-22.5 37.5t-36.5 13.5q-15 0 -29.5 -6t-25 -23.5t-17 -50t-6.5 -84.5v-21zM39 672q0 17 11.5 29t28.5 12t29 -12t12 -29t-12 -28.5t-29 -11.5t-28.5 11.5t-11.5 28.5zM189 672q0 17 11.5 29t28.5 12
t29 -12t12 -29t-12 -28.5t-29 -11.5t-28.5 11.5t-11.5 28.5z" />
    <glyph glyph-name="ocircumflex" unicode="&#xf4;" horiz-adv-x="443" 
d="M375 355q0 17 -7.5 29.5t-20.5 12.5q-2 0 -3 -0.5t-3 -0.5h-3v50q2 0 6 1q8 2 16 2q28 0 48 -26t20 -64q0 -49 -27.5 -82t-77.5 -45v-36q0 -61 -12 -100.5t-31.5 -62t-45.5 -31.5t-54 -9t-54 9t-45.5 32t-31 62t-11.5 100v110q0 61 12 100.5t31.5 62t45.5 31.5t54 9
t53.5 -9t45 -32t31.5 -62t12 -100v-15q24 9 38 25.5t14 38.5zM98 196q0 -44 7 -71.5t18 -43.5t26 -22t32 -6q16 0 31 6.5t26 22.5t18 43.5t7 70.5v29q-51 1 -95 20.5t-70 67.5v-117zM263 306q0 43 -7 71.5t-18 45.5t-26.5 23.5t-31.5 6.5q-18 0 -34.5 -8t-27.5 -28
q3 -38 16 -64t33 -42t44.5 -23t51.5 -8v26zM98 541l-44 37l108 132h37l108 -132l-44 -37l-83 111z" />
    <glyph glyph-name="odieresis" unicode="&#xf6;" horiz-adv-x="443" 
d="M393 417q0 17 -7.5 29.5t-20.5 12.5q-2 0 -3 -0.5t-3 -0.5h-3v50q2 0 6 1q8 2 16 2q28 0 48 -26t20 -64q0 -48 -29.5 -79t-83.5 -41v-75q0 -74 -12 -119.5t-32.5 -71t-47.5 -34t-56 -8.5t-56 9t-47 34.5t-32 70.5t-12 119v133q0 75 12 122t32.5 72.5t47.5 34.5t56 9
t55.5 -9t47 -35t32.5 -72.5t12 -121.5v-1q27 7 43.5 22.5t16.5 36.5zM98 226q0 -55 7 -89t19 -52.5t28 -25t34 -6.5q17 0 33 6.5t28 25t19 52.5t7 89v71q-28 1 -54.5 9t-49 24.5t-40 41.5t-27.5 61q-2 -16 -3 -34t-1 -40v-133zM273 359q0 57 -7 92.5t-19 55.5t-28 27t-34 7
q-29 0 -49 -19q2 -45 14 -76.5t31 -51.5t42.5 -30t49.5 -12v7zM75 673q0 17 11.5 29t28.5 12t29 -12t12 -29t-12 -28.5t-29 -11.5t-28.5 11.5t-11.5 28.5zM225 673q0 17 11.5 29t28.5 12t29 -12t12 -29t-12 -28.5t-29 -11.5t-28.5 11.5t-11.5 28.5z" />
    <glyph glyph-name="oslash" unicode="&#xf8;" horiz-adv-x="386" 
d="M385 689l-55 -124q6 -26 9.5 -57.5t3.5 -71.5v-190q0 -80 -12.5 -129.5t-33.5 -77t-49 -37t-58 -9.5q-28 1 -53 8.5t-45 28.5l-13 -30h-10l-62 1l46 104q-8 27 -11.5 61.5t-3.5 79.5v190q0 80 12.5 129.5t33.5 77t49 37t58 9.5q29 0 55.5 -9t47.5 -34l19 43h72zM190 629
q-19 0 -35.5 -7.5t-29 -28.5t-20 -58.5t-7.5 -98.5v-190v-20.5t1 -18.5l164 370q-13 31 -32 41.5t-41 10.5zM283 436v23l-162 -364q13 -25 31.5 -33.5t38.5 -8.5q18 0 35 7.5t29.5 28.5t20 58.5t7.5 98.5v190z" />
    <glyph glyph-name="ucircumflex" unicode="&#xfb;" horiz-adv-x="377" 
d="M248 0v46q-19 -18 -48 -35t-64 -17q-32 0 -49.5 15.5t-26 39t-10.5 51.5t-2 54v357h60v-356v-35t4 -32.5t14 -24t29 -9.5q25 0 50 13t43 27v417h60v-511h-60zM98 541l-44 37l108 132h37l108 -132l-44 -37l-83 111z" />
    <glyph glyph-name="udieresis" unicode="&#xfc;" horiz-adv-x="374" 
d="M266 0v48q-20 -18 -51.5 -36t-70.5 -18q-35 0 -54.5 15.5t-29.5 39t-12 51.5t-2 54v436h60v-435v-35t5 -32.5t17 -24t35 -9.5q29 0 56 14t47 28v494h60v-590h-60zM73 671q0 17 11.5 29t28.5 12t29 -12t12 -29t-12 -28.5t-29 -11.5t-28.5 11.5t-11.5 28.5zM223 671
q0 17 11.5 29t28.5 12t29 -12t12 -29t-12 -28.5t-29 -11.5t-28.5 11.5t-11.5 28.5z" />
    <glyph glyph-name="ydieresis" unicode="&#xff;" horiz-adv-x="354" 
d="M159 -6q-56 0 -87.5 31.5t-31.5 89.5q0 37 21.5 66t66.5 29q37 0 58 -23t21 -55q0 -6 -0.5 -10t-1.5 -7q-1 -4 -1 -5h-51v1q0 1 0.5 2.5t0.5 5.5q0 36 -26 36q-17 0 -22.5 -12.5t-5.5 -27.5q0 -31 15.5 -47.5t43.5 -16.5q16 0 30.5 5t25 20t16.5 41.5t6 69.5v126
q-20 -17 -50 -32t-66 -15q-32 0 -49.5 13.5t-26.5 34t-11 45t-2 47.5v190h60v-189v-28t4.5 -26t14 -19.5t29.5 -7.5q26 0 51.5 11.5t45.5 24.5v235h60v-410q0 -61 -11.5 -99t-30.5 -59t-44 -28t-52 -7zM52 672q0 17 11.5 29t28.5 12t29 -12t12 -29t-12 -28.5t-29 -11.5
t-28.5 11.5t-11.5 28.5zM203 672q0 17 11 29t28 12q18 0 29.5 -12t11.5 -29t-11.5 -28.5t-29.5 -11.5q-17 0 -28 11.5t-11 28.5z" />
    <glyph glyph-name="Scaron" unicode="&#x160;" horiz-adv-x="339" 
d="M83 120q0 -29 22.5 -47t62.5 -18q35 0 61 18.5t26 66.5q0 27 -16 46t-40 35t-51.5 31t-51.5 33.5t-40 43t-16 59.5q0 34 10.5 57.5t29 38t42.5 21t51 6.5q60 0 95 -31t35 -83q0 -35 -20.5 -61t-58.5 -26q-35 0 -56.5 19.5t-21.5 48.5q0 13 1 17t2 5h50q-1 0 -1 -1v-8
q0 -26 22 -26q12 0 17.5 10t5.5 21q0 26 -18.5 42t-51.5 16q-30 0 -51 -15t-21 -50q0 -28 16 -46.5t40 -34t51.5 -30t51.5 -33.5t40 -44.5t16 -62.5q0 -41 -12 -68.5t-32.5 -44t-47.5 -24t-56 -7.5q-67 0 -106 35t-39 91q0 42 23.5 71.5t65.5 29.5q40 0 64 -23t24 -55
q0 -8 -2 -16q-1 -4 -1 -6h-50v1q0 1 0.5 2.5t0.5 5.5q0 18 -9.5 27t-22.5 9q-17 0 -25 -13.5t-8 -32.5zM248 731l44 -37l-108 -132h-37l-108 132l44 37l82 -111z" />
    <glyph glyph-name="scaron" unicode="&#x161;" horiz-adv-x="339" 
d="M83 122q0 -29 22.5 -46t62.5 -17q18 0 33.5 4t27.5 13.5t19 25.5t7 40q0 27 -16 46t-40 35t-51.5 31t-51.5 33.5t-40 43t-16 59.5q0 34 10.5 57.5t29 38t42.5 21t51 6.5q60 0 95 -31t35 -83q0 -35 -20.5 -61t-58.5 -26q-35 0 -56.5 19.5t-21.5 48.5q0 13 1 17t2 5h50
q-1 0 -1 -1v-8q0 -26 22 -26q12 0 17.5 10t5.5 21q0 26 -18.5 42t-51.5 16q-30 0 -51 -15t-21 -50q0 -28 16 -46.5t40 -34t51.5 -30t51.5 -33.5t40 -44.5t16 -62.5q0 -41 -12 -68t-32.5 -43.5t-47.5 -23.5t-56 -7q-67 0 -106 34t-39 90q0 42 23.5 71.5t65.5 29.5
q40 0 64 -23t24 -55q0 -8 -2 -16q-1 -4 -1 -6h-50v1q0 1 0.5 2.5t0.5 5.5q0 18 -9.5 27t-22.5 9q-17 0 -25 -13.5t-8 -32.5zM253 729l44 -37l-108 -132h-37l-108 132l44 37l82 -111z" />
    <glyph glyph-name="Ydieresis" unicode="&#x178;" horiz-adv-x="343" 
d="M78 589l93 -242l102 242h62l-134 -322v-267h-61v267l-123 322h61zM39 672q0 17 11.5 29t28.5 12t29 -12t12 -29t-12 -28.5t-29 -11.5t-28.5 11.5t-11.5 28.5zM189 672q0 17 11.5 29t28.5 12t29 -12t12 -29t-12 -28.5t-29 -11.5t-28.5 11.5t-11.5 28.5z" />
    <glyph glyph-name="Zcaron" unicode="&#x17d;" horiz-adv-x="334" 
d="M20 0v59l229 393h-228v59h293v-59l-227 -393h227v-59h-294zM268 731l44 -37l-108 -132h-37l-108 132l44 37l82 -111z" />
    <glyph glyph-name="zcaron" unicode="&#x17e;" horiz-adv-x="363" 
d="M317 453l-90 -154q5 -1 15 -1q13 0 20 2t12 5q4 4 7 8l20 -42q-4 -9 -11 -15q-7 -5 -18 -9.5t-30 -4.5q-12 0 -22.5 2t-21.5 4l-95 -164q4 0 7 0.5t7 0.5q24 0 42 -5t33.5 -10.5t30.5 -10.5t33 -5q13 0 24.5 9t11.5 32q0 3 -0.5 5t-0.5 3v1h50q0 -2 1 -6q2 -8 2 -16
q0 -35 -24 -61.5t-64 -26.5q-19 0 -34 5t-30.5 10.5t-33 10.5t-41.5 5q-14 0 -31 -4.5t-31 -9.5q-17 -6 -33 -14v60l120 208q-5 1 -9 1.5t-8 0.5q-13 0 -22 -3t-16 -7q-8 -4 -14 -9l-14 50q8 7 18 12q8 5 20 9t28 4q10 0 22.5 -2.5t23.5 -6.5l80 139h-228v58h294v-58z
M267 730l44 -37l-108 -132h-37l-108 132l44 37l82 -111z" />
    <glyph glyph-name="quoteleft" unicode="&#x2018;" horiz-adv-x="168" 
d="M122 570q0 -17 -10.5 -29t-30.5 -12q-15 0 -26.5 12t-11.5 29q0 14 3.5 32t10 35.5t15.5 33.5t20 25l32 -20q-11 -11 -18 -30t-10 -38q12 -4 19 -14t7 -24z" />
    <glyph glyph-name="quoteright" unicode="&#x2019;" horiz-adv-x="167" 
d="M49 648q0 17 10.5 29t30.5 12q15 0 26.5 -12.5t11.5 -32.5q0 -14 -4 -31.5t-10.5 -34.5t-15.5 -32t-19 -24l-32 20q11 11 18 29.5t9 38.5q-25 8 -25 38z" />
    <glyph glyph-name="quotedblright" unicode="&#x201d;" horiz-adv-x="258" 
d="M50 649q0 17 10.5 29t30.5 12q15 0 26.5 -12.5t11.5 -32.5q0 -14 -4 -31.5t-10.5 -34.5t-15.5 -32t-19 -24l-32 20q11 11 18 29.5t9 38.5q-25 8 -25 38zM140 649q0 17 10.5 29t30.5 12q15 0 26.5 -12t11.5 -29q0 -14 -3.5 -32t-10 -35.5t-15.5 -33.5t-20 -25l-32 20
q11 11 18 29.5t9 38.5q-25 8 -25 38z" />
    <glyph glyph-name="quotedblleft" unicode="&#x201c;" horiz-adv-x="257" 
d="M212 590q0 -17 -10.5 -29t-30.5 -12q-15 0 -26.5 12t-11.5 29q0 14 3.5 32t10 35.5t15.5 33.5t20 25l32 -20q-11 -11 -18 -30t-10 -38q12 -4 19 -14t7 -24zM122 590q0 -17 -10.5 -29t-30.5 -12q-15 0 -26.5 12t-11.5 29q0 14 3.5 32t10 35.5t15.5 33.5t20 25l32 -20
q-11 -11 -18 -30t-10 -38q12 -4 19 -14t7 -24z" />
    <glyph glyph-name="quotedblbase" unicode="&#x201e;" horiz-adv-x="248" 
d="M38 34q0 17 10.5 29t30.5 12q15 0 26.5 -12.5t11.5 -32.5q0 -14 -4 -31.5t-10.5 -34.5t-15.5 -32t-19 -24l-32 20q11 11 18 30t9 38q-25 8 -25 38zM128 34q0 17 10.5 29t30.5 12q15 0 26.5 -12t11.5 -29q0 -14 -3.5 -32t-10 -35.5t-15.5 -33.5t-20 -25l-32 20
q11 11 18 30t9 38q-25 8 -25 38z" />
    <glyph glyph-name="quotesinglbase" unicode="&#x201a;" horiz-adv-x="158" 
d="M38 34q0 17 10.5 29t30.5 12q15 0 26.5 -12.5t11.5 -32.5q0 -14 -4 -31.5t-10.5 -34.5t-15.5 -32t-19 -24l-32 20q11 11 18 30t9 38q-25 8 -25 38z" />
    <glyph glyph-name="Abreve" unicode="&#x102;" 
d="M190 546l118 -546h-60l-37 177h-99l-36 -177h-61l116 546h59zM124 236h75l-38 182zM241 708q0 -46 -24 -71t-56 -25t-56.5 25t-24.5 71h47q0 -24 10.5 -35t22.5 -11q14 0 24 11t10 35h47z" />
    <glyph glyph-name="abreve" unicode="&#x103;" horiz-adv-x="353" 
d="M149 499q-35 0 -49 -13.5t-14 -42.5v-6q0 -2 1 -3h-50q-1 1 -2 5t-1 17q0 39 29.5 68.5t85.5 29.5q45 0 72.5 -12t43 -38t21 -67.5t5.5 -101.5v-225q0 -29 14.5 -46.5t48.5 -17.5q9 0 12 1t4 2v-47q-4 -2 -9 -4t-13 -3t-22 -1q-32 0 -54 13.5t-33 44.5q-14 -23 -37 -41
t-58 -18q-23 0 -44 8.5t-37 26t-25.5 43t-9.5 59.5q0 43 17.5 76.5t46.5 57.5t65 38.5t74 19.5v13q0 44 -3 75t-12 51t-25 29t-42 9zM156 53q23 0 38 12t23 26q10 17 14 38v133q-27 -5 -53 -15.5t-46 -27t-32 -39t-12 -50.5q0 -38 19.5 -57.5t48.5 -19.5zM259 710
q0 -46 -24 -71t-56 -25t-56.5 25t-24.5 71h47q0 -24 10.5 -35t22.5 -11q14 0 24 11t10 35h47z" />
    <glyph glyph-name="Aogonek" unicode="&#x104;" 
d="M201 689l131 -689q-17 -6 -30 -17q-11 -9 -20 -22.5t-9 -31.5q0 -11 3.5 -20.5t13 -16t26.5 -10.5t43 -4v-47q-71 0 -103.5 28.5t-32.5 69.5q0 32 14 52t31 31l-44 235h-106l-42 -247h-61l127 689h59zM128 306h85l-40 233z" />
    <glyph glyph-name="aogonek" unicode="&#x105;" horiz-adv-x="353" 
d="M149 634q-34 0 -48.5 -14t-14.5 -42v-6q0 -2 1 -3h-50q-1 1 -2 5t-1 17q0 39 29.5 68.5t85.5 29.5q45 0 72.5 -12t43 -38t21 -67.5t5.5 -101.5v-360q0 -29 14.5 -46.5t48.5 -17.5q9 0 12 1t4 2v-47q-1 0 -3 -1t-8 -3q-5 -2 -14 -7.5t-18 -14t-15.5 -20.5t-6.5 -28
q0 -11 3.5 -20.5t13 -16t26.5 -10.5t43 -4v-47q-71 0 -103.5 28.5t-32.5 69.5q0 26 9 43.5t23 28.5q-35 12 -48 52q-14 -23 -37 -41t-58 -18q-23 0 -44 11t-37 32t-25.5 52t-9.5 72q0 51 17.5 89.5t46.5 66.5t65 44t74 22v88q0 44 -3 75t-12 51t-25 29t-42 9zM156 53
q23 0 38 12t23 26q10 17 14 38v192q-27 -5 -53 -17.5t-46 -33t-32 -48t-12 -62.5q0 -53 19.5 -80t48.5 -27z" />
    <glyph glyph-name="Cacute" unicode="&#x106;" horiz-adv-x="350" 
d="M94 211q0 -48 7.5 -78t20.5 -47.5t31 -24t38 -6.5q36 0 50 20.5t14 52.5q0 2 -0.5 4t-0.5 4v4h57q1 -2 2 -6q2 -8 2 -18q0 -22 -7 -44t-22 -39t-39 -28t-58 -11q-33 0 -61.5 9.5t-49.5 34t-33 66.5t-12 107v77q0 71 13 114.5t35.5 67.5t52 32.5t62.5 8.5q60 0 95 -33
t35 -87q0 -42 -23.5 -71.5t-65.5 -29.5q-40 0 -64 23t-24 55q0 12 1 16t2 6h50q-1 0 -1 -1v-8q0 -18 9.5 -27t22.5 -9q17 0 25 13.5t8 32.5q0 26 -18.5 42.5t-51.5 16.5q-21 0 -39.5 -6t-32.5 -23.5t-22 -49t-8 -83.5v-77zM270 711l44 -37l-108 -132l-37 33z" />
    <glyph glyph-name="cacute" unicode="&#x107;" horiz-adv-x="352" 
d="M195 51q33 0 51.5 15.5t18.5 44.5q0 10 -5.5 19.5t-17.5 9.5q-9 0 -15.5 -6.5t-6.5 -19.5v-8q0 -1 1 -1h-50q-1 2 -2 6t-1 16q0 28 21.5 48t56.5 20q37 0 58 -26t21 -58q0 -54 -35 -85.5t-95 -31.5q-33 0 -62.5 9t-52 33.5t-35.5 69t-13 115.5v64q0 71 13 115t35.5 68.5
t52 33t62.5 8.5q63 0 96.5 -31t33.5 -85q0 -33 -20.5 -59t-58.5 -26q-35 0 -56.5 20t-21.5 48q0 13 1 17t2 5h50q-1 0 -1 -1v-8q0 -13 6.5 -19.5t15.5 -6.5q23 0 23 30q0 26 -18.5 42.5t-51.5 16.5q-21 0 -40 -6.5t-33 -25t-22 -51.5t-8 -85v-64q0 -52 8 -85t22 -52t33 -26
t40 -7zM255 712l44 -37l-108 -132l-37 33z" />
    <glyph glyph-name="Ccircumflex" unicode="&#x108;" horiz-adv-x="351" 
d="M94 211q0 -48 7.5 -78t20.5 -47.5t31 -24t38 -6.5q36 0 50 20.5t14 52.5q0 2 -0.5 4t-0.5 4v4h57q1 -2 2 -6q2 -8 2 -18q0 -22 -7 -44t-22 -39t-39 -28t-58 -11q-33 0 -61.5 9.5t-49.5 34t-33 66.5t-12 107v77q0 71 13 114.5t35.5 67.5t52 32.5t62.5 8.5q60 0 95 -33
t35 -87q0 -42 -23.5 -71.5t-65.5 -29.5q-40 0 -64 23t-24 55q0 12 1 16t2 6h50q-1 0 -1 -1v-8q0 -18 9.5 -27t22.5 -9q17 0 25 13.5t8 32.5q0 26 -18.5 42.5t-51.5 16.5q-21 0 -39.5 -6t-32.5 -23.5t-22 -49t-8 -83.5v-77zM117 542l-44 37l108 132h37l108 -132l-44 -37
l-83 111z" />
    <glyph glyph-name="ccircumflex" unicode="&#x109;" horiz-adv-x="352" 
d="M195 51q33 0 51.5 15.5t18.5 44.5q0 10 -5.5 19.5t-17.5 9.5q-9 0 -15.5 -6.5t-6.5 -19.5v-8q0 -1 1 -1h-50q-1 2 -2 6t-1 16q0 28 21.5 48t56.5 20q37 0 58 -26t21 -58q0 -54 -35 -85.5t-95 -31.5q-33 0 -62.5 9t-52 33.5t-35.5 69t-13 115.5v64q0 71 13 115t35.5 68.5
t52 33t62.5 8.5q63 0 96.5 -31t33.5 -85q0 -33 -20.5 -59t-58.5 -26q-35 0 -56.5 20t-21.5 48q0 13 1 17t2 5h50q-1 0 -1 -1v-8q0 -13 6.5 -19.5t15.5 -6.5q23 0 23 30q0 26 -18.5 42.5t-51.5 16.5q-21 0 -40 -6.5t-33 -25t-22 -51.5t-8 -85v-64q0 -52 8 -85t22 -52t33 -26
t40 -7zM96 543l-44 37l108 132h37l108 -132l-44 -37l-83 111z" />
    <glyph glyph-name="Cdotaccent" unicode="&#x10a;" horiz-adv-x="350" 
d="M95 211q0 -48 7.5 -78t20.5 -47.5t31 -24t38 -6.5q36 0 50 20.5t14 52.5q0 2 -0.5 4t-0.5 4v4h57q1 -2 2 -6q2 -8 2 -18q0 -22 -7 -44t-22 -39t-39 -28t-58 -11q-33 0 -61.5 9.5t-49.5 34t-33 66.5t-12 107v77q0 71 13 114.5t35.5 67.5t52 32.5t62.5 8.5q60 0 95 -33
t35 -87q0 -42 -23.5 -71.5t-65.5 -29.5q-40 0 -64 23t-24 55q0 12 1 16t2 6h50q-1 0 -1 -1v-8q0 -18 9.5 -27t22.5 -9q17 0 25 13.5t8 32.5q0 26 -18.5 42.5t-51.5 16.5q-21 0 -39.5 -6t-32.5 -23.5t-22 -49t-8 -83.5v-77zM125 618q0 32 21 52t50 20q30 0 51 -20t21 -52
t-21 -51.5t-51 -19.5q-29 0 -50 20t-21 51z" />
    <glyph glyph-name="cdotaccent" unicode="&#x10b;" horiz-adv-x="350" 
d="M193 55q33 0 51.5 15.5t18.5 44.5q0 10 -5.5 19.5t-17.5 9.5q-9 0 -15.5 -6.5t-6.5 -19.5v-8q0 -1 1 -1h-50q-1 2 -2 6t-1 16q0 28 21.5 48t56.5 20q37 0 58 -26t21 -58q0 -54 -35 -85.5t-95 -31.5q-33 0 -62.5 8.5t-52 34t-35.5 71t-13 119.5v84q0 74 13 120t35.5 71.5
t52 34.5t62.5 9q63 0 96.5 -31t33.5 -85q0 -33 -20.5 -59t-58.5 -26q-35 0 -56.5 19.5t-21.5 48.5q0 13 1 17t2 5h50q-1 0 -1 -1v-8q0 -13 6.5 -19.5t15.5 -6.5q23 0 23 30q0 26 -18.5 42.5t-51.5 16.5q-21 0 -40 -7t-33 -26.5t-22 -54.5t-8 -90v-84q0 -55 8 -89.5t22 -53.5
t33 -26t40 -7zM119 652q0 32 21 52t50 20q30 0 51 -20t21 -52t-21 -51.5t-51 -19.5q-29 0 -50 20t-21 51z" />
    <glyph glyph-name="Ccaron" unicode="&#x10c;" horiz-adv-x="350" 
d="M94 211q0 -48 7.5 -78t20.5 -47.5t31 -24t38 -6.5q36 0 50 20.5t14 52.5q0 2 -0.5 4t-0.5 4v4h57q1 -2 2 -6q2 -8 2 -18q0 -22 -7 -44t-22 -39t-39 -28t-58 -11q-33 0 -61.5 9.5t-49.5 34t-33 66.5t-12 107v77q0 71 13 114.5t35.5 67.5t52 32.5t62.5 8.5q60 0 95 -33
t35 -87q0 -42 -23.5 -71.5t-65.5 -29.5q-40 0 -64 23t-24 55q0 12 1 16t2 6h50q-1 0 -1 -1v-8q0 -18 9.5 -27t22.5 -9q17 0 25 13.5t8 32.5q0 26 -18.5 42.5t-51.5 16.5q-21 0 -39.5 -6t-32.5 -23.5t-22 -49t-8 -83.5v-77zM280 730l44 -37l-108 -132h-37l-108 132l44 37
l82 -111z" />
    <glyph glyph-name="ccaron" unicode="&#x10d;" horiz-adv-x="352" 
d="M195 51q33 0 51.5 15.5t18.5 44.5q0 10 -5.5 19.5t-17.5 9.5q-9 0 -15.5 -6.5t-6.5 -19.5v-8q0 -1 1 -1h-50q-1 2 -2 6t-1 16q0 28 21.5 48t56.5 20q37 0 58 -26t21 -58q0 -54 -35 -85.5t-95 -31.5q-33 0 -62.5 9t-52 33.5t-35.5 69t-13 115.5v64q0 71 13 115t35.5 68.5
t52 33t62.5 8.5q63 0 96.5 -31t33.5 -85q0 -33 -20.5 -59t-58.5 -26q-35 0 -56.5 20t-21.5 48q0 13 1 17t2 5h50q-1 0 -1 -1v-8q0 -13 6.5 -19.5t15.5 -6.5q23 0 23 30q0 26 -18.5 42.5t-51.5 16.5q-21 0 -40 -6.5t-33 -25t-22 -51.5t-8 -85v-64q0 -52 8 -85t22 -52t33 -26
t40 -7zM277 730l44 -37l-108 -132h-37l-108 132l44 37l82 -111z" />
    <glyph glyph-name="Dcaron" unicode="&#x10e;" horiz-adv-x="352" 
d="M62 511q54 0 101 -7.5t82 -29.5t55 -62t20 -104v-115q0 -62 -20 -99.5t-55 -58.5t-82 -28t-101 -7h-17v511h17zM259 308q0 38 -11.5 64t-32 42t-48.5 24t-61 10v-386q33 2 61 9t48.5 22t32 39.5t11.5 60.5v115zM252 729l44 -37l-108 -132h-37l-108 132l44 37l82 -111z
" />
    <glyph glyph-name="dcaron" unicode="&#x10f;" horiz-adv-x="387" 
d="M21 185q0 58 17.5 103.5t46 78t64.5 52.5t74 27v244h60v-586q0 -29 14.5 -43.5t48.5 -14.5q9 0 12 1t4 2v-47q-4 -2 -9 -4t-13 -3t-22 -1q-31 0 -53 11t-33 40q-13 -21 -32.5 -36.5t-50.5 -15.5q-55 0 -91.5 49t-36.5 143zM149 53q23 0 37.5 10.5t22.5 24.5q10 16 14 36
v261q-27 -7 -53 -23.5t-45.5 -41.5t-31.5 -59t-12 -76q0 -64 19.5 -98t48.5 -34zM337 648q0 17 10.5 29t30.5 12q15 0 26.5 -12.5t11.5 -32.5q0 -14 -4 -31.5t-10.5 -34.5t-15.5 -32t-19 -24l-32 20q11 11 18 29.5t9 38.5q-25 8 -25 38z" />
    <glyph glyph-name="Ebreve" unicode="&#x114;" horiz-adv-x="328" 
d="M94 407q0 -25 10 -43.5t24.5 -30.5t30.5 -18t28 -6h61v-58h-64q-12 0 -27.5 -6.5t-29.5 -19.5t-23.5 -32.5t-9.5 -45.5q0 -48 25 -70t67 -22q31 0 45.5 17t14.5 46q0 2 -0.5 4t-0.5 4v4h57q1 -2 2 -6q2 -8 2 -18q0 -21 -6.5 -41t-21 -36t-37 -25.5t-55.5 -9.5t-61 8
t-48.5 26t-32 47t-11.5 72q0 33 9 56t22.5 38t30.5 24t32 15q-14 7 -30 18t-30.5 26t-24 35t-9.5 47q0 41 12 69.5t33 46t49 25t59 7.5q56 0 88 -32.5t32 -81.5q0 -38 -20.5 -62.5t-58.5 -24.5q-35 0 -56.5 19.5t-21.5 48.5q0 13 1 17t2 5h50q-1 0 -1 -1v-8q0 -26 22 -26
q23 0 23 32q0 23 -15.5 40t-44.5 17q-42 0 -67 -21.5t-25 -68.5zM254 710q0 -46 -24 -71t-56 -25t-56.5 25t-24.5 71h47q0 -24 10.5 -35t22.5 -11q14 0 24 11t10 35h47z" />
    <glyph glyph-name="ebreve" unicode="&#x115;" horiz-adv-x="339" 
d="M94 211q0 -48 7 -78t19 -47.5t28 -24t34 -6.5q36 0 50 20.5t14 52.5q0 2 -0.5 4t-0.5 4v4h57q1 -2 2 -6q2 -8 2 -18q0 -22 -7 -44t-22 -39t-39 -28t-58 -11q-30 0 -57 9.5t-46.5 34t-31 66.5t-11.5 107v135q0 70 11.5 113t30.5 66.5t44 31t52 7.5q42 0 68.5 -19t41 -54
t20 -85t5.5 -111v-26h-213v-58zM94 325h153q-1 41 -4.5 74t-11.5 56.5t-22.5 36t-36.5 12.5q-15 0 -29.5 -5t-25 -21.5t-17 -48t-6.5 -83.5v-21zM261 709q0 -46 -24 -71t-56 -25t-56.5 25t-24.5 71h47q0 -24 10.5 -35t22.5 -11q14 0 24 11t10 35h47z" />
    <glyph glyph-name="Edotaccent" unicode="&#x116;" horiz-adv-x="319" 
d="M94 387q0 -23 9 -39.5t21.5 -27t27 -16t25.5 -5.5h51v-58h-54q-11 0 -24.5 -6.5t-26 -19.5t-21 -32.5t-8.5 -45.5q0 -42 22 -62t60 -20q31 0 45.5 14.5t14.5 38.5q0 2 -0.5 4t-0.5 4v4h57q1 -2 2 -6q2 -8 2 -18q0 -19 -6.5 -37.5t-21 -32.5t-37 -23t-55.5 -9
q-30 0 -56.5 7.5t-45.5 24t-30 44t-11 67.5q0 33 8 56t20 38t27 24t29 15q-12 7 -26.5 16.5t-27.5 23.5t-21.5 33t-8.5 43q0 36 11.5 60.5t31 39.5t45.5 21.5t55 6.5q56 0 88 -29.5t32 -74.5q0 -38 -20.5 -62.5t-58.5 -24.5q-35 0 -56.5 20t-21.5 48q0 13 1 17t2 5h50
q-1 0 -1 -1v-8q0 -26 22 -26q23 0 23 32q0 19 -15.5 33t-44.5 14q-37 0 -59.5 -17t-22.5 -53zM104 618q0 32 21 52t50 20q30 0 51 -20t21 -52t-21 -51.5t-51 -19.5q-29 0 -50 20t-21 51z" />
    <glyph glyph-name="Gbreve" unicode="&#x11e;" horiz-adv-x="368" 
d="M280 217q0 30 -8.5 43t-25.5 13q-9 0 -15.5 -9t-6.5 -27v-6q0 -2 1 -3h-50q-1 2 -2 6t-1 16q0 32 21.5 55t56.5 23q42 0 65.5 -29t23.5 -82v-45q0 -49 -12 -83t-31 -55t-42 -30.5t-45 -9.5q-35 0 -66.5 8.5t-55 31t-37.5 61.5t-14 101v132q0 74 14 119.5t37.5 71t55 34
t66.5 8.5t60 -10.5t40.5 -27.5t22.5 -39t7 -45q0 -10 -2 -18q-1 -4 -2 -6h-57v4q0 2 0.5 4t0.5 4q0 33 -17 53t-53 20q-23 0 -43.5 -6.5t-35.5 -25t-24 -52t-9 -88.5v-132q0 -43 9 -70.5t24 -43t35.5 -21.5t43.5 -6q12 0 24.5 6.5t23 21t17 38t6.5 57.5v39zM283 710
q0 -46 -24 -71t-56 -25t-56.5 25t-24.5 71h47q0 -24 10.5 -35t22.5 -11q14 0 24 11t10 35h47z" />
    <glyph glyph-name="edotaccent" unicode="&#x117;" horiz-adv-x="340" 
d="M95 211q0 -48 7 -78t19 -47.5t28 -24t34 -6.5q36 0 50 20.5t14 52.5q0 2 -0.5 4t-0.5 4v4h57q1 -2 2 -6q2 -8 2 -18q0 -22 -7 -44t-22 -39t-39 -28t-58 -11q-30 0 -57 9.5t-46.5 34t-31 66.5t-11.5 107v135q0 67 11.5 108t30.5 63t44 29.5t52 7.5q42 0 68.5 -18.5t41 -52
t20 -81.5t5.5 -107v-26h-213v-58zM95 325h153q-1 39 -4.5 70.5t-12 53t-22.5 33.5t-36 12q-15 0 -29.5 -4.5t-25 -20t-17 -45t-6.5 -78.5v-21zM95 649q0 32 21 52t50 20q30 0 51 -20t21 -52t-21 -51.5t-51 -19.5q-29 0 -50 20t-21 51z" />
    <glyph glyph-name="Eogonek" unicode="&#x118;" horiz-adv-x="356" 
d="M33 187q0 46 8 78t20 53t27 33.5t29 20.5q-12 9 -26.5 22.5t-27.5 31.5t-21.5 41.5t-8.5 53.5q0 47 13 79t35.5 52t52 28.5t62.5 8.5q65 0 102.5 -33t37.5 -87q0 -42 -23.5 -71.5t-65.5 -29.5q-40 0 -64 23t-24 55q0 12 1 16t2 6h50q-1 -1 -1 -3v-6q0 -18 9.5 -27
t22.5 -9q17 0 25 13.5t8 32.5q0 26 -21 44.5t-59 18.5q-46 0 -74 -26.5t-28 -83.5q0 -30 11 -52.5t26.5 -38t33.5 -23t32 -7.5h71v-58h-74q-13 0 -30.5 -10t-33 -30t-26 -49t-10.5 -67q0 -73 27.5 -102.5t74.5 -29.5q36 0 53 20t17 53q0 2 -0.5 4t-0.5 4v4h57q1 -2 2 -6
q2 -8 2 -18q0 -21 -6 -41.5t-19.5 -37t-34.5 -28t-51 -14.5q-1 0 -10.5 -4.5t-20 -13.5t-19 -22t-8.5 -31q0 -11 3.5 -20.5t13 -16t26.5 -10.5t43 -4v-47q-71 0 -103.5 28.5t-32.5 69.5q0 28 11 46.5t25 29.5q-49 13 -79.5 56.5t-30.5 130.5z" />
    <glyph glyph-name="eogonek" unicode="&#x119;" horiz-adv-x="343" 
d="M320 112q0 -26 -7 -46t-19 -34.5t-27.5 -23.5t-31.5 -13q-17 -6 -30 -17q-11 -9 -20 -22.5t-9 -31.5q0 -11 3.5 -20.5t13 -16t26.5 -10.5t43 -4v-47q-71 0 -103.5 28.5t-32.5 69.5q0 24 9 41.5t21 28.5q-26 6 -47.5 21.5t-37 45.5t-24.5 75.5t-9 110.5v189
q0 80 11.5 129.5t30.5 77t44 37t52 9.5q42 0 68.5 -22t41 -62t20 -96t5.5 -124v-56h-213v-82q0 -60 7.5 -98t21 -59.5t31.5 -30t38 -8.5q36 0 50 20.5t14 52.5q0 2 -0.5 4t-0.5 4v4h57q1 -2 2 -6q2 -8 2 -18zM251 385q0 55 -2.5 100t-11 77t-23 49.5t-38.5 17.5
q-15 0 -29.5 -7t-25 -28t-17 -59t-6.5 -99v-51h153z" />
    <glyph glyph-name="Ecaron" unicode="&#x11a;" horiz-adv-x="320" 
d="M94 387q0 -23 9 -39.5t21.5 -27t27 -16t25.5 -5.5h51v-58h-54q-11 0 -24.5 -6.5t-26 -19.5t-21 -32.5t-8.5 -45.5q0 -42 22 -62t60 -20q31 0 45.5 14.5t14.5 38.5q0 2 -0.5 4t-0.5 4v4h57q1 -2 2 -6q2 -8 2 -18q0 -19 -6.5 -37.5t-21 -32.5t-37 -23t-55.5 -9
q-30 0 -56.5 7.5t-45.5 24t-30 44t-11 67.5q0 33 8 56t20 38t27 24t29 15q-12 7 -26.5 16.5t-27.5 23.5t-21.5 33t-8.5 43q0 36 11.5 60.5t31 39.5t45.5 21.5t55 6.5q56 0 88 -29.5t32 -74.5q0 -38 -20.5 -62.5t-58.5 -24.5q-35 0 -56.5 20t-21.5 48q0 13 1 17t2 5h50
q-1 0 -1 -1v-8q0 -26 22 -26q23 0 23 32q0 19 -15.5 33t-44.5 14q-37 0 -59.5 -17t-22.5 -53zM257 731l44 -37l-108 -132h-37l-108 132l44 37l82 -111z" />
    <glyph glyph-name="ecaron" unicode="&#x11b;" horiz-adv-x="327" 
d="M93 197q0 -45 6 -73t16.5 -44.5t25 -22.5t30.5 -6q36 0 50 20.5t14 52.5q0 2 -0.5 4t-0.5 4v4h57q1 -2 2 -6q2 -8 2 -18q0 -22 -7 -44t-22 -39t-39 -28t-58 -11q-28 0 -53 9t-43.5 32.5t-29 63.5t-10.5 102v109q0 65 10.5 105t28.5 61.5t41 29t48 7.5q42 0 68.5 -18.5
t41 -51.5t20 -80t5.5 -104v-26h-203v-32zM93 285h143q-1 37 -4.5 67.5t-12 52t-22.5 33t-36 11.5q-14 0 -26 -5t-21.5 -20.5t-15 -43.5t-5.5 -74v-21zM244 729l44 -37l-108 -132h-37l-108 132l44 37l82 -111z" />
    <glyph glyph-name="Gcircumflex" unicode="&#x11c;" horiz-adv-x="354" 
d="M267 207q0 30 -6.5 43t-23.5 13q-26 0 -26 -36v-8q0 -1 1 -1h-50q-1 2 -2 6t-1 16q0 32 21.5 55t56.5 23q42 0 65.5 -29t23.5 -82v-45q0 -47 -12 -79t-31 -51.5t-42 -28.5t-45 -9q-33 0 -62.5 8.5t-52 31t-35.5 61.5t-13 101v92q0 71 13 114.5t35.5 67.5t52 32.5
t62.5 8.5q35 0 60 -10.5t40.5 -27.5t22.5 -39t7 -45q0 -10 -2 -18q-1 -4 -2 -6h-57v4q0 2 0.5 4t0.5 4q0 33 -17 53t-53 20q-21 0 -39.5 -6t-32.5 -23.5t-22 -49t-8 -83.5v-92q0 -43 8 -70.5t22 -43t32.5 -21.5t39.5 -6q12 0 24.5 6t23 19.5t17 35t6.5 52.5v39zM117 539
l-44 37l108 132h37l108 -132l-44 -37l-83 111z" />
    <glyph glyph-name="gcircumflex" unicode="&#x11d;" horiz-adv-x="330" 
d="M81 542l-44 37l108 132h37l108 -132l-37 -31h18h16v-364q0 -61 -11.5 -99t-30.5 -59t-44 -28t-52 -7q-60 0 -95 36t-35 94q0 45 23.5 78t65.5 33q40 0 64 -26.5t24 -61.5q0 -8 -2 -16q-1 -4 -1 -6h-50v1q0 1 0.5 2.5t0.5 5.5q0 23 -9.5 34.5t-22.5 11.5q-17 0 -25 -16.5
t-8 -39.5q0 -31 18.5 -52t51.5 -21q16 0 30 5t24.5 20t17 41.5t6.5 69.5v78q-50 1 -88.5 7.5t-64 22t-38.5 42t-13 67.5q0 45 14.5 73.5t42.5 44.5t68.5 22t92.5 7l-78 105zM83 401q0 -45 32.5 -61t111.5 -18v165q-39 -1 -66.5 -5t-45 -14t-25 -26t-7.5 -41z" />
    <glyph glyph-name="gbreve" unicode="&#x11f;" horiz-adv-x="336" 
d="M290 588v-404q0 -61 -11.5 -99t-30.5 -59t-44 -28t-52 -7q-60 0 -95 36t-35 94q0 45 24 78t70 33q45 0 64 -26.5t19 -61.5q0 -8 -2 -16q-1 -4 -1 -6h-50v1q0 1 0.5 2.5t0.5 5.5q0 46 -30 46q-19 0 -27 -16.5t-8 -39.5q0 -31 18.5 -52t51.5 -21q16 0 30 5t24.5 20t17 41.5
t6.5 69.5v98q-50 1 -88.5 8t-64 23.5t-38.5 44.5t-13 73q0 52 16.5 83t48 47.5t78 21.5t105.5 5h16zM86 431q0 -51 32.5 -69t111.5 -20v185q-39 -1 -66.5 -5.5t-45 -15.5t-25 -29t-7.5 -46zM287 708q0 -46 -24 -71t-56 -25t-56.5 25t-24.5 71h47q0 -24 10.5 -35t22.5 -11
q14 0 24 11t10 35h47z" />
    <glyph glyph-name="Gdotaccent" unicode="&#x120;" horiz-adv-x="365" 
d="M269 207q0 30 -6.5 43t-23.5 13q-26 0 -26 -36v-8q0 -1 1 -1h-50q-1 2 -2 6t-1 16q0 32 21.5 55t56.5 23q42 0 65.5 -29t23.5 -82v-45q0 -47 -12 -79t-31 -51.5t-42 -28.5t-45 -9q-33 0 -62.5 8.5t-52 31t-35.5 61.5t-13 101v92q0 71 13 114.5t35.5 67.5t52 32.5
t62.5 8.5q35 0 60 -10.5t40.5 -27.5t22.5 -39t7 -45q0 -10 -2 -18q-1 -4 -2 -6h-57v4q0 2 0.5 4t0.5 4q0 33 -17 53t-53 20q-21 0 -39.5 -6t-32.5 -23.5t-22 -49t-8 -83.5v-92q0 -43 8 -70.5t22 -43t32.5 -21.5t39.5 -6q12 0 24.5 6t23 19.5t17 35t6.5 52.5v39zM127 618
q0 32 21 52t50 20q30 0 51 -20t21 -52t-21 -51.5t-51 -19.5q-29 0 -50 20t-21 51z" />
    <glyph glyph-name="gdotaccent" unicode="&#x121;" horiz-adv-x="338" 
d="M292 548v-364q0 -61 -11.5 -99t-30.5 -59t-44 -28t-52 -7q-60 0 -95 36t-35 94q0 45 23.5 78t65.5 33q40 0 64 -26.5t24 -61.5q0 -8 -2 -16q-1 -4 -1 -6h-50v1q0 1 0.5 2.5t0.5 5.5q0 23 -9.5 34.5t-22.5 11.5q-17 0 -25 -16.5t-8 -39.5q0 -31 18.5 -52t51.5 -21
q16 0 30 5t24.5 20t17 41.5t6.5 69.5v78q-50 1 -88.5 7.5t-64 22t-38.5 42t-13 67.5q0 49 16.5 78t48 44.5t78 20t105.5 4.5h16zM88 401q0 -45 32.5 -61t111.5 -18v165q-39 -1 -66.5 -5t-45 -14t-25 -26t-7.5 -41zM116 653q0 32 21 52t50 20q30 0 51 -20t21 -52t-21 -51.5
t-51 -19.5q-29 0 -50 20t-21 51z" />
    <glyph glyph-name="gcommaaccent" unicode="&#x123;" horiz-adv-x="334" 
d="M289 548v-364q0 -61 -11.5 -99t-30.5 -59t-44 -28t-52 -7q-60 0 -95 36t-35 94q0 45 23.5 78t65.5 33q40 0 64 -26.5t24 -61.5q0 -8 -2 -16q-1 -4 -1 -6h-50v1q0 1 0.5 2.5t0.5 5.5q0 23 -9.5 34.5t-22.5 11.5q-17 0 -25 -16.5t-8 -39.5q0 -31 18.5 -52t51.5 -21
q16 0 30 5t24.5 20t17 41.5t6.5 69.5v78q-50 1 -88.5 7.5t-64 22t-38.5 42t-13 67.5q0 49 16.5 78t48 44.5t78 20t105.5 4.5h16zM85 401q0 -45 32.5 -61t111.5 -18v165q-39 -1 -66.5 -5t-45 -14t-25 -26t-7.5 -41zM257 604q0 -17 -10.5 -29t-30.5 -12q-15 0 -26.5 12
t-11.5 29q0 14 3.5 32t10 35.5t15.5 33.5t20 25l32 -20q-11 -11 -18 -30t-10 -38q12 -4 19 -14t7 -24z" />
    <glyph glyph-name="Hcircumflex" unicode="&#x124;" horiz-adv-x="357" 
d="M308 511v-511h-61v237h-137v-237h-61v511h61v-215h137v215h61zM98 538l-44 37l108 132h37l108 -132l-44 -37l-83 111z" />
    <glyph glyph-name="hcircumflex" unicode="&#x125;" horiz-adv-x="356" 
d="M327 0h-60v219v35t-5 32.5t-17 24t-35 9.5q-29 0 -56 -14t-47 -28v-278h-60v560h60v-234q20 18 51 36t71 18q35 0 54.5 -15.5t29.5 -39t12 -52t2 -53.5v-220zM171 520l-44 37l108 132h37l108 -132l-44 -37l-83 111z" />
    <glyph glyph-name="Itilde" unicode="&#x128;" horiz-adv-x="157" 
d="M109 561v-561h-61v561h61zM-60 639q8 17 19 30q10 11 24 20.5t33 9.5t35 -5.5t29.5 -12t27 -12t28.5 -5.5q12 0 19.5 5t12.5 12q5 8 8 18l38 -11q-4 -21 -12 -37q-8 -14 -20.5 -25.5t-34.5 -11.5q-21 0 -38.5 5.5t-32 12t-28 12t-26.5 5.5q-11 0 -19.5 -5.5t-15.5 -12.5
q-8 -8 -14 -17z" />
    <glyph glyph-name="Ibreve" unicode="&#x12c;" horiz-adv-x="155" 
d="M106 511v-511h-61v511h61zM160 706q0 -46 -24 -71t-56 -25t-56.5 25t-24.5 71h47q0 -24 10.5 -35t22.5 -11q14 0 24 11t10 35h47z" />
    <glyph glyph-name="Iogonek" unicode="&#x12e;" horiz-adv-x="160" 
d="M111 689v-689q-17 -6 -30 -17q-11 -9 -20 -22.5t-9 -31.5q0 -11 3.5 -20.5t13 -16t26.5 -10.5t43 -4v-47q-71 0 -103.5 28.5t-32.5 69.5q0 33 15 53t33 31v676h61z" />
    <glyph glyph-name="Idotaccent" unicode="&#x130;" horiz-adv-x="156" 
d="M107 481v-481h-61v481h61zM5 617q0 32 21 52t50 20q30 0 51 -20t21 -52t-21 -51.5t-51 -19.5q-29 0 -50 20t-21 51z" />
    <glyph glyph-name="Jcircumflex" unicode="&#x134;" horiz-adv-x="362" 
d="M18 147q0 72 33 113.5t87 41.5q36 0 61 -20t25 -58q0 -36 -21.5 -59.5t-56.5 -23.5q-13 0 -17 1t-5 2v50q1 -1 3 -1h6q20 0 28 9t8 17q0 13 -8.5 18t-22.5 5q-25 0 -42 -23.5t-17 -65.5q0 -27 7.5 -45.5t18.5 -30.5t25 -17t28 -5q19 0 37 7.5t31 29t21 60t8 99.5v260h61
v-260q0 -80 -13 -130t-35 -78.5t-50.5 -38.5t-59.5 -10q-23 0 -48 8.5t-45.5 26.5t-33.5 47t-13 71zM204 541l-44 37l108 132h37l108 -132l-44 -37l-83 111z" />
    <glyph glyph-name="jcircumflex" unicode="&#x135;" horiz-adv-x="336" 
d="M148 -4q-60 0 -95 36t-35 94q0 45 23.5 78t65.5 33q40 0 64 -26.5t24 -61.5q0 -8 -2 -16q-1 -4 -1 -6h-50v1q0 1 0.5 2.5t0.5 5.5q0 23 -9.5 34.5t-22.5 11.5q-17 0 -25 -16.5t-8 -39.5q0 -31 18.5 -52t51.5 -21q16 0 30 5t24.5 20t17 41.5t6.5 69.5v322h60v-322
q0 -61 -11.5 -99t-30.5 -59t-44 -28t-52 -7zM176 540l-44 37l108 132h37l108 -132l-44 -37l-83 111z" />
    <glyph glyph-name="Lacute" unicode="&#x139;" horiz-adv-x="290" 
d="M106 511v-453h167v-58h-228v511h61zM153 711l44 -37l-108 -132l-37 33z" />
    <glyph glyph-name="lacute" unicode="&#x13a;" horiz-adv-x="185" 
d="M44 513h60v-409q0 -29 14.5 -43.5t48.5 -14.5q9 0 12 1t4 2v-47q-4 -2 -9 -4t-13 -3t-22 -1q-43 0 -69 23.5t-26 86.5v409zM157 710l44 -37l-108 -132l-37 33z" />
    <glyph glyph-name="Nacute" unicode="&#x143;" horiz-adv-x="359" 
d="M314 511v-511h-61l-147 342v-342h-61v511h61l147 -351v351h61zM262 711l44 -37l-108 -132l-37 33z" />
    <glyph glyph-name="nacute" unicode="&#x144;" horiz-adv-x="358" 
d="M315 0h-60v350q0 17 -0.5 35t-5 32.5t-15 24t-31.5 9.5q-26 0 -52.5 -14t-45.5 -28v-409h-60v504h60v-47q20 18 50 36t67 18q33 0 52 -15.5t28 -39t11 -52t2 -53.5v-351zM246 710l44 -37l-108 -132l-37 33z" />
    <glyph glyph-name="Ncaron" unicode="&#x147;" horiz-adv-x="359" 
d="M314 511v-511h-61l-147 342v-342h-61v511h61l147 -351v351h61zM276 730l44 -37l-108 -132h-37l-108 132l44 37l82 -111z" />
    <glyph glyph-name="ncaron" unicode="&#x148;" horiz-adv-x="358" 
d="M315 0h-60v350q0 17 -0.5 35t-5 32.5t-15 24t-31.5 9.5q-26 0 -52.5 -14t-45.5 -28v-409h-60v504h60v-47q20 18 50 36t67 18q33 0 52 -15.5t28 -39t11 -52t2 -53.5v-351zM268 728l44 -37l-108 -132h-37l-108 132l44 37l82 -111z" />
    <glyph glyph-name="Obreve" unicode="&#x14e;" horiz-adv-x="381" 
d="M35 353q0 69 13 112t34.5 66.5t50 31.5t60.5 8q30 0 58 -8t49 -31.5t33.5 -66.5t12.5 -112v-137q0 -69 -12.5 -112.5t-33.5 -68t-49 -33t-58 -8.5q-32 0 -60.5 8.5t-50 33t-34.5 68t-13 112.5v137zM285 353q0 50 -7.5 81t-20 48t-29 23t-35.5 6q-20 0 -37.5 -6t-31 -23
t-21 -48t-7.5 -81v-137q0 -51 7.5 -83t21 -50t31 -24.5t37.5 -6.5q19 0 35.5 6.5t29 24.5t20 50t7.5 83v137zM275 711q0 -46 -24 -71t-56 -25t-56.5 25t-24.5 71h47q0 -24 10.5 -35t22.5 -11q14 0 24 11t10 35h47z" />
    <glyph glyph-name="obreve" unicode="&#x14f;" horiz-adv-x="446" 
d="M390 387q0 17 -7.5 29.5t-20.5 12.5q-2 0 -3 -0.5t-3 -0.5h-3v50q2 0 6 1q8 2 16 2q28 0 48 -26t20 -64q0 -48 -29.5 -79t-83.5 -41v-50q0 -72 -12 -117t-32.5 -69.5t-47.5 -33t-56 -8.5t-56 9t-47 33.5t-32 69t-12 116.5v113q0 74 12 119.5t32.5 71t47.5 34t56 8.5
t55.5 -9t47 -34t32.5 -71t12 -119v-6q27 7 43.5 22.5t16.5 36.5zM95 221q0 -54 7 -87.5t19 -52t28 -25.5t34 -7q17 0 33 7t28 26t19 52.5t7 86.5v46q-28 1 -54.5 9.5t-49 25t-40 42t-27.5 61.5q-2 -15 -3 -33t-1 -38v-113zM270 334q0 55 -7 89.5t-19 54t-28 26.5t-34 7
q-14 0 -26 -4t-23 -15q2 -45 14 -76.5t30.5 -51.5t42.5 -30t50 -12v12zM266 709q0 -46 -24 -71t-56 -25t-56.5 25t-24.5 71h47q0 -24 10.5 -35t22.5 -11q14 0 24 11t10 35h47z" />
    <glyph glyph-name="Ohungarumlaut" unicode="&#x150;" horiz-adv-x="348" 
d="M34 317q0 60 11.5 98t30.5 60.5t44 31t52 8.5q28 0 54 -8.5t45.5 -31t31.5 -60.5t12 -98v-125q0 -58 -12 -96t-31.5 -60.5t-45.5 -31.5t-54 -9q-27 0 -52 9t-44 31.5t-30.5 60.5t-11.5 96v125zM254 317q0 42 -6.5 68.5t-18 41.5t-26.5 21t-31 6q-15 0 -29 -6t-24.5 -21.5
t-17 -42t-6.5 -67.5v-125q0 -39 6.5 -65.5t17 -42t24.5 -22t29 -6.5q16 0 31 6.5t26.5 22t18 42t6.5 65.5v125zM178 689l44 -37l-108 -132l-37 33zM298 689l44 -37l-108 -132l-37 33z" />
    <glyph glyph-name="ohungarumlaut" unicode="&#x151;" horiz-adv-x="426" 
d="M371 355q0 17 -7.5 29.5t-20.5 12.5q-2 0 -3 -0.5t-3 -0.5h-3v50q2 0 6 1q8 2 16 2q28 0 48 -26t20 -64q0 -49 -27.5 -82t-77.5 -45v-36q0 -61 -12 -100.5t-31.5 -62t-45.5 -31.5t-54 -9t-54 9t-45.5 32t-31 62t-11.5 100v110q0 61 12 100.5t31.5 62t45.5 31.5t54 9
t53.5 -9t45 -32t31.5 -62t12 -100v-15q24 9 38 25.5t14 38.5zM94 196q0 -44 7 -71.5t18 -43.5t26 -22t32 -6q16 0 31 6.5t26 22.5t18 43.5t7 70.5v29q-51 1 -95 20.5t-70 67.5v-117zM259 306q0 43 -7 71.5t-18 45.5t-26.5 23.5t-31.5 6.5q-18 0 -34.5 -8t-27.5 -28
q3 -38 16 -64t33 -42t44.5 -23t51.5 -8v26zM192 689l44 -37l-108 -132l-37 33zM312 689l44 -37l-108 -132l-37 33z" />
    <glyph glyph-name="Racute" unicode="&#x154;" horiz-adv-x="323" 
d="M62 509q52 0 93 -5t68.5 -20t42 -42t14.5 -72q0 -50 -20 -77.5t-59 -41.5l114 -251h-62l-109 239q-18 -3 -38 -3v-236h-61v509h17zM219 370q0 42 -29 58t-84 19v-149q56 3 84.5 18t28.5 54zM206 709l44 -37l-108 -132l-37 33z" />
    <glyph glyph-name="racute" unicode="&#x155;" horiz-adv-x="335" 
d="M254 131q0 -14 1.5 -29t7 -27.5t14.5 -20.5t24 -8q5 0 7 1q2 0 3 1v-48q-2 -2 -5 -3q-6 -3 -18 -3q-27 0 -45.5 12t-29 31.5t-15 44t-4.5 48.5q0 19 -2 36t-8 30.5t-15.5 22t-24.5 9.5q-9 -2 -18.5 -2.5t-20.5 -1.5v-224h-60v510q56 0 99 -4.5t72 -20t44 -44.5t15 -78
q0 -46 -14 -73.5t-41 -41.5q21 -20 27.5 -50t6.5 -67zM215 363q0 26 -7 42t-21 25.5t-34.5 13.5t-47.5 5v-165q30 1 51 4.5t34 12.5t19 23.5t6 38.5zM221 711l44 -37l-108 -132l-37 33z" />
    <glyph glyph-name="Rcaron" unicode="&#x158;" horiz-adv-x="323" 
d="M62 509q52 0 93 -5t68.5 -20t42 -42t14.5 -72q0 -50 -20 -77.5t-59 -41.5l114 -251h-62l-109 239q-18 -3 -38 -3v-236h-61v509h17zM219 370q0 42 -29 58t-84 19v-149q56 3 84.5 18t28.5 54zM224 729l44 -37l-108 -132h-37l-108 132l44 37l82 -111z" />
    <glyph glyph-name="rcaron" unicode="&#x159;" horiz-adv-x="335" 
d="M254 131q0 -14 1.5 -29t7 -27.5t14.5 -20.5t24 -8q5 0 7 1q2 0 3 1v-48q-2 -2 -5 -3q-6 -3 -18 -3q-27 0 -45.5 12t-29 31.5t-15 44t-4.5 48.5q0 19 -2 36t-8 30.5t-15.5 22t-24.5 9.5q-9 -2 -18.5 -2.5t-20.5 -1.5v-224h-60v510q56 0 99 -4.5t72 -20t44 -44.5t15 -78
q0 -46 -14 -73.5t-41 -41.5q21 -20 27.5 -50t6.5 -67zM215 363q0 26 -7 42t-21 25.5t-34.5 13.5t-47.5 5v-165q30 1 51 4.5t34 12.5t19 23.5t6 38.5zM232 728l44 -37l-108 -132h-37l-108 132l44 37l82 -111z" />
    <glyph glyph-name="Sacute" unicode="&#x15a;" horiz-adv-x="339" 
d="M83 120q0 -29 22.5 -47t62.5 -18q35 0 61 18.5t26 66.5q0 27 -16 46t-40 35t-51.5 31t-51.5 33.5t-40 43t-16 59.5q0 34 10.5 57.5t29 38t42.5 21t51 6.5q60 0 95 -31t35 -83q0 -35 -20.5 -61t-58.5 -26q-35 0 -56.5 19.5t-21.5 48.5q0 13 1 17t2 5h50q-1 0 -1 -1v-8
q0 -26 22 -26q12 0 17.5 10t5.5 21q0 26 -18.5 42t-51.5 16q-30 0 -51 -15t-21 -50q0 -28 16 -46.5t40 -34t51.5 -30t51.5 -33.5t40 -44.5t16 -62.5q0 -41 -12 -68.5t-32.5 -44t-47.5 -24t-56 -7.5q-67 0 -106 35t-39 91q0 42 23.5 71.5t65.5 29.5q40 0 64 -23t24 -55
q0 -8 -2 -16q-1 -4 -1 -6h-50v1q0 1 0.5 2.5t0.5 5.5q0 18 -9.5 27t-22.5 9q-17 0 -25 -13.5t-8 -32.5zM243 711l44 -37l-108 -132l-37 33z" />
    <glyph glyph-name="sacute" unicode="&#x15b;" horiz-adv-x="339" 
d="M83 122q0 -29 22.5 -46t62.5 -17q18 0 33.5 4t27.5 13.5t19 25.5t7 40q0 27 -16 46t-40 35t-51.5 31t-51.5 33.5t-40 43t-16 59.5q0 34 10.5 57.5t29 38t42.5 21t51 6.5q60 0 95 -31t35 -83q0 -35 -20.5 -61t-58.5 -26q-35 0 -56.5 19.5t-21.5 48.5q0 13 1 17t2 5h50
q-1 0 -1 -1v-8q0 -26 22 -26q12 0 17.5 10t5.5 21q0 26 -18.5 42t-51.5 16q-30 0 -51 -15t-21 -50q0 -28 16 -46.5t40 -34t51.5 -30t51.5 -33.5t40 -44.5t16 -62.5q0 -41 -12 -68t-32.5 -43.5t-47.5 -23.5t-56 -7q-67 0 -106 34t-39 90q0 42 23.5 71.5t65.5 29.5
q40 0 64 -23t24 -55q0 -8 -2 -16q-1 -4 -1 -6h-50v1q0 1 0.5 2.5t0.5 5.5q0 18 -9.5 27t-22.5 9q-17 0 -25 -13.5t-8 -32.5zM230 711l44 -37l-108 -132l-37 33z" />
    <glyph glyph-name="Scircumflex" unicode="&#x15c;" horiz-adv-x="339" 
d="M83 120q0 -29 22.5 -47t62.5 -18q35 0 61 18.5t26 66.5q0 27 -16 46t-40 35t-51.5 31t-51.5 33.5t-40 43t-16 59.5q0 34 10.5 57.5t29 38t42.5 21t51 6.5q60 0 95 -31t35 -83q0 -35 -20.5 -61t-58.5 -26q-35 0 -56.5 19.5t-21.5 48.5q0 13 1 17t2 5h50q-1 0 -1 -1v-8
q0 -26 22 -26q12 0 17.5 10t5.5 21q0 26 -18.5 42t-51.5 16q-30 0 -51 -15t-21 -50q0 -28 16 -46.5t40 -34t51.5 -30t51.5 -33.5t40 -44.5t16 -62.5q0 -41 -12 -68.5t-32.5 -44t-47.5 -24t-56 -7.5q-67 0 -106 35t-39 91q0 42 23.5 71.5t65.5 29.5q40 0 64 -23t24 -55
q0 -8 -2 -16q-1 -4 -1 -6h-50v1q0 1 0.5 2.5t0.5 5.5q0 18 -9.5 27t-22.5 9q-17 0 -25 -13.5t-8 -32.5zM96 543l-44 37l108 132h37l108 -132l-44 -37l-83 111z" />
    <glyph glyph-name="scircumflex" unicode="&#x15d;" horiz-adv-x="339" 
d="M83 122q0 -29 22.5 -46t62.5 -17q18 0 33.5 4t27.5 13.5t19 25.5t7 40q0 27 -16 46t-40 35t-51.5 31t-51.5 33.5t-40 43t-16 59.5q0 34 10.5 57.5t29 38t42.5 21t51 6.5q60 0 95 -31t35 -83q0 -35 -20.5 -61t-58.5 -26q-35 0 -56.5 19.5t-21.5 48.5q0 13 1 17t2 5h50
q-1 0 -1 -1v-8q0 -26 22 -26q12 0 17.5 10t5.5 21q0 26 -18.5 42t-51.5 16q-30 0 -51 -15t-21 -50q0 -28 16 -46.5t40 -34t51.5 -30t51.5 -33.5t40 -44.5t16 -62.5q0 -41 -12 -68t-32.5 -43.5t-47.5 -23.5t-56 -7q-67 0 -106 34t-39 90q0 42 23.5 71.5t65.5 29.5
q40 0 64 -23t24 -55q0 -8 -2 -16q-1 -4 -1 -6h-50v1q0 1 0.5 2.5t0.5 5.5q0 18 -9.5 27t-22.5 9q-17 0 -25 -13.5t-8 -32.5zM96 541l-44 37l108 132h37l108 -132l-44 -37l-83 111z" />
    <glyph glyph-name="Scedilla" unicode="&#x15e;" horiz-adv-x="379" 
d="M152 -3q-61 9 -96 49.5t-35 101.5q0 42 23.5 71.5t65.5 29.5q40 0 64 -23t24 -55q0 -8 -2 -16q-1 -4 -1 -6h-50v3q0 2 0.5 3t0.5 3q0 18 -9.5 27t-22.5 9q-17 0 -25 -13.5t-8 -32.5q0 -42 28 -67.5t77 -25.5q21 0 40.5 6.5t34.5 21t23.5 38.5t8.5 59q0 46 -19 77
t-47 54.5t-61.5 44t-61.5 46t-47 59.5t-19 85q0 39 13 66.5t35.5 44.5t52 24.5t62.5 7.5q65 0 102.5 -33t37.5 -87q0 -42 -23.5 -71.5t-65.5 -29.5q-40 0 -64 23t-24 55q0 12 1 16t2 6h50q-1 -1 -1 -3v-6q0 -18 9.5 -27t22.5 -9q17 0 25 13.5t8 32.5q0 26 -21 44.5t-59 18.5
q-42 0 -72 -20t-30 -65q0 -41 19 -69t47 -50.5t61.5 -43t61.5 -47.5t47 -64.5t19 -92.5q0 -50 -13 -85t-35 -57t-51 -32.5t-60 -11.5v-43q40 -9 61.5 -33t21.5 -53q0 -36 -32.5 -63.5t-103.5 -27.5v47q26 0 43 4t26.5 10t13 13.5t3.5 15.5q0 19 -18 31.5t-58 12.5v89z" />
    <glyph glyph-name="scedilla" unicode="&#x15f;" horiz-adv-x="368" 
d="M82 148q0 -42 25 -67.5t70 -25.5q21 0 40.5 6.5t34.5 21t23.5 38.5t8.5 59q0 46 -18 77t-45.5 54.5t-59 44t-59 46t-45.5 59.5t-18 85q0 39 13 66.5t35.5 44.5t52 24.5t62.5 7.5q60 0 95 -33t35 -87q0 -42 -23.5 -71.5t-65.5 -29.5q-40 0 -64 23t-24 55q0 12 1 16t2 6h50
q-1 -1 -1 -3v-6q0 -18 9.5 -27t22.5 -9q17 0 25 13.5t8 32.5q0 26 -18.5 44.5t-51.5 18.5q-42 0 -72 -20t-30 -65q0 -41 18 -69t45.5 -50.5t59 -43t59 -47.5t45.5 -64.5t18 -92.5q0 -48 -12 -82t-32 -56t-46.5 -33t-56.5 -14v-39q40 -9 61.5 -33t21.5 -53q0 -36 -32.5 -63.5
t-103.5 -27.5v47q26 0 43 4t26.5 10t13 13.5t3.5 15.5q0 19 -18 31.5t-58 12.5v82q-63 7 -98 48t-35 105q0 60 33 95t87 35q42 0 71.5 -24t29.5 -71q0 -41 -23 -61.5t-55 -20.5q-12 0 -16 1t-6 2v50q1 -1 3 -1h6q18 0 27 9t9 20q0 19 -13.5 27.5t-32.5 8.5q-26 0 -43 -18.5
t-17 -51.5z" />
    <glyph glyph-name="Oslashacute" unicode="&#x1fe;" horiz-adv-x="347" 
d="M318 511l-28 -61q12 -23 19 -55.5t7 -77.5v-125q0 -58 -12 -96t-31.5 -60.5t-45.5 -31.5t-54 -9q-21 0 -41 5t-37 18l-8 -18l-62 1l31 68q-10 22 -15.5 52t-5.5 71v125q0 60 11.5 98t30.5 60.5t44 31t52 8.5q20 0 39.5 -4.5t36.5 -15.5l7 16h62zM255 317q0 27 -3 48
l-129 -286q10 -13 23 -18t27 -5q16 0 31 6.5t26.5 22t18 42t6.5 65.5v125zM173 454q-15 0 -29 -6t-24.5 -21.5t-17 -42t-6.5 -67.5v-125v-16.5t1 -15.5l125 276q-11 10 -23 14t-26 4zM248 710l44 -37l-108 -132l-37 33z" />
    <glyph glyph-name="oslashacute" unicode="&#x1ff;" horiz-adv-x="354" 
d="M321 511l-30 -67q13 -23 20 -56.5t7 -81.5v-110q0 -61 -12 -100.5t-31.5 -62t-45.5 -31.5t-54 -9q-21 1 -40.5 5.5t-36.5 15.5l-6 -14l-62 1l27 61q-11 23 -17.5 56t-6.5 78v110q0 61 12 100.5t31.5 62t45.5 31.5t54 9q20 0 38 -4t35 -15l10 21h62zM258 306q0 16 -1 29.5
t-3 25.5l-129 -289q11 -11 24 -15t27 -4q16 0 31 6.5t26 22.5t18 43.5t7 70.5v110zM175 453q-17 0 -31.5 -7t-26 -23.5t-18 -44.5t-6.5 -72v-110q0 -28 3 -49l128 286q-20 20 -49 20zM236 709l44 -37l-108 -132l-37 33z" />
    <glyph glyph-name="zdotaccent" unicode="&#x17c;" horiz-adv-x="349" 
d="M317 493l-96 -183q6 -1 12 -1.5t11 -0.5q13 0 20 2t12 5q4 4 7 8l20 -42q-4 -9 -11 -15q-7 -5 -18 -9.5t-30 -4.5q-26 0 -50 8l-92 -176q5 1 15 1q24 0 42 -5t33.5 -10.5t30.5 -10.5t33 -5q13 0 24.5 9t11.5 32q0 3 -0.5 5t-0.5 3v1h50q0 -2 1 -6q2 -8 2 -16
q0 -35 -24 -61.5t-64 -26.5q-19 0 -34 5t-30.5 10.5t-33 10.5t-41.5 5q-14 0 -31 -4.5t-31 -9.5q-17 -6 -33 -14v60l115 219q-3 1 -10 1q-13 0 -22 -3t-16 -7q-8 -4 -14 -9l-14 50q8 7 18 12q8 5 20 9t28 4q8 0 17.5 -2t19.5 -4l87 166h-228v58h294v-58zM102 650q0 32 21 52
t50 20q30 0 51 -20t21 -52t-21 -51.5t-51 -19.5q-29 0 -50 20t-21 51z" />
    <glyph glyph-name="uring" unicode="&#x16f;" horiz-adv-x="348" 
d="M243 0v46q-19 -18 -48 -35t-64 -17q-32 0 -49.5 15.5t-26 39t-10.5 51.5t-2 54v357h60v-356v-35t4 -32.5t14 -24t29 -9.5q25 0 50 13t43 27v417h60v-511h-60zM114 625q0 30 18 47.5t48 17.5t47.5 -17.5t17.5 -47.5t-17 -48t-48 -18q-30 0 -48 18t-18 48zM154 625
q0 -26 26 -26q25 0 25 26q0 25 -25 25q-26 0 -26 -25z" />
    <glyph glyph-name="Uring" unicode="&#x16e;" horiz-adv-x="374" 
d="M332 511v-330q0 -55 -11.5 -91t-31 -57.5t-46 -30t-56.5 -8.5t-56.5 8.5t-46 30t-31 57.5t-11.5 91v330h61v-330q0 -42 6.5 -67t18 -38t27 -17t32.5 -4t32.5 3.5t27 16.5t18 38t6.5 68v330h61zM122 625q0 30 18 47.5t48 17.5t47.5 -17.5t17.5 -47.5t-17 -48t-48 -18
q-30 0 -48 18t-18 48zM162 625q0 -26 26 -26q25 0 25 26q0 25 -25 25q-26 0 -26 -25z" />
    <glyph glyph-name="ubreve" unicode="&#x16d;" horiz-adv-x="351" 
d="M245 0v46q-19 -18 -48 -35t-64 -17q-32 0 -49.5 15.5t-26 39t-10.5 51.5t-2 54v398h60v-397v-35t4 -32.5t14 -24t29 -9.5q25 0 50 13t43 27v458h60v-552h-60zM256 711q0 -46 -24 -71t-56 -25t-56.5 25t-24.5 71h47q0 -24 10.5 -35t22.5 -11q14 0 24 11t10 35h47z" />
    <glyph glyph-name="Ubreve" unicode="&#x16c;" horiz-adv-x="390" 
d="M348 586v-335q0 -80 -12 -130t-32.5 -78.5t-48.5 -38.5t-60 -10t-60 10t-48.5 38.5t-32.5 78.5t-12 130v335h61v-335q0 -61 7 -99.5t19.5 -60t29 -29t36.5 -7.5q19 0 36 7.5t29.5 29t19.5 60t7 99.5v335h61zM286 709q0 -46 -24 -71t-56 -25t-56.5 25t-24.5 71h47
q0 -24 10.5 -35t22.5 -11q14 0 24 11t10 35h47z" />
    <glyph glyph-name="utilde" unicode="&#x169;" horiz-adv-x="377" 
d="M272 0v48q-20 -18 -51.5 -36t-70.5 -18q-35 0 -54.5 15.5t-29.5 39t-12 51.5t-2 54v436h60v-435v-35t5 -32.5t17 -24t35 -9.5q29 0 56 14t47 28v494h60v-590h-60zM48 629q8 17 19 30q10 11 24 20.5t33 9.5t35 -5.5t29.5 -12t27 -12t28.5 -5.5q12 0 19.5 5t12.5 12
q5 8 8 18l38 -11q-4 -21 -12 -37q-8 -14 -20.5 -25.5t-34.5 -11.5q-21 0 -38.5 5.5t-32 12t-28 12t-26.5 5.5q-11 0 -19.5 -5.5t-15.5 -12.5q-8 -8 -14 -17z" />
    <glyph glyph-name="Utilde" unicode="&#x168;" horiz-adv-x="422" 
d="M376 576v-325q0 -80 -13 -130t-35.5 -78.5t-52.5 -38.5t-64 -10t-64 10t-52.5 38.5t-35.5 78.5t-13 130v325h61v-325q0 -61 8 -99.5t22.5 -60t33.5 -29t40 -7.5t40 7.5t33.5 29t22.5 60t8 99.5v325h61zM72 630q8 17 19 30q10 11 24 20.5t33 9.5t35 -5.5t29.5 -12t27 -12
t28.5 -5.5q12 0 19.5 5t12.5 12q5 8 8 18l38 -11q-4 -21 -12 -37q-8 -14 -20.5 -25.5t-34.5 -11.5q-21 0 -38.5 5.5t-32 12t-28 12t-26.5 5.5q-11 0 -19.5 -5.5t-15.5 -12.5q-8 -8 -14 -17z" />
    <glyph glyph-name="Uhungarumlaut" unicode="&#x170;" horiz-adv-x="374" 
d="M332 511v-330q0 -55 -11.5 -91t-31 -57.5t-46 -30t-56.5 -8.5t-56.5 8.5t-46 30t-31 57.5t-11.5 91v330h61v-330q0 -42 6.5 -67t18 -38t27 -17t32.5 -4t32.5 3.5t27 16.5t18 38t6.5 68v330h61zM205 691l44 -37l-108 -132l-37 33zM325 691l44 -37l-108 -132l-37 33z" />
    <glyph glyph-name="uhungarumlaut" unicode="&#x171;" horiz-adv-x="348" 
d="M243 0v46q-19 -18 -48 -35t-64 -17q-32 0 -49.5 15.5t-26 39t-10.5 51.5t-2 54v357h60v-356v-35t4 -32.5t14 -24t29 -9.5q25 0 50 13t43 27v417h60v-511h-60zM185 690l44 -37l-108 -132l-37 33zM305 690l44 -37l-108 -132l-37 33z" />
    <glyph glyph-name="Wcircumflex" unicode="&#x174;" horiz-adv-x="456" 
d="M438 511l-100 -511h-60l-49 208l-55 -208h-60l-95 511h61l69 -388l51 176l-55 212h61l27 -118l28 118h62l-61 -207l44 -159l70 366h62zM149 542l-44 37l108 132h37l108 -132l-44 -37l-83 111z" />
    <glyph glyph-name="wcircumflex" unicode="&#x175;" horiz-adv-x="445" 
d="M211 511q3 -24 5 -48t6 -48q4 24 6 48l4 48h61q-8 -47 -17.5 -99t-20.5 -106q14 -57 28 -110.5t30 -100.5q8 45 15 98t13.5 107.5t11.5 108.5t10 102h61q-6 -63 -13.5 -135.5t-16.5 -143t-19 -132t-22 -100.5h-61q-17 35 -33.5 88t-32.5 116q-15 -63 -31 -116t-33 -88
h-61q-12 39 -23 100.5t-21.5 132t-20 143t-16.5 135.5h60q6 -48 12.5 -102t14 -109t15.5 -107.5t17 -97.5q15 47 28.5 101t26.5 111q-13 54 -23.5 105.5t-19.5 98.5h60zM143 542l-44 37l108 132h37l108 -132l-44 -37l-83 111z" />
    <glyph glyph-name="Ycircumflex" unicode="&#x176;" horiz-adv-x="324" 
d="M72 511l87 -224l94 224h62l-126 -304v-207h-61v207l-117 304h61zM77 543l-44 37l108 132h37l108 -132l-44 -37l-83 111z" />
    <glyph glyph-name="ycircumflex" unicode="&#x177;" horiz-adv-x="334" 
d="M153 -6q-56 0 -88 31t-32 85q0 37 22 66t67 29q37 0 57.5 -23t20.5 -55q0 -6 -0.5 -10t-1.5 -7q-1 -4 -1 -5h-50v1q0 1 0.5 2.5t0.5 5.5q0 36 -26 36q-17 0 -23 -12.5t-6 -27.5q0 -26 15.5 -42.5t44.5 -16.5q16 0 30 5t24.5 20t17 41.5t6.5 69.5v92q-20 -17 -50 -32
t-67 -15q-32 0 -49.5 13.5t-26 34t-10.5 45t-2 47.5v137h60v-136v-28t4 -26t14 -19.5t29 -7.5q26 0 52 11.5t46 24.5v182h60v-323q0 -61 -11.5 -99t-30.5 -59t-44 -28t-52 -7zM81 541l-44 37l108 132h37l108 -132l-44 -37l-83 111z" />
    <glyph glyph-name="Zacute" unicode="&#x179;" horiz-adv-x="334" 
d="M20 0v59l229 393h-228v59h293v-59l-227 -393h227v-59h-294zM239 710l44 -37l-108 -132l-37 33z" />
    <glyph glyph-name="zacute" unicode="&#x17a;" horiz-adv-x="363" 
d="M317 453l-90 -154q5 -1 15 -1q13 0 20 2t12 5q4 4 7 8l20 -42q-4 -9 -11 -15q-7 -5 -18 -9.5t-30 -4.5q-12 0 -22.5 2t-21.5 4l-95 -164q4 0 7 0.5t7 0.5q24 0 42 -5t33.5 -10.5t30.5 -10.5t33 -5q13 0 24.5 9t11.5 32q0 3 -0.5 5t-0.5 3v1h50q0 -2 1 -6q2 -8 2 -16
q0 -35 -24 -61.5t-64 -26.5q-19 0 -34 5t-30.5 10.5t-33 10.5t-41.5 5q-14 0 -31 -4.5t-31 -9.5q-17 -6 -33 -14v60l120 208q-5 1 -9 1.5t-8 0.5q-13 0 -22 -3t-16 -7q-8 -4 -14 -9l-14 50q8 7 18 12q8 5 20 9t28 4q10 0 22.5 -2.5t23.5 -6.5l80 139h-228v58h294v-58z
M263 710l44 -37l-108 -132l-37 33z" />
    <glyph glyph-name="Zdotaccent" unicode="&#x17b;" horiz-adv-x="330" 
d="M18 0v59l229 441h-228v59h293v-59l-227 -441h227v-59h-294zM103 652q0 32 21 52t50 20q30 0 51 -20t21 -52t-21 -51.5t-51 -19.5q-29 0 -50 20t-21 51z" />
    <glyph glyph-name="Tcaron" unicode="&#x164;" horiz-adv-x="307" 
d="M183 452l-3 -454h-61l3 454h-103v59h269v-59h-105zM237 730l44 -37l-108 -132h-37l-108 132l44 37l82 -111z" />
    <glyph glyph-name="wdieresis" unicode="&#x1e85;" horiz-adv-x="468" 
d="M205 593q6 -38 13.5 -79.5t15.5 -87.5q8 45 14.5 86t11.5 79h61q-9 -57 -23.5 -132t-31.5 -153q14 -56 28 -108.5t31 -100.5q9 53 17.5 119t16 133t13.5 130.5t11 112.5h61l-9 -94.5t-11 -109.5t-13.5 -115t-15 -110t-15 -94.5t-15.5 -68.5h-61q-16 32 -32.5 87.5
t-33.5 121.5q-16 -66 -32.5 -121.5t-31.5 -87.5h-61q-8 26 -16 68.5t-16.5 94.5t-17 110t-16 115t-14 109.5t-11.5 94.5h60q6 -49 13.5 -112t16.5 -130t19 -132.5t20 -118.5q15 48 29 101t27 109q-20 78 -35.5 152.5t-26.5 131.5h60zM126 672q0 17 11.5 29t28.5 12t29 -12
t12 -29t-12 -28.5t-29 -11.5t-28.5 11.5t-11.5 28.5zM276 672q0 17 11.5 29t28.5 12t29 -12t12 -29t-12 -28.5t-29 -11.5t-28.5 11.5t-11.5 28.5z" />
    <glyph glyph-name="Ygrave" unicode="&#x1ef2;" horiz-adv-x="324" 
d="M72 511l87 -224l94 224h62l-126 -304v-207h-61v207l-117 304h61zM197 576l-37 -33l-108 132l44 37z" />
    <glyph glyph-name="ygrave" unicode="&#x1ef3;" horiz-adv-x="354" 
d="M159 -6q-56 0 -87.5 31t-31.5 85q0 37 21.5 66t66.5 29q37 0 58 -23t21 -55q0 -6 -0.5 -10t-1.5 -7q-1 -4 -2 -5h-50v1q0 1 0.5 2.5t0.5 5.5q0 36 -26 36q-17 0 -23 -12.5t-6 -27.5q0 -26 16 -42.5t44 -16.5q16 0 30 5t24.5 20t17 41.5t6.5 69.5v92q-20 -17 -50 -32
t-67 -15q-32 0 -49.5 13.5t-26 34t-10.5 45t-2 47.5v137h60v-136v-28t4 -26t14 -19.5t29 -7.5q26 0 52 11.5t46 24.5v182h60v-323q0 -61 -11.5 -99t-30.5 -59t-44 -28t-52 -7zM189 571l-37 -33l-108 132l44 37z" />
    <glyph glyph-name="Wgrave" unicode="&#x1e80;" horiz-adv-x="456" 
d="M438 511l-100 -511h-60l-49 208l-55 -208h-60l-95 511h61l69 -388l51 176l-55 212h61l27 -118l28 118h62l-61 -207l44 -159l70 366h62zM245 575l-37 -33l-108 132l44 37z" />
    <glyph glyph-name="wgrave" unicode="&#x1e81;" horiz-adv-x="445" 
d="M211 511l11 -96q4 24 6 48.5t4 47.5h61q-8 -47 -17.5 -99t-20.5 -106q14 -57 28 -110.5t30 -100.5q8 45 15 98t13.5 107.5t11.5 108.5t10 102h61q-6 -63 -13.5 -135.5t-16.5 -143t-19 -132t-22 -100.5h-61q-17 35 -33.5 88t-32.5 116q-15 -63 -31 -116t-33 -88h-61
q-12 39 -23 100.5t-21.5 132t-20 143t-16.5 135.5h60q6 -48 12.5 -102t14 -109t15.5 -107.5t17 -97.5q15 47 28.5 101t26.5 111q-13 54 -23.5 105.5t-19.5 98.5h60zM246 574l-37 -33l-108 132l44 37z" />
    <glyph glyph-name="Wacute" unicode="&#x1e82;" horiz-adv-x="456" 
d="M438 511l-100 -511h-60l-49 208l-55 -208h-60l-95 511h61l69 -388l51 176l-55 212h61l27 -118l28 118h62l-61 -207l44 -159l70 366h62zM297 710l44 -37l-108 -132l-37 33z" />
    <glyph glyph-name="wacute" unicode="&#x1e83;" horiz-adv-x="445" 
d="M211 511q3 -24 5 -48t6 -48q4 24 6 52.5t4 43.5h61q-8 -47 -17.5 -99t-20.5 -106q14 -57 28 -110.5t30 -100.5q8 45 15 98t13.5 107.5t11.5 108.5t10 102h61q-6 -63 -13.5 -135.5t-16.5 -143t-19 -132t-22 -100.5h-61q-17 35 -33.5 88t-32.5 116q-15 -63 -31 -116
t-33 -88h-61q-12 39 -23 100.5t-21.5 132t-20 143t-16.5 135.5h60q6 -48 12.5 -102t14 -109t15.5 -107.5t17 -97.5q15 47 28.5 101t26.5 111q-13 54 -23.5 105.5t-19.5 98.5h60zM305 711l44 -37l-108 -132l-37 33z" />
    <glyph glyph-name="Wdieresis" unicode="&#x1e84;" horiz-adv-x="489" 
d="M469 597l-116 -597h-60l-52 231l-52 -231h-60l-108 597h61l80 -462l49 200l-63 262h61l33 -155l34 155h62l-65 -259l48 -191l86 450h62zM112 671q0 17 11.5 29t28.5 12t29 -12t12 -29t-12 -28.5t-29 -11.5t-28.5 11.5t-11.5 28.5zM262 671q0 17 11.5 29t28.5 12t29 -12
t12 -29t-12 -28.5t-29 -11.5t-28.5 11.5t-11.5 28.5z" />
    <glyph glyph-name="zerosuperior" unicode="&#x2070;" horiz-adv-x="270" 
d="M90 511q0 -46 3.5 -73.5t9.5 -42.5t14 -19.5t17 -4.5t17 4.5t14 19.5t9.5 42.5t3.5 73.5q0 42 -3.5 67t-9.5 38.5t-14 17.5t-17 4t-17 -4t-14 -17.5t-9.5 -38.5t-3.5 -67zM40 511q0 58 7.5 93t20.5 54t30 24.5t36 5.5t36 -5.5t30 -24.5t20.5 -54t7.5 -93
q0 -63 -7.5 -100.5t-20.5 -57.5t-30 -26t-36 -6t-36 6t-30 26t-20.5 57.5t-7.5 100.5z" />
    <glyph glyph-name="Uogonek" unicode="&#x172;" horiz-adv-x="426" 
d="M381 689v-438q0 -69 -10.5 -115.5t-28.5 -75.5t-42.5 -44t-52.5 -19q-17 -6 -30 -17q-11 -9 -20 -22.5t-9 -31.5q0 -11 3.5 -20.5t13 -16t26.5 -10.5t43 -4v-47q-71 0 -103.5 28.5t-32.5 69.5q0 25 9 42.5t22 29.5q-27 5 -49.5 20t-39 44t-26 75t-9.5 114v438h61v-438
q0 -61 8 -99.5t22.5 -60t33.5 -29t40 -7.5t41 7.5t35.5 29t24.5 60t9 99.5v438h61z" />
    <glyph glyph-name="uogonek" unicode="&#x173;" horiz-adv-x="377" 
d="M48 689h60v-534v-35t5 -32.5t17 -24t35 -9.5q28 0 55.5 14t47.5 28v593h60v-689q-17 -6 -30 -17q-11 -9 -20 -22.5t-9 -31.5q0 -11 3.5 -20.5t13 -16t26.5 -10.5t43 -4v-47q-71 0 -103.5 28.5t-32.5 69.5q0 33 15 53.5t34 31.5v34q-20 -19 -50.5 -36.5t-71.5 -17.5
q-35 0 -54.5 15.5t-29.5 39t-12 51.5t-2 54v535z" />
    <glyph glyph-name="igrave" unicode="&#xec;" horiz-adv-x="150" 
d="M106 508v-508h-61v508h61zM105 573l-37 -33l-108 132l44 37z" />
    <glyph glyph-name="iacute" unicode="&#xed;" horiz-adv-x="151" 
d="M106 508v-508h-61v508h61zM148 710l44 -37l-108 -132l-37 33z" />
    <glyph glyph-name="icircumflex" unicode="&#xee;" horiz-adv-x="150" 
d="M106 508v-508h-61v508h61zM-5 541l-44 37l108 132h37l108 -132l-44 -37l-83 111z" />
    <glyph glyph-name="idieresis" unicode="&#xef;" horiz-adv-x="154" 
d="M109 594v-594h-61v594h61zM-33 672q0 17 11.5 29t28.5 12t29 -12t12 -29t-12 -28.5t-29 -11.5t-28.5 11.5t-11.5 28.5zM117 672q0 17 11.5 29t28.5 12t29 -12t12 -29t-12 -28.5t-29 -11.5t-28.5 11.5t-11.5 28.5z" />
    <glyph glyph-name="itilde" unicode="&#x129;" horiz-adv-x="157" 
d="M109 558v-558h-61v558h61zM-76 629q8 17 19 30q10 11 24 20.5t33 9.5t35 -5.5t29.5 -12t27 -12t28.5 -5.5q12 0 19.5 5t12.5 12q5 8 8 18l38 -11q-4 -21 -12 -37q-8 -14 -20.5 -25.5t-34.5 -11.5q-21 0 -38.5 5.5t-32 12t-28 12t-26.5 5.5q-11 0 -19.5 -5.5t-15.5 -12.5
q-8 -8 -14 -17z" />
    <glyph glyph-name="iogonek" unicode="&#x12f;" horiz-adv-x="202" 
d="M58 563h60v-459q0 -29 14.5 -43.5t48.5 -14.5q9 0 12 1t4 2v-47q-1 0 -3 -1t-8 -3q-5 -2 -14 -7t-18 -14t-15.5 -21t-6.5 -28q0 -11 3.5 -20.5t13 -16t26.5 -10.5t43 -4v-47q-71 0 -103.5 28.5t-32.5 69.5q0 25 9 42.5t22 29.5q-26 8 -40.5 32t-14.5 72v459zM43 648
q0 19 12.5 32t31.5 13t32 -13t13 -32t-13 -31.5t-32 -12.5t-31.5 12.5t-12.5 31.5z" />
    <glyph glyph-name="ordmasculine" unicode="&#xba;" horiz-adv-x="270" 
d="M40 531q0 51 7.5 82t20.5 47.5t30 22t36 5.5t36 -5.5t30 -22t20.5 -47.5t7.5 -82q0 -55 -7.5 -88.5t-20.5 -51.5t-30 -24t-36 -6t-36 6t-30 24t-20.5 51.5t-7.5 88.5zM90 531q0 -39 3.5 -62.5t9.5 -36.5t14 -17t17 -4t17 4t14 17t9.5 36.5t3.5 62.5q0 35 -3.5 56
t-9.5 32.5t-14 15t-17 3.5t-17 -3.5t-14 -15t-9.5 -32.5t-3.5 -56z" />
    <glyph glyph-name="onesuperior" unicode="&#xb9;" horiz-adv-x="182" 
d="M130 689v-365h-51v254l-22 -47l-41 24l63 134h51z" />
    <glyph glyph-name="twosuperior" unicode="&#xb2;" horiz-adv-x="270" 
d="M44 323q1 34 10.5 59t23 44t29.5 36t29.5 35t22.5 40.5t9 54.5q0 27 -10 36.5t-24 9.5t-23.5 -12.5t-9.5 -51.5h-50q0 34 7 56.5t18 35t26 17.5t32 5t32 -4.5t26.5 -15t18.5 -29.5t7 -47q0 -45 -14 -74.5t-33.5 -52t-39 -43.5t-29.5 -49h118v-50h-176v0z" />
    <glyph glyph-name="threesuperior" unicode="&#xb3;" horiz-adv-x="264" 
d="M46 690h176v-50l-73 -102q32 -8 51 -34t19 -76q0 -32 -7 -52.5t-19 -32.5t-28 -16.5t-34 -4.5t-34 5t-28 18.5t-19 37t-7 59.5h50q0 -42 11 -56t27 -14t27 11.5t11 44.5q0 35 -14.5 49t-37.5 15l-31 42l74 106h-114v50z" />
    <glyph glyph-name="macron" unicode="&#xaf;" horiz-adv-x="279" 
d="M257 744h-244v50h244v-50z" />
    <glyph glyph-name="braceleft" unicode="{" horiz-adv-x="225" 
d="M198 -82q-7 -2 -15 -4q-15 -3 -38 -3q-25 0 -41.5 9t-26 24.5t-13.5 37t-4 47.5q0 42 5.5 80.5t5.5 83.5q0 38 -8 61.5t-34 25.5v40q13 1 21.5 9t13 20t6 27.5t1.5 30.5q0 40 -5.5 79t-5.5 85q0 25 3.5 47t13 37.5t26 24.5t42.5 9q10 0 19 -1t17 -2q9 -2 17 -3v-52
q-7 0 -15 1q-7 1 -16 1.5t-19 0.5q-20 0 -24 -19.5t-4 -43.5q0 -41 5.5 -80t5.5 -84q0 -32 -7.5 -60t-27.5 -46q20 -16 27.5 -43.5t7.5 -64.5q0 -40 -5.5 -79t-5.5 -85q0 -12 0.5 -23.5t3 -21t8 -15t16.5 -5.5q10 0 19 0.5t16 1.5q8 1 15 2v-50z" />
    <glyph glyph-name="bar" unicode="|" horiz-adv-x="173" 
d="M117 689v-784h-61v784h61z" />
    <glyph glyph-name="braceright" unicode="}" horiz-adv-x="224" 
d="M27 -32q7 -1 15 -2q7 -1 16 -1.5t19 -0.5q11 0 16.5 5.5t8 15t3 21t0.5 23.5q0 46 -5.5 85t-5.5 79q0 37 7 64.5t27 43.5q-20 18 -27 46t-7 60q0 45 5.5 84t5.5 80q0 24 -4 43.5t-24 19.5q-11 0 -19.5 -0.5t-15.5 -1.5q-8 -1 -15 -1v52q8 1 17 3q8 1 17 2t19 1
q26 0 42.5 -9t26 -24.5t13 -37.5t3.5 -47q0 -46 -5.5 -85t-5.5 -79q0 -16 1.5 -31.5t6 -28t13 -20t21.5 -7.5v-40q-26 0 -34 -23t-8 -64q0 -45 5.5 -83.5t5.5 -80.5q0 -26 -4 -47.5t-14 -37t-26 -24.5t-41 -9t-38 3q-9 2 -15 4v50z" />
    <glyph glyph-name="asciitilde" unicode="~" horiz-adv-x="635" 
d="M44 267q17 35 43 62q22 23 54 42.5t74 19.5q34 0 60 -16.5t49 -36t47.5 -36t56.5 -16.5q35 0 57.5 16.5t34.5 36.5q14 24 21 54l49 -18q-11 -42 -32 -75q-18 -28 -49.5 -51t-80.5 -23q-36 0 -63 16.5t-50 36t-46.5 36t-53.5 16.5q-35 0 -59.5 -15t-40.5 -33
q-18 -21 -31 -48z" />
    <glyph glyph-name="cent" unicode="&#xa2;" horiz-adv-x="385" 
d="M97 251q0 -61 9 -99.5t24.5 -60t36 -29t43.5 -7.5q38 0 59 18.5t21 44.5q0 19 -8 32.5t-25 13.5q-13 0 -22.5 -9t-9.5 -27v-6q0 -2 1 -3h-50q-1 2 -2 6t-1 16q0 32 24 55t64 23q42 0 65.5 -29.5t23.5 -71.5q0 -48 -29.5 -79t-81.5 -39v-77h-51v76q-31 2 -58.5 14
t-48 40.5t-32.5 76t-12 121.5v185q0 73 12 121t32.5 76.5t48 40.5t58.5 14v78h50v-79q52 -8 82 -39t30 -79q0 -42 -23.5 -71.5t-65.5 -29.5q-40 0 -64 23t-24 55q0 12 1 16t2 6h50q-1 -1 -1 -3v-6q0 -18 9.5 -27t22.5 -9q17 0 25 13.5t8 32.5q0 26 -21 44.5t-59 18.5
q-23 0 -43.5 -7.5t-36 -29t-24.5 -60t-9 -99.5v-185z" />
    <glyph glyph-name="sterling" unicode="&#xa3;" horiz-adv-x="455" 
d="M302 57q13 0 24.5 9t11.5 32q0 3 -0.5 5t-0.5 3v1h50q0 -2 1 -6q2 -8 2 -16q0 -35 -24 -61.5t-64 -26.5q-19 0 -34 5t-30.5 10.5t-33 10.5t-41.5 5q-14 0 -31 -4.5t-31 -9.5q-17 -6 -33 -14v60q6 2 14 6q7 3 15.5 6.5t18.5 6.5v246h-48v60h48v61q0 78 14 127t37.5 76
t55 36.5t66.5 9.5q65 0 102.5 -33t37.5 -87q0 -42 -23.5 -71.5t-65.5 -29.5q-40 0 -64 23t-24 55q0 12 1 16t2 6h50q-1 -1 -1 -3v-6q0 -18 9.5 -27t22.5 -9q17 0 25 13.5t8 32.5q0 26 -21 44.5t-59 18.5q-23 0 -43.5 -7.5t-35.5 -28.5t-24 -58.5t-9 -97.5v-61h134v-60h-134
v-238q21 -2 36.5 -6.5t29.5 -10t28 -9.5t31 -4z" />
    <glyph glyph-name="currency" unicode="&#xa4;" horiz-adv-x="562" 
d="M75 606l56 -56q30 25 68 39t82 14q43 0 80.5 -14t67.5 -38l56 56l36 -36l-56 -56q26 -31 40 -69.5t14 -80.5t-14 -80t-39 -70l56 -55l-36 -36l-56 55q-30 -24 -67.5 -38t-81.5 -14t-82 14t-68 39l-56 -56l-36 36l56 56q-25 31 -38.5 69t-13.5 80t13.5 79.5t38.5 69.5
l-56 56zM103 365q0 -36 13.5 -68.5t37 -57t56 -38.5t71.5 -14t71.5 14t56 38.5t37 57t13.5 68.5t-13.5 68.5t-37 57t-56 38.5t-71.5 14t-71.5 -14t-56 -38.5t-37 -57t-13.5 -68.5z" />
    <glyph glyph-name="yen" unicode="&#xa5;" horiz-adv-x="398" 
d="M100 689l93 -242l102 242h62l-88 -211h84v-57h-108l-22 -54v-52h130v-57h-130v-258h-61v258h-126v57h126v52l-21 54h-105v57h83l-80 211h61z" />
    <glyph glyph-name="brokenbar" unicode="&#xa6;" horiz-adv-x="173" 
d="M118 238v-333h-61v333h61zM57 340v349h61v-349h-61z" />
    <glyph glyph-name="section" unicode="&#xa7;" horiz-adv-x="356" 
d="M327 256q0 -66 -25 -103q6 -15 9.5 -32.5t3.5 -38.5q0 -45 -12 -76t-32 -49.5t-46.5 -27t-54.5 -8.5q-66 0 -104.5 36.5t-38.5 96.5q0 36 20.5 61.5t56.5 25.5q35 0 55.5 -20t20.5 -47q0 -8 -2 -14q-1 -3 -1 -5h-43v2q0 1 0.5 2.5t0.5 3.5q0 16 -8.5 23.5t-19.5 7.5
q-14 0 -21 -11.5t-7 -28.5q0 -36 24 -58t67 -22q18 0 35 5.5t29.5 18t20 33t7.5 51.5q0 40 -16.5 66.5t-40.5 47t-53 38.5t-53 39.5t-40.5 51t-16.5 73.5q0 31 9 53t25 37q-10 17 -16 37.5t-6 46.5q0 34 11.5 57.5t30.5 38.5t44.5 21.5t54.5 6.5q56 0 88.5 -28.5t32.5 -75.5
q0 -35 -20.5 -61t-56.5 -26q-35 0 -55.5 20t-20.5 47q0 11 1 14q0 3 1 5h44q-1 -1 -1 -2v-5q0 -16 8 -24t19 -8q15 0 22 12t7 28q0 23 -18.5 39t-50.5 16q-37 0 -63 -17.5t-26 -56.5q0 -36 16.5 -60t41 -43.5t53 -37t53 -41t41 -55.5t16.5 -80zM274 256q0 40 -16.5 66.5
t-41 47t-53 38t-52.5 39.5q-17 -19 -17 -48q0 -38 18 -62.5t44 -44.5t56.5 -39.5t54.5 -45.5q3 11 5 23t2 26z" />
    <glyph glyph-name="copyright" unicode="&#xa9;" horiz-adv-x="455" 
d="M45 365q0 48 10 91t32.5 75.5t58.5 52t87 19.5t85.5 -19.5t55 -52t29 -75.5t8.5 -91t-8.5 -91t-29 -75.5t-55 -52t-85.5 -19.5t-87 19.5t-58.5 52t-32.5 75.5t-10 91zM243 487q0 -11 8 -19.5t21 -8.5q14 0 21.5 10t7.5 23q0 20 -16 32.5t-44 12.5q-17 0 -33 -5t-28 -18.5
t-19 -38.5t-7 -64v-93q0 -39 7 -64t19 -38.5t28 -18.5t33 -5q28 0 44 12.5t16 32.5q0 13 -7.5 23t-21.5 10q-13 0 -21 -8.5t-8 -19.5h17q0 9 11 9q5 0 7.5 -4.5t2.5 -9.5q0 -25 -40 -25q-14 0 -26 4t-21 15.5t-14.5 32.5t-5.5 54v93q0 33 5.5 54t14.5 32.5t21 15.5t26 4
q40 0 40 -25q0 -5 -2.5 -10t-7.5 -5q-11 0 -11 10h-17z" />
    <glyph glyph-name="guillemotleft" unicode="&#xab;" horiz-adv-x="510" 
d="M246 3l-229 289l229 289l45 -39l-198 -250l198 -250zM429 3l-229 289l229 289l45 -39l-198 -250l198 -250z" />
    <glyph glyph-name="logicalnot" unicode="&#xac;" horiz-adv-x="478" 
d="M366 260v107h-294v57h354v-164h-60z" />
    <glyph glyph-name="uni00AD" unicode="&#xad;" horiz-adv-x="368" 
d="M331 303h-294v60h294v-60z" />
    <glyph glyph-name="registered" unicode="&#xae;" horiz-adv-x="455" 
d="M44 365q0 48 10 91t32.5 75.5t58.5 52t87 19.5t85.5 -19.5t55 -52t29 -75.5t8.5 -91t-8.5 -91t-29 -75.5t-55 -52t-85.5 -19.5t-87 19.5t-58.5 52t-32.5 75.5t-10 91zM313 216q-12 0 -19.5 7t-11.5 18t-5 25t-1 28q0 20 -2.5 38.5t-11.5 29.5q17 9 25.5 28.5t8.5 54.5
q0 31 -6.5 50t-19.5 29.5t-31.5 14.5t-42.5 5h-20v-345h20v152q22 0 40 3q13 0 16.5 -18.5t3.5 -41.5q0 -18 1.5 -35.5t7.5 -31.5t17.5 -22.5t30.5 -8.5v20zM276 445q0 -24 -5 -38t-15.5 -22t-25.5 -11t-34 -3v153q19 -1 34 -4t25.5 -11.5t15.5 -24t5 -39.5z" />
    <glyph glyph-name="degree" unicode="&#xb0;" horiz-adv-x="302" 
d="M39 575q0 54 33 85t79 31t79 -31t33 -85t-33 -85t-79 -31t-79 31t-33 85zM99 575q0 -30 14.5 -43t37.5 -13t37.5 13t14.5 43t-14.5 43t-37.5 13t-37.5 -13t-14.5 -43z" />
    <glyph glyph-name="plusminus" unicode="&#xb1;" horiz-adv-x="475" 
d="M423 303h-155v-165h-60v165h-155v60h155v165h60v-165h155v-60zM422 0h-370v60h370v-60z" />
    <glyph glyph-name="mu" horiz-adv-x="383" 
d="M275 0v48q-20 -18 -51.5 -36t-70.5 -18q-21 0 -38 7v-144h-60v832h60v-569q0 -26 11 -46t46 -20q29 0 56 14t47 28v593h60v-689h-60z" />
    <glyph glyph-name="paragraph" unicode="&#xb6;" horiz-adv-x="467" 
d="M410 690v-690h-60v631h-65v-631h-60v305q-50 2 -87 10.5t-62.5 29t-38 56.5t-12.5 92q0 66 16.5 105t49.5 59.5t81.5 26.5t112.5 6h125zM85 493q0 -38 9 -62.5t27 -39t44 -20.5t60 -7v265q-34 -2 -60 -7.5t-44 -20.5t-27 -40.5t-9 -67.5z" />
    <glyph glyph-name="periodcentered" unicode="&#xb7;" horiz-adv-x="247" 
d="M52 353q0 34 17 58t54 24q38 0 55 -24t17 -58q0 -33 -17 -57t-55 -24q-37 0 -54 24t-17 57z" />
    <glyph glyph-name="guillemotright" unicode="&#xbb;" horiz-adv-x="531" 
d="M240 42l198 250l-198 250l45 39l229 -289l-229 -289zM57 42l198 250l-198 250l45 39l229 -289l-229 -289z" />
    <glyph glyph-name="onequarter" unicode="&#xbc;" horiz-adv-x="516" 
d="M457 364v-260h36v-45h-36v-59h-49v59h-119v45l52 265l47 -5l-54 -260h74v260h49zM122 689v-365h-51v254l-22 -47l-41 24l63 134h51zM439 689l-306 -689l-62 1l306 688h62z" />
    <glyph glyph-name="onehalf" unicode="&#xbd;" horiz-adv-x="500" 
d="M291 0q1 35 10.5 59.5t23 43.5t29.5 36t29.5 35t22.5 40.5t9 54.5q0 27 -10 36.5t-24 9.5t-23.5 -12.5t-9.5 -51.5h-50q0 34 7 56.5t18 35t26 17.5t32 5t32 -4.5t26.5 -15t18.5 -29.5t7 -47q0 -45 -14 -74.5t-33.5 -52t-39 -43.5t-29.5 -49h118v-50h-176zM123 689v-365
h-51v254l-22 -47l-41 24l63 134h51zM442 689l-306 -689l-62 1l306 688h62z" />
    <glyph glyph-name="threequarters" unicode="&#xbe;" horiz-adv-x="531" 
d="M470 362v-260h36v-45h-36v-59h-49v59h-119v45l52 265l47 -5l-54 -260h74v260h49zM35 690h176v-50l-73 -102q32 -8 51 -34t19 -76q0 -32 -7 -52.5t-19 -32.5t-28 -16.5t-34 -4.5t-34 5t-28 18.5t-19 37t-7 59.5h50q0 -42 11 -56t27 -14t27 11.5t11 44.5q0 35 -14.5 49
t-37.5 15l-31 42l74 106h-114v50zM480 689l-306 -689l-62 1l306 688h62z" />
    <glyph glyph-name="multiply" unicode="&#xd7;" horiz-adv-x="409" 
d="M89 487l117 -117l110 110l42 -42l-110 -110l117 -117l-42 -42l-117 117l-110 -110l-42 42l110 110l-117 117z" />
    <glyph glyph-name="Eth" unicode="&#xd0;" horiz-adv-x="367" 
d="M73 689q54 0 101 -9.5t82 -36.5t55 -76t20 -129v-185q0 -80 -20 -129.5t-55 -77t-82 -37t-101 -9.5h-17v333h-45v57h45v299h17zM270 438q0 52 -11.5 86.5t-32 56t-48.5 32t-61 13.5v-236h114v-57h-114v-270q33 3 61 13t48.5 32t32 57t11.5 88v185z" />
    <glyph glyph-name="Thorn" unicode="&#xde;" horiz-adv-x="315" 
d="M110 689v-182q46 -2 82.5 -9.5t61 -25.5t37.5 -47.5t13 -75.5q0 -45 -12.5 -75.5t-37 -49.5t-61 -28t-83.5 -11v-185h-61v689h61zM243 349q0 27 -8.5 44.5t-25.5 28.5t-42 16.5t-57 7.5v-199q66 4 99.5 25t33.5 77z" />
    <glyph glyph-name="germandbls" unicode="&#xdf;" horiz-adv-x="391" 
d="M248 0q-13 0 -17 1t-5 2v50q1 -1 3 -1h6q25 0 41.5 8t26.5 21.5t14 31t4 36.5q0 28 -10.5 49t-27 38.5t-35 33t-35 33t-27 38t-10.5 48.5q0 26 10.5 45t22.5 37t22.5 38t10.5 50q0 32 -13 52.5t-42 20.5q-14 0 -28 -7.5t-26 -29t-19.5 -59.5t-7.5 -99l-1 -437h-60l1 437
q0 81 13.5 130.5t35 76.5t48.5 36t54 9q47 0 76 -36t29 -94q0 -33 -10.5 -55.5t-22.5 -40.5t-22.5 -35t-10.5 -39q0 -21 10.5 -37.5t27 -32t35 -32t35 -36t27 -44.5t10.5 -58q0 -65 -34.5 -107t-98.5 -42z" />
    <glyph glyph-name="eth" unicode="&#xf0;" horiz-adv-x="406" 
d="M97 688q37 0 71.5 -15t66.5 -42l26 33l37 -25l-32 -41q49 -58 79 -147t30 -201q0 -76 -13.5 -125.5t-36.5 -79t-53.5 -41t-64.5 -11.5t-64.5 10.5t-53.5 36t-36.5 69.5t-13.5 111q0 95 41 140.5t107 45.5q44 0 74 -21t48 -52q-8 68 -28.5 123t-49.5 95l-37 -48l-37 26
l43 57q-53 50 -116 50q-4 0 -5.5 -0.5t-2.5 -0.5h-1v50q1 0 5 1q3 1 7 1.5t10 0.5zM100 220q0 -50 8.5 -82.5t23 -52t34 -27.5t41.5 -8q20 0 39 8.5t34 28t24 51.5t9 80q0 21 -7.5 43.5t-22.5 41.5t-39 31t-57 12q-39 0 -63 -31.5t-24 -94.5z" />
    <glyph glyph-name="divide" unicode="&#xf7;" horiz-adv-x="445" 
d="M394 278h-340v60h340v-60zM186 461q0 17 11.5 29t28.5 12t29 -12t12 -29t-12 -28.5t-29 -11.5t-28.5 11.5t-11.5 28.5zM188 146q0 17 11.5 29t28.5 12t29 -12t12 -29t-12 -28.5t-29 -11.5t-28.5 11.5t-11.5 28.5z" />
    <glyph glyph-name="thorn" unicode="&#xfe;" horiz-adv-x="354" 
d="M110 689v-231q16 23 38 31.5t47 8.5q23 0 44 -7.5t37 -28t25.5 -57t9.5 -95.5v-63q0 -59 -9.5 -95.5t-25.5 -57t-37.5 -27.5t-44.5 -7q-25 0 -46.5 8t-37.5 31v-194h-61v784h61zM194 120q12 0 22 4.5t18 18.5t12.5 38.5t4.5 65.5v63q0 41 -4.5 66t-12 39t-17.5 18.5
t-22 4.5q-27 0 -49.5 -10.5t-35.5 -43.5v-209q12 -34 34.5 -44.5t49.5 -10.5z" />
    <glyph glyph-name="dotlessi" unicode="&#x131;" horiz-adv-x="192" 
d="M58 565h60v-455q0 -29 15 -43t54 -14v-53q-35 0 -59.5 5.5t-40 18t-22.5 33.5t-7 53v455z" />
    <glyph glyph-name="Lslash" unicode="&#x141;" horiz-adv-x="294" 
d="M110 689v-631h167v-58h-228v689h61z" />
    <glyph glyph-name="lslash" unicode="&#x142;" horiz-adv-x="226" 
d="M81 290l-64 -54l-32 38l96 82v332h60v-281l65 56l32 -38l-97 -83v-238q0 -29 14.5 -43.5t48.5 -14.5q9 0 12 1t4 2v-47q-4 -2 -9 -4t-13 -3t-22 -1q-43 0 -69 23.5t-26 86.5v186z" />
    <glyph glyph-name="OE" unicode="&#x152;" horiz-adv-x="560" 
d="M401 689q65 0 102.5 -33t37.5 -87q0 -42 -23.5 -71.5t-65.5 -29.5q-40 0 -64 23t-24 55q0 12 1 16t2 6h50q-1 -1 -1 -3v-6q0 -18 9.5 -27t22.5 -9q17 0 25 13.5t8 32.5q0 26 -21 44.5t-59 18.5q-46 0 -74 -26.5t-28 -83.5q0 -30 11 -52.5t26.5 -38t33.5 -23t32 -7.5h71
v-58h-74q-13 0 -30.5 -10t-33 -30t-26 -49t-10.5 -67q0 -73 27.5 -102.5t74.5 -29.5q36 0 53 20t17 53q0 2 -0.5 4t-0.5 4v4h57q1 -2 2 -6q2 -8 2 -18q0 -23 -7 -45t-22.5 -39t-40.5 -27.5t-60 -10.5q-29 0 -54.5 6.5t-45.5 21.5q-21 -17 -45.5 -22.5t-51.5 -5.5
q-34 0 -64.5 10t-53.5 38.5t-36.5 78.5t-13.5 130v185q0 80 13.5 129.5t36.5 77t53.5 37t64.5 9.5q26 0 50.5 -6t45.5 -21q21 14 46.5 20.5t54.5 6.5zM204 51q16 0 30 3.5t27 14.5q-23 44 -23 118q0 46 8 78t20 53t27 33.5t29 20.5q-12 9 -26.5 22.5t-27.5 31.5t-21.5 41.5
t-8.5 53.5q0 55 19 93q-22 14 -53 14q-22 0 -41.5 -7t-34 -28t-23 -58.5t-8.5 -98.5v-185q0 -61 8.5 -100t23 -61t34 -30.5t41.5 -8.5z" />
    <glyph glyph-name="oe" unicode="&#x153;" horiz-adv-x="563" 
d="M533 329h-213v-82q0 -60 7.5 -98t21 -59.5t31.5 -30t38 -8.5q36 0 50 20.5t14 52.5q0 2 -0.5 4t-0.5 4v4h57q1 -2 2 -6q2 -8 2 -18q0 -22 -7 -44t-22 -39t-39 -28t-58 -11q-35 0 -64 12t-51 44q-21 -32 -50.5 -42.5t-61.5 -10.5q-30 0 -57.5 10t-48.5 37.5t-33.5 76.5
t-12.5 129v190q0 80 12.5 129.5t33.5 77t49 37t58 9.5q31 0 59.5 -10.5t49.5 -40.5q19 30 44.5 40.5t54.5 10.5q42 0 68.5 -22t41 -62t20 -96t5.5 -124v-56zM189 629q-19 0 -35.5 -7.5t-29 -28.5t-20 -58.5t-7.5 -98.5v-190q0 -61 7.5 -99t20 -59t29.5 -28t36 -7q13 0 25 3
t22.5 11.5t18.5 23.5t14 38q-5 24 -7.5 53.5t-2.5 64.5v189q0 72 9 120q-12 44 -33.5 58.5t-46.5 14.5zM473 385q0 55 -2.5 100t-11 77t-23 49.5t-38.5 17.5q-15 0 -29.5 -7t-25 -28t-17 -59t-6.5 -99v-51h153z" />
    <glyph glyph-name="florin" unicode="&#x192;" horiz-adv-x="562" 
d="M289 133q0 -78 -12 -127t-33 -76t-49 -36.5t-59 -9.5q-56 0 -88 33t-32 87q0 42 23.5 71.5t65.5 29.5q40 0 64 -23t24 -55q0 -8 -2 -16q-1 -4 -1 -6h-50v3q0 2 0.5 3t0.5 3q0 18 -9.5 27t-22.5 9q-17 0 -25 -13.5t-8 -32.5q0 -26 15.5 -44.5t44.5 -18.5q18 0 35 7.5
t29.5 28.5t20 58t7.5 97v193h-53v60h53v61q0 78 14 127t37.5 76t55 36.5t66.5 9.5q65 0 102.5 -33t37.5 -87q0 -42 -23.5 -71.5t-65.5 -29.5q-40 0 -64 23t-24 55q0 12 1 16t2 6h50q-1 -1 -1 -3v-6q0 -18 9.5 -27t22.5 -9q17 0 25 13.5t8 32.5q0 26 -21 44.5t-59 18.5
q-23 0 -43.5 -7.5t-35.5 -28.5t-24 -58.5t-9 -97.5v-61h134v-60h-134v-192z" />
    <glyph glyph-name="endash" unicode="&#x2013;" horiz-adv-x="414" 
d="M378 258h-340v60h340v-60z" />
    <glyph glyph-name="emdash" unicode="&#x2014;" horiz-adv-x="604" 
d="M568 258h-530v60h530v-60z" />
    <glyph glyph-name="dagger" unicode="&#x2020;" horiz-adv-x="347" 
d="M204 690v-197l121 12v-72l-121 11v-538h-61v538l-121 -11v72l121 -12v197h61z" />
    <glyph glyph-name="daggerdbl" unicode="&#x2021;" horiz-adv-x="363" 
d="M221 690v-197l120 12v-72l-120 11v-337l122 12v-72l-122 11v-152h-61v152l-120 -11v72l120 -12v337l-122 -11v72l122 -12v197h61z" />
    <glyph glyph-name="bullet" unicode="&#x2022;" horiz-adv-x="426" 
d="M65 356q0 77 41.5 120t107.5 43t107.5 -43t41.5 -120q0 -38 -11 -68t-31 -51t-47 -32t-60 -11q-66 0 -107.5 43t-41.5 119z" />
    <glyph glyph-name="ellipsis" unicode="&#x2026;" horiz-adv-x="377" 
d="M37 33q0 17 11.5 29t28.5 12t29 -12t12 -29t-12 -28.5t-29 -11.5t-28.5 11.5t-11.5 28.5zM147 33q0 17 11.5 29t28.5 12t29 -12t12 -29t-12 -28.5t-29 -11.5t-28.5 11.5t-11.5 28.5zM257 33q0 17 11.5 29t28.5 12t29 -12t12 -29t-12 -28.5t-29 -11.5t-28.5 11.5
t-11.5 28.5z" />
    <glyph glyph-name="perthousand" unicode="&#x2030;" horiz-adv-x="773" 
d="M29 511q0 58 7.5 93t20.5 54t30 24.5t36 5.5t36 -5.5t30 -24.5t20.5 -54t7.5 -93q0 -63 -7.5 -100.5t-20.5 -57.5t-30 -26t-36 -6t-36 6t-30 26t-20.5 57.5t-7.5 100.5zM321 188q0 58 7.5 93t20.5 54t30 24.5t36 5.5t36 -5.5t30 -24.5t20.5 -54t7.5 -93
q0 -63 -7.5 -100.5t-20.5 -57.5t-30 -26t-36 -6t-36 6t-30 26t-20.5 57.5t-7.5 100.5zM556 187q0 58 7.5 93t20.5 54t30 24.5t36 5.5t36 -5.5t30 -24.5t20.5 -54t7.5 -93q0 -63 -7.5 -100.5t-20.5 -57.5t-30 -26t-36 -6t-36 6t-30 26t-20.5 57.5t-7.5 100.5zM454 690
l-306 -689l-62 1l306 688h62zM79 511q0 -46 3.5 -73.5t9.5 -42.5t14 -19.5t17 -4.5t17 4.5t14 19.5t9.5 42.5t3.5 73.5q0 42 -3.5 67t-9.5 38.5t-14 17.5t-17 4t-17 -4t-14 -17.5t-9.5 -38.5t-3.5 -67zM372 188q0 -46 3.5 -73.5t9.5 -42.5t14 -19.5t17 -4.5t17 4.5t14 19.5
t9.5 42.5t3.5 73.5q0 42 -3.5 67t-9.5 38.5t-14 17.5t-17 4t-17 -4t-14 -17.5t-9.5 -38.5t-3.5 -67zM607 187q0 -46 3.5 -73.5t9.5 -42.5t14 -19.5t17 -4.5t17 4.5t14 19.5t9.5 42.5t3.5 73.5q0 42 -3.5 67t-9.5 38.5t-14 17.5t-17 4t-17 -4t-14 -17.5t-9.5 -38.5t-3.5 -67z
" />
    <glyph glyph-name="guilsinglleft" unicode="&#x2039;" horiz-adv-x="327" 
d="M246 3l-229 289l229 289l45 -39l-198 -250l198 -250z" />
    <glyph glyph-name="guilsinglright" unicode="&#x203a;" horiz-adv-x="326" 
d="M35 42l198 250l-198 250l45 39l229 -289l-229 -289z" />
    <glyph glyph-name="fraction" unicode="&#x2044;" horiz-adv-x="379" 
d="M371 689l-306 -689l-62 1l306 688h62z" />
    <glyph glyph-name="underscore" unicode="_" horiz-adv-x="570" 
d="M550 -6h-530v60h530v-60z" />
    <glyph glyph-name="AE" unicode="&#xc6;" horiz-adv-x="595" 
d="M197 689l96 -383q13 27 29.5 42t33.5 24q-12 9 -26.5 22.5t-27.5 31.5t-21.5 41.5t-8.5 53.5q0 47 13 79t35.5 52t52 28.5t62.5 8.5q65 0 102.5 -33t37.5 -87q0 -42 -23.5 -71.5t-65.5 -29.5q-40 0 -64 23t-24 55q0 12 1 16t2 6h50q-1 -1 -1 -3v-6q0 -18 9.5 -27t22.5 -9
q17 0 25 13.5t8 32.5q0 26 -21 44.5t-59 18.5q-46 0 -74 -26.5t-28 -83.5q0 -30 11 -52.5t26.5 -38t33.5 -23t32 -7.5h71v-58h-74q-13 0 -30.5 -10t-33 -30t-26 -49t-10.5 -67q0 -70 27.5 -101t74.5 -31q36 0 53 20t17 53q0 2 -0.5 4t-0.5 4v4h57q1 -2 2 -6q2 -8 2 -18
q0 -23 -7 -45t-22.5 -39t-40.5 -27.5t-60 -10.5q-61 0 -100.5 32t-59.5 110l-29 111h-128l-42 -247h-61l123 689h59zM128 306h103l-62 237z" />
    <glyph glyph-name="ae" unicode="&#xe6;" horiz-adv-x="533" 
d="M501 329h-213v-82q0 -60 7.5 -98t21 -59.5t31.5 -30t38 -8.5q36 0 50 20.5t14 52.5q0 2 -0.5 4t-0.5 4v4h57q1 -2 2 -6q2 -8 2 -18q0 -22 -7 -44t-22 -39t-39 -28t-58 -11q-39 0 -71.5 16t-53.5 59q-11 -26 -33 -49t-60 -23q-60 0 -99 41.5t-39 120.5q0 46 17 84t45 66
t64 46t74 26v59q0 31 0.5 65.5t-6 64t-24 49t-52.5 19.5t-49 -13.5t-14 -42.5v-6q0 -2 1 -3h-50q-1 1 -2 5t-1 17q0 39 29.5 68.5t85.5 29.5q47 0 75 -13.5t43 -42.5q20 33 46.5 44.5t55.5 11.5q42 0 68.5 -22t41 -62t20 -96t5.5 -124v-56zM441 385q0 55 -2.5 100t-11 77
t-23 49.5t-38.5 17.5q-15 0 -29.5 -7t-25 -28t-17 -59t-6.5 -99v-51h153zM228 316q-27 -7 -52.5 -21t-45 -34.5t-31 -47t-11.5 -58.5q0 -50 22 -76t56 -26q20 0 33.5 8t21.5 19.5t12 23t6 18.5q-5 26 -8 56.5t-3 68.5v69z" />
    <glyph glyph-name="aeacute" unicode="&#x1fd;" horiz-adv-x="526" 
d="M249 72q-6 -14 -15 -28.5t-21.5 -25.5t-29.5 -18t-38 -7q-23 0 -44 8t-37 24t-25.5 40t-9.5 55q0 41 17.5 73t46.5 54.5t65 36t74 18.5v13q-1 37 -5 63t-13 43t-24.5 25t-39.5 8q-35 0 -49 -13.5t-14 -42.5v-6q0 -2 1 -3h-50q-1 1 -2 5t-1 17q0 39 29.5 68.5t85.5 29.5
q43 0 70 -11.5t43 -35.5q18 29 43.5 38t53.5 9q42 0 68.5 -18.5t41 -51.5t20 -80t5.5 -104v-26h-203v-32q0 -45 6 -73t16.5 -44.5t25 -22.5t30.5 -6q36 0 50 20.5t14 52.5q0 2 -0.5 4t-0.5 4v4h57q1 -2 2 -6q2 -8 2 -18q0 -22 -7 -44t-22 -39t-39 -28t-58 -11
q-38 0 -69.5 17t-49.5 65zM232 242q-27 -4 -53 -14t-46 -25t-32 -36t-12 -47q0 -33 19.5 -50t48.5 -17q22 0 37 11t23 24.5t11.5 25.5t3.5 15v113zM360 449q-14 0 -26 -5t-21.5 -20.5t-15 -43.5t-5.5 -74v-21h143q-1 37 -4.5 67.5t-12 52t-22.5 33t-36 11.5zM331 710l44 -37
l-108 -132l-37 33z" />
    <glyph glyph-name="umacron" unicode="&#x16b;" horiz-adv-x="374" 
d="M266 0v48q-20 -18 -51.5 -36t-70.5 -18q-35 0 -54.5 15.5t-29.5 39t-12 51.5t-2 54v436h60v-435v-35t5 -32.5t17 -24t35 -9.5q29 0 56 14t47 28v494h60v-590h-60zM309 669h-244v50h244v-50z" />
    <glyph glyph-name="Umacron" unicode="&#x16a;" horiz-adv-x="418" 
d="M374 596v-345q0 -80 -13 -130t-35.5 -78.5t-52.5 -38.5t-64 -10t-64 10t-52.5 38.5t-35.5 78.5t-13 130v345h61v-345q0 -61 8 -99.5t22.5 -60t33.5 -29t40 -7.5t40 7.5t33.5 29t22.5 60t8 99.5v345h61zM332 660h-244v50h244v-50z" />
    <glyph glyph-name="Omacron" unicode="&#x14c;" horiz-adv-x="388" 
d="M36 373q0 72 13 117t34.5 69.5t50 33t60.5 8.5q31 0 60 -8.5t50.5 -33t34.5 -69.5t13 -117v-147q0 -72 -13 -117.5t-34.5 -71t-50.5 -34.5t-60 -9q-32 0 -60.5 9t-50 34.5t-34.5 71t-13 117.5v147zM291 373q0 53 -7.5 86t-21 51.5t-31 25t-37.5 6.5t-37.5 -6.5t-31 -25
t-21 -51.5t-7.5 -86v-147q0 -54 7.5 -87.5t21 -52.5t31 -26t37.5 -7t37.5 7t31 26t21 52.5t7.5 87.5v147zM317 659h-244v50h244v-50z" />
    <glyph glyph-name="omacron" unicode="&#x14d;" horiz-adv-x="452" 
d="M393 417q0 17 -7.5 29.5t-20.5 12.5q-2 0 -3 -0.5t-3 -0.5h-3v50q2 0 6 1q8 2 16 2q28 0 48 -26t20 -64q0 -48 -29.5 -79t-83.5 -41v-75q0 -74 -12 -119.5t-32.5 -71t-47.5 -34t-56 -8.5t-56 9t-47 34.5t-32 70.5t-12 119v133q0 75 12 122t32.5 72.5t47.5 34.5t56 9
t55.5 -9t47 -35t32.5 -72.5t12 -121.5v-1q27 7 43.5 22.5t16.5 36.5zM98 226q0 -55 7 -89t19 -52.5t28 -25t34 -6.5q17 0 33 6.5t28 25t19 52.5t7 89v71q-28 1 -54.5 9t-49 24.5t-40 41.5t-27.5 61q-2 -16 -3 -34t-1 -40v-133zM273 359q0 57 -7 92.5t-19 55.5t-28 27t-34 7
q-29 0 -49 -19q2 -45 14 -76.5t31 -51.5t42.5 -30t49.5 -12v7zM308 659h-244v50h244v-50z" />
    <glyph glyph-name="Lcaron" unicode="&#x13d;" horiz-adv-x="294" 
d="M110 511v-453h167v-58h-228v511h61zM164 729l44 -37l-108 -132h-37l-108 132l44 37l82 -111z" />
    <glyph glyph-name="lcaron" unicode="&#x13e;" horiz-adv-x="239" 
d="M57 688h60v-584q0 -29 14.5 -43.5t48.5 -14.5q9 0 12 1t4 2v-47q-4 -2 -9 -4t-13 -3t-22 -1q-43 0 -69 23.5t-26 86.5v584zM188 648q0 17 10.5 29t30.5 12q15 0 26.5 -12.5t11.5 -32.5q0 -14 -4 -31.5t-10.5 -34.5t-15.5 -32t-19 -24l-32 20q11 11 18 29.5t9 38.5
q-25 8 -25 38z" />
    <glyph glyph-name="Ldot" unicode="&#x13f;" horiz-adv-x="294" 
d="M110 689v-631h167v-58h-228v689h61zM124 353q0 34 17 58t54 24q38 0 55 -24t17 -58q0 -33 -17 -57t-55 -24q-37 0 -54 24t-17 57z" />
    <glyph glyph-name="ldot" unicode="&#x140;" horiz-adv-x="281" 
d="M57 688h60v-584q0 -29 14.5 -43.5t48.5 -14.5q9 0 12 1t4 2v-47q-4 -2 -9 -4t-13 -3t-22 -1q-43 0 -69 23.5t-26 86.5v584zM174 353q0 34 17 58t54 24q38 0 55 -24t17 -58q0 -33 -17 -57t-55 -24q-37 0 -54 24t-17 57z" />
    <glyph glyph-name="Emacron" unicode="&#x112;" horiz-adv-x="361" 
d="M92 167q0 -62 27.5 -87t74.5 -25q36 0 53 20t17 53q0 2 -0.5 4t-0.5 4v4h57q1 -2 2 -6q2 -8 2 -18q0 -23 -7 -45t-22.5 -39t-40.5 -27.5t-60 -10.5t-65 8.5t-51.5 29t-34 53.5t-12.5 82q0 36 8 61t20 43t27 29.5t29 19.5q-12 7 -26 18.5t-25.5 27.5t-19.5 36.5t-8 46.5
q0 44 13 74.5t35.5 49t52 26.5t62.5 8q65 0 102.5 -33t37.5 -87q0 -42 -23.5 -71.5t-65.5 -29.5q-40 0 -64 23t-24 55q0 12 1 16t2 6h50q-1 0 -1 -1v-8q0 -18 9.5 -27t22.5 -9q17 0 25 13.5t8 32.5q0 26 -21 44.5t-59 18.5q-46 0 -74 -24t-28 -76q0 -25 11 -44t26.5 -31.5
t33.5 -19t32 -6.5h71v-58h-79q-13 0 -30.5 -8t-33 -23.5t-26 -39t-10.5 -53.5zM313 661h-244v50h244v-50z" />
    <glyph glyph-name="emacron" unicode="&#x113;" horiz-adv-x="342" 
d="M97 221q0 -51 7 -83t19 -50.5t28 -25.5t34 -7q36 0 50 20.5t14 52.5q0 2 -0.5 4t-0.5 4v4h57q1 -2 2 -6q2 -8 2 -18q0 -22 -7 -44t-22 -39t-39 -28t-58 -11q-30 0 -57 10t-46.5 35.5t-31 69.5t-11.5 112v155q0 70 11.5 114t30.5 68.5t44 33t52 8.5q42 0 68.5 -20t41 -56
t20 -87t5.5 -112v-26h-213v-78zM97 355h153q-1 42 -4.5 76t-11.5 58t-22.5 37.5t-36.5 13.5q-15 0 -29.5 -6t-25 -23.5t-17 -50t-6.5 -84.5v-21zM292 660h-244v50h244v-50z" />
    <glyph glyph-name="Amacron" unicode="&#x100;" horiz-adv-x="348" 
d="M198 599l135 -599h-61l-49 217h-102l-44 -217h-61l123 599h59zM133 276h77l-40 177zM284 659h-244v50h244v-50z" />
    <glyph glyph-name="amacron" unicode="&#x101;" horiz-adv-x="355" 
d="M150 546q-35 0 -49 -13.5t-14 -42.5v-6q0 -2 1 -3h-50q-1 1 -2 5t-1 17q0 39 29.5 68.5t85.5 29.5q45 0 72.5 -12t43 -38t21 -67.5t5.5 -101.5v-272q0 -29 14.5 -46.5t48.5 -17.5q9 0 12 1t4 2v-47q-4 -2 -9 -4t-13 -3t-22 -1q-32 0 -54 13.5t-33 44.5q-14 -23 -37 -41
t-58 -18q-23 0 -44 10t-37 29.5t-25.5 49t-9.5 68.5q0 51 17.5 89.5t46.5 66.5t65 44t74 22v10q0 44 -3 75t-12 51t-25 29t-42 9zM157 53q22 0 36.5 10.5t22.5 24t11.5 25.5t4.5 16v182q-27 -5 -53 -17.5t-46 -33t-32 -48t-12 -62.5q0 -49 19.5 -73t48.5 -24zM281 662h-244
v50h244v-50z" />
    <glyph glyph-name="Hbar" unicode="&#x126;" horiz-adv-x="363" 
d="M311 689v-202h32v-50h-32v-437h-61v297h-137v-297h-61v437h-33v50h33v202h61v-202h137v202h61zM250 356v81h-137v-81h137z" />
    <glyph glyph-name="hbar" unicode="&#x127;" horiz-adv-x="368" 
d="M267 530h-154v-74q20 18 51 36t71 18q35 0 54.5 -15.5t29.5 -39t12 -52t2 -53.5v-350h-60v349v35t-5 32.5t-17 24t-35 9.5q-29 0 -56 -14t-47 -28v-408h-60v530h-30v50h30v110h60v-110h154v-50z" />
    <glyph glyph-name="Dcroat" unicode="&#x110;" horiz-adv-x="365" 
d="M71 689q54 0 101 -9.5t82 -36.5t55 -76t20 -129v-185q0 -80 -20 -129.5t-55 -77t-82 -37t-101 -9.5h-17v317h-47v50h47v322h17zM251 317h-136v-254q33 3 61 13t48.5 32t32 57t11.5 88v185q0 52 -11.5 86.5t-32 56t-48.5 32t-61 13.5v-259h136v-50z" />
    <glyph glyph-name="dcroat" unicode="&#x111;" horiz-adv-x="349" 
d="M21 185q0 58 17.5 103.5t46 78t64.5 52.5t74 27v66h-123v50h123v128h60v-128h61v-50h-61v-408q0 -29 14.5 -43.5t48.5 -14.5q9 0 12 1t4 2v-47q-4 -2 -9 -4t-13 -3t-22 -1q-31 0 -53 11t-33 40q-13 -21 -32.5 -36.5t-50.5 -15.5q-55 0 -91.5 49t-36.5 143zM149 53
q23 0 37.5 10.5t22.5 24.5q10 16 14 36v261q-27 -7 -53 -23.5t-45.5 -41.5t-31.5 -59t-12 -76q0 -64 19.5 -98t48.5 -34z" />
    <glyph glyph-name="Eng" unicode="&#x14a;" horiz-adv-x="367" 
d="M110 693l147 -498v498h61v-769q0 -80 -13 -130t-35 -78.5t-50.5 -38.5t-59.5 -10q-23 0 -48 8.5t-45.5 26.5t-33.5 47t-13 71q0 72 33 113.5t87 41.5q36 0 61 -20t25 -58q0 -36 -21.5 -59.5t-56.5 -23.5q-13 0 -17 1t-5 2v50q1 -1 3 -1h6q20 0 28 9t8 17q0 13 -8.5 18
t-22.5 5q-25 0 -42 -23.5t-17 -65.5q0 -27 7.5 -45.5t18.5 -30.5t25 -17t28 -5q19 0 37 7.5t31 29t21 60t8 99.5v80l-147 485v-485h-61v689h61z" />
    <glyph glyph-name="eng" unicode="&#x14b;" horiz-adv-x="356" 
d="M191 -260q-60 0 -95 36t-35 94q0 45 23.5 78t65.5 33q40 0 64 -26.5t24 -61.5q0 -8 -2 -16q-1 -4 -1 -6h-50v1q0 1 0.5 2.5t0.5 5.5q0 23 -9.5 34.5t-22.5 11.5q-17 0 -25 -16.5t-8 -39.5q0 -31 18.5 -52t51.5 -21q16 0 30 5t24.5 20t17 41.5t6.5 69.5v601v35t-5 32.5
t-17 24t-35 9.5q-29 0 -56 -14t-47 -28v-593h-60v688h60v-47q20 18 51 36t71 18q35 0 54.5 -15.5t29.5 -39t12 -52t2 -53.5v-602q0 -61 -11.5 -99t-30.5 -59t-44 -28t-52 -7z" />
    <glyph glyph-name="Euro" unicode="&#x20ac;" horiz-adv-x="368" 
d="M253 422h-132v-147h132v-56h-131q2 -51 11 -83.5t23.5 -51.5t32.5 -26t39 -7q19 0 40 4.5t35 19.5l33 -44q-22 -22 -49.5 -29.5t-58.5 -7.5q-32 0 -61.5 9t-52 33.5t-37 68.5t-17.5 114h-30v56h30v147h-30v56h31q4 66 18.5 107t37 64.5t51 31.5t60.5 8t61.5 -9t52.5 -34
l-35 -42q-19 14 -38.5 19t-40.5 5q-20 0 -38 -5.5t-32 -22t-23.5 -46t-12.5 -76.5h131v-56z" />
    <glyph glyph-name="fi" unicode="&#xfb01;" horiz-adv-x="415" 
d="M84 2v325h-72v58h72v51q0 80 14 129.5t37 77t53.5 37t63.5 9.5q65 0 102.5 -33t37.5 -87q0 -42 -23.5 -71.5t-65.5 -29.5q-40 0 -64 23t-24 55q0 12 1 16t2 6h50q-1 -1 -1 -3v-6q0 -18 9.5 -27t22.5 -9q17 0 25 13.5t8 32.5q0 26 -21 44.5t-59 18.5q-21 0 -40.5 -7.5
t-34.5 -29t-24 -60t-9 -99.5v-51h187v-281q0 -29 14.5 -43.5t48.5 -14.5q9 0 12 1t4 2v-47q-4 -2 -9 -4t-13 -3t-22 -1q-43 0 -69 23.5t-26 86.5v223h-127v-325h-60z" />
    <glyph glyph-name="fl" unicode="&#xfb02;" horiz-adv-x="421" 
d="M242 689q67 0 98.5 -42t31.5 -136v-407q0 -29 14.5 -43.5t48.5 -14.5q9 0 12 1t4 2v-47q-4 -2 -9 -4t-13 -3t-22 -1q-43 0 -69 23.5t-26 86.5v407q0 63 -15 92t-55 29q-20 0 -37.5 -7.5t-31 -29t-21.5 -60t-8 -99.5v-51h127v-58h-127v-325h-60v325h-72v58h72v51
q0 80 13 129.5t35 77t50.5 37t59.5 9.5z" />
    <glyph glyph-name="Gcommaaccent" unicode="&#x122;" horiz-adv-x="370" 
d="M279 273q0 30 -8 43t-25 13q-13 0 -22.5 -9t-9.5 -27v-6q0 -2 1 -3h-50q-1 2 -2 6t-1 16q0 32 24 55t64 23q42 0 65.5 -29t23.5 -82v-101q0 -49 -12 -83t-31 -55t-42 -30.5t-45 -9.5q-35 0 -66.5 10t-55 38.5t-37.5 78.5t-14 130v185q0 80 14 129.5t37.5 77t55 37
t66.5 9.5t60 -10.5t40.5 -27.5t22.5 -39t7 -45q0 -10 -2 -18q-1 -4 -2 -6h-57v4q0 2 0.5 4t0.5 4q0 33 -17 53t-53 20q-23 0 -43.5 -7t-35.5 -28t-24 -58.5t-9 -98.5v-185q0 -61 9 -99.5t24 -60t35.5 -29t43.5 -7.5q12 0 24.5 6.5t23 21t17 38t6.5 57.5zM152 -57
q0 17 10.5 29t30.5 12q15 0 26.5 -12t11.5 -29q0 -14 -3.5 -32t-10 -35.5t-15.5 -33.5t-20 -25l-32 20q11 11 18 30t10 38q-12 4 -19 14t-7 24z" />
    <glyph glyph-name="Kcommaaccent" unicode="&#x136;" horiz-adv-x="342" 
d="M110 689v-242l158 241h64l-165 -253l167 -435h-62l-144 374l-18 -28v-346h-61v689h61zM101 -57q0 17 10.5 29t30.5 12q15 0 26.5 -12t11.5 -29q0 -14 -3.5 -32t-10 -35.5t-15.5 -33.5t-20 -25l-32 20q11 11 18 30t10 38q-12 4 -19 14t-7 24z" />
    <glyph glyph-name="kcommaaccent" unicode="&#x137;" horiz-adv-x="340" 
d="M289 688q0 -128 -18 -201t-53 -110q33 -23 44.5 -79.5t11.5 -127.5q0 -22 1.5 -44t6 -40t13.5 -29.5t23 -11.5q5 0 7 1q2 0 3 1v-48q-1 -2 -4 -3q-5 -3 -16 -3q-28 0 -46 15.5t-28.5 40.5t-15 56.5t-4.5 63.5q0 34 -2 66t-7 56.5t-13 39t-20 15.5q-29 -12 -63 -15v-331
h-60v690h60v-308q29 5 51.5 22t37.5 51.5t23 91t8 141.5h60zM121 -57q0 17 10.5 29t30.5 12q15 0 26.5 -12t11.5 -29q0 -14 -3.5 -32t-10 -35.5t-15.5 -33.5t-20 -25l-32 20q11 11 18 30t10 38q-12 4 -19 14t-7 24z" />
    <glyph glyph-name="Lcommaaccent" unicode="&#x13b;" horiz-adv-x="294" 
d="M110 689v-631h167v-58h-228v689h61zM86 -57q0 17 10.5 29t30.5 12q15 0 26.5 -12t11.5 -29q0 -14 -3.5 -32t-10 -35.5t-15.5 -33.5t-20 -25l-32 20q11 11 18 30t10 38q-12 4 -19 14t-7 24z" />
    <glyph glyph-name="lcommaaccent" unicode="&#x13c;" horiz-adv-x="199" 
d="M57 688h60v-584q0 -29 14.5 -43.5t48.5 -14.5q9 0 12 1t4 2v-47q-4 -2 -9 -4t-13 -3t-22 -1q-43 0 -69 23.5t-26 86.5v584zM72 -57q0 17 10.5 29t30.5 12q15 0 26.5 -12t11.5 -29q0 -14 -3.5 -32t-10 -35.5t-15.5 -33.5t-20 -25l-32 20q11 11 18 30t10 38q-12 4 -19 14
t-7 24z" />
    <glyph glyph-name="Ncommaaccent" unicode="&#x145;" horiz-adv-x="367" 
d="M318 689v-689h-61l-147 485v-485h-61v689h61l147 -498v498h61zM133 -57q0 17 10.5 29t30.5 12q15 0 26.5 -12t11.5 -29q0 -14 -3.5 -32t-10 -35.5t-15.5 -33.5t-20 -25l-32 20q11 11 18 30t10 38q-12 4 -19 14t-7 24z" />
    <glyph glyph-name="ncommaaccent" unicode="&#x146;" horiz-adv-x="356" 
d="M329 0h-60v534v35t-5 32.5t-17 24t-35 9.5q-29 0 -56 -14t-47 -28v-593h-60v688h60v-47q20 18 51 36t71 18q35 0 54.5 -15.5t29.5 -39t12 -52t2 -53.5v-535zM136 -57q0 17 10.5 29t30.5 12q15 0 26.5 -12t11.5 -29q0 -14 -3.5 -32t-10 -35.5t-15.5 -33.5t-20 -25l-32 20
q11 11 18 30t10 38q-12 4 -19 14t-7 24z" />
    <glyph glyph-name="napostrophe" unicode="&#x149;" horiz-adv-x="405" 
d="M378 0h-60v534v35t-5 32.5t-17 24t-35 9.5q-29 0 -56 -14t-47 -28v-593h-60v688h60v-47q20 18 51 36t71 18q35 0 54.5 -15.5t29.5 -39t12 -52t2 -53.5v-535zM-20 664q0 17 10.5 29t30.5 12q15 0 26.5 -12t11.5 -29q0 -14 -3.5 -32t-10 -35.5t-15.5 -33.5t-20 -25l-32 20
q11 11 18 30t10 38q-12 4 -19 14t-7 24z" />
    <glyph glyph-name="Scommaaccent" unicode="&#x218;" horiz-adv-x="379" 
d="M79 148q0 -42 28 -67.5t77 -25.5q21 0 40.5 6.5t34.5 21t23.5 38.5t8.5 59q0 46 -19 77t-47 54.5t-61.5 44t-61.5 46t-47 59.5t-19 85q0 39 13 66.5t35.5 44.5t52 24.5t62.5 7.5q65 0 102.5 -33t37.5 -87q0 -42 -23.5 -71.5t-65.5 -29.5q-40 0 -64 23t-24 55q0 12 1 16
t2 6h50q-1 -1 -1 -3v-6q0 -18 9.5 -27t22.5 -9q17 0 25 13.5t8 32.5q0 26 -21 44.5t-59 18.5q-42 0 -72 -20t-30 -65q0 -41 19 -69t47 -50.5t61.5 -43t61.5 -47.5t47 -64.5t19 -92.5q0 -52 -14 -87.5t-37 -57.5t-53.5 -31.5t-63.5 -9.5q-76 0 -120.5 42.5t-44.5 111.5
q0 42 23.5 71.5t65.5 29.5q40 0 64 -23t24 -55q0 -8 -2 -16q-1 -4 -1 -6h-50v3q0 2 0.5 3t0.5 3q0 18 -9.5 27t-22.5 9q-17 0 -25 -13.5t-8 -32.5zM144 -57q0 17 10.5 29t30.5 12h4h5q15 0 26.5 -12t11.5 -29q0 -14 -3.5 -32t-10 -35.5t-15.5 -33.5t-20 -25l-6 4l-3 -4
l-32 20q11 11 18 30t10 38q-12 4 -19 14t-7 24z" />
    <glyph glyph-name="Rcommaaccent" unicode="&#x156;" horiz-adv-x="334" 
d="M66 689q57 0 101.5 -5.5t74.5 -23t46 -48.5t16 -82q0 -65 -25 -100t-75 -50l115 -380h-62l-111 368q-8 -1 -17.5 -1.5t-18.5 -0.5v-366h-61v689h17zM243 530q0 27 -8.5 44.5t-25.5 28.5t-42 16.5t-57 7.5v-199q66 4 99.5 25t33.5 77zM121 -57q0 17 10.5 29t30.5 12
q15 0 26.5 -12t11.5 -29q0 -14 -3.5 -32t-10 -35.5t-15.5 -33.5t-20 -25l-32 20q11 11 18 30t10 38q-12 4 -19 14t-7 24z" />
    <glyph glyph-name="rcommaaccent" unicode="&#x157;" horiz-adv-x="336" 
d="M268 171q0 -22 1.5 -44t6.5 -40t14 -29.5t23 -11.5q5 0 7 1q2 0 3 1v-48q-1 -2 -4 -3q-5 -3 -16 -3q-28 0 -46 15.5t-29 40.5t-15.5 56.5t-4.5 63.5q0 27 -2.5 52t-10 44t-20 30.5t-31.5 11.5q-17 -3 -35 -3v-305h-60v690q58 0 103 -6t75.5 -26.5t46 -59.5t15.5 -105
q0 -68 -18.5 -106t-55.5 -57q33 -24 43 -66t10 -93zM229 493q0 40 -7.5 65.5t-22.5 40.5t-37.5 21t-52.5 8v-264q33 1 56 7t37 20.5t20.5 39t6.5 62.5zM118 -57q0 17 10.5 29t30.5 12q15 0 26.5 -12t11.5 -29q0 -14 -3.5 -32t-10 -35.5t-15.5 -33.5t-20 -25l-32 20
q11 11 18 30t10 38q-12 4 -19 14t-7 24z" />
    <glyph glyph-name="scommaaccent" unicode="&#x219;" horiz-adv-x="369" 
d="M82 148q0 -42 25 -67.5t70 -25.5q21 0 40.5 6.5t34.5 21t23.5 38.5t8.5 59q0 46 -18 77t-45.5 54.5t-59 44t-59 46t-45.5 59.5t-18 85q0 39 13 66.5t35.5 44.5t52 24.5t62.5 7.5q60 0 95 -33t35 -87q0 -42 -23.5 -71.5t-65.5 -29.5q-40 0 -64 23t-24 55q0 12 1 16t2 6h50
q-1 -1 -1 -3v-6q0 -18 9.5 -27t22.5 -9q17 0 25 13.5t8 32.5q0 26 -18.5 44.5t-51.5 18.5q-42 0 -72 -20t-30 -65q0 -41 18 -69t45.5 -50.5t59 -43t59 -47.5t45.5 -64.5t18 -92.5q0 -52 -14 -87.5t-37 -57.5t-53.5 -31.5t-63.5 -9.5q-72 0 -113.5 42.5t-41.5 111.5
q0 60 33 95t87 35q42 0 71.5 -24t29.5 -71q0 -41 -23 -61.5t-55 -20.5q-12 0 -16 1t-6 2v50q1 -1 3 -1h6q18 0 27 9t9 20q0 19 -13.5 27.5t-32.5 8.5q-26 0 -43 -18.5t-17 -51.5zM144 -57q0 17 10.5 29t30.5 12q15 0 26.5 -12t11.5 -29q0 -14 -3.5 -32t-10 -35.5
t-15.5 -33.5t-20 -25l-32 20q11 11 18 30t10 38q-12 4 -19 14t-7 24z" />
    <glyph glyph-name="Tcommaaccent" unicode="&#x162;" horiz-adv-x="301" 
d="M180 629v-631h-61v631h-103v59h269v-59h-105zM97 -57q0 17 10.5 29t30.5 12q15 0 26.5 -12t11.5 -29q0 -14 -3.5 -32t-10 -35.5t-15.5 -33.5t-20 -25l-32 20q11 11 18 30t10 38q-12 4 -19 14t-7 24z" />
    <glyph glyph-name="tcommaaccent" unicode="&#x163;" horiz-adv-x="323" 
d="M210 50q33 0 51.5 20t18.5 51q0 23 -8 39.5t-25 16.5q-13 0 -22.5 -11.5t-9.5 -34.5v-8q0 -1 1 -1h-50q-1 2 -2 6t-1 16q0 35 24 61.5t64 26.5q42 0 65.5 -33t23.5 -78q0 -58 -35 -94t-95 -36q-27 0 -52 7t-44 28t-30.5 59t-11.5 99v229h-66v57h66v218h60v-218h133v-57
h-133v-229q0 -43 6.5 -69.5t17 -40.5t24.5 -19t30 -5zM149 -67q0 17 10.5 29t30.5 12q15 0 26.5 -12t11.5 -29q0 -14 -3.5 -32t-10 -35.5t-15.5 -33.5t-20 -25l-32 20q11 11 18 30t10 38q-12 4 -19 14t-7 24z" />
    <glyph glyph-name="tcaron" unicode="&#x165;" horiz-adv-x="323" 
d="M210 50q33 0 51.5 20t18.5 51q0 23 -8 39.5t-25 16.5q-13 0 -22.5 -11.5t-9.5 -34.5v-8q0 -1 1 -1h-50q-1 2 -2 6t-1 16q0 35 24 61.5t64 26.5q42 0 65.5 -33t23.5 -78q0 -58 -35 -94t-95 -36q-27 0 -52 7t-44 28t-30.5 59t-11.5 99v229h-66v57h66v218h60v-218h133v-57
h-133v-229q0 -43 6.5 -69.5t17 -40.5t24.5 -19t30 -5zM177 648q0 17 10.5 29t30.5 12q15 0 26.5 -12.5t11.5 -32.5q0 -14 -4 -31.5t-10.5 -34.5t-15.5 -32t-19 -24l-32 20q11 11 18 29.5t9 38.5q-25 8 -25 38z" />
    <glyph glyph-name="kgreenlandic" unicode="&#x138;" horiz-adv-x="340" 
d="M289 688q0 -128 -18 -201t-53 -110q33 -23 44.5 -79.5t11.5 -127.5q0 -22 1.5 -44t6 -40t13.5 -29.5t23 -11.5q5 0 7 1q2 0 3 1v-48q-1 -2 -4 -3q-5 -3 -16 -3q-28 0 -46 15.5t-28.5 40.5t-15 56.5t-4.5 63.5q0 34 -2 66t-7 56.5t-13 39t-20 15.5q-29 -12 -63 -15v-331
h-60v690h60v-308q29 5 51.5 22t37.5 51.5t23 91t8 141.5h60z" />
    <glyph glyph-name="AEacute" unicode="&#x1fc;" horiz-adv-x="548" 
d="M193 510l83 -285q13 17 29 27t31 17q-12 7 -26.5 16.5t-27.5 23.5t-21.5 33t-8.5 43q0 36 11.5 60.5t31 39.5t45.5 21.5t55 6.5q56 0 88 -29.5t32 -74.5q0 -38 -20.5 -62.5t-58.5 -24.5q-35 0 -56.5 20t-21.5 48q0 13 1 17t2 5h50q-1 0 -1 -1v-8q0 -26 22 -26q23 0 23 32
q0 19 -15.5 33t-44.5 14q-37 0 -59.5 -17t-22.5 -53q0 -23 9 -39.5t21.5 -27t27 -16t25.5 -5.5h51v-58h-54q-11 0 -24.5 -6.5t-26 -19.5t-21 -32.5t-8.5 -45.5q0 -82 82 -82q31 0 45.5 14.5t14.5 38.5q0 2 -0.5 4t-0.5 4v4h57q1 -2 2 -6q2 -8 2 -18q0 -19 -6.5 -37.5
t-21 -32.5t-37 -23t-55.5 -9q-48 0 -84 18t-50 63l-32 103h-111l-39 -177h-61l116 510h59zM131 236h80l-47 151zM315 710l44 -37l-108 -132l-37 33z" />
    <glyph glyph-name="longs" unicode="&#x17f;" horiz-adv-x="406" 
d="M241 689q60 0 95 -33t35 -87q0 -42 -23.5 -71.5t-65.5 -29.5q-40 0 -64 23t-24 55q0 12 1 16t2 6h50q-1 -1 -1 -3v-6q0 -18 9.5 -27t22.5 -9q17 0 25 13.5t8 32.5q0 26 -18.5 44.5t-51.5 18.5q-20 0 -37.5 -7.5t-31 -29t-21.5 -60t-8 -99.5v-434h-60v325h-72v58h72v51
q0 80 13 129.5t35 77t50.5 37t59.5 9.5z" />
    <glyph glyph-name="onethird" unicode="&#x2153;" horiz-adv-x="517" 
d="M308 362h176v-50l-73 -102q32 -8 51 -34t19 -76q0 -32 -7 -52.5t-19 -32.5t-28 -16.5t-34 -4.5t-34 5t-28 18.5t-19 37t-7 59.5h50q0 -42 11 -56t27 -14t27 11.5t11 44.5q0 35 -14.5 49t-37.5 15l-31 42l74 106h-114v50zM120 689v-365h-51v254l-22 -47l-41 24l63 134h51z
M442 689l-306 -689l-62 1l306 688h62z" />
    <glyph glyph-name="Tbar" unicode="&#x166;" horiz-adv-x="313" 
d="M272 488h-86v-488h-61v488h-97v50h97v93h-103v59h269v-59h-105v-93h86v-50z" />
    <glyph glyph-name="tbar" unicode="&#x167;" horiz-adv-x="359" 
d="M267 350v-57h-133v-109q0 -43 6.5 -69.5t17 -41.5t24.5 -20t30 -5q33 0 51.5 21t18.5 52q0 23 -8 39.5t-25 16.5q-13 0 -22.5 -11.5t-9.5 -34.5v-8q0 -1 1 -1h-50q-1 2 -2 6t-1 16q0 35 24 61.5t64 26.5q42 0 65.5 -33t23.5 -78q0 -58 -35 -94t-95 -36q-27 0 -52 7
t-44 28t-30.5 59t-11.5 99v109h-66v57h66v63h-66v57h66v218h60v-218h133v-57h-133v-63h133z" />
    <glyph glyph-name="ff" unicode="&#xfb00;" horiz-adv-x="599" 
d="M459 689q60 0 95 -33t35 -87q0 -42 -23.5 -71.5t-65.5 -29.5q-40 0 -64 23t-24 55q0 12 1 16t2 6h50q-1 -1 -1 -3v-6q0 -18 9.5 -27t22.5 -9q17 0 25 13.5t8 32.5q0 26 -18.5 44.5t-51.5 18.5q-20 0 -37.5 -7.5t-31 -29t-21.5 -60t-8 -99.5v-51h127v-58h-127v-325h-60
v325h-156v-325h-60v325h-72v58h72v51q0 80 13 129.5t35 77t50.5 37t59.5 9.5q35 0 62 -12t44 -34q22 27 50 36.5t60 9.5zM284 468q-40 0 -64 23t-24 55q0 12 1 16t2 6h50q-1 -1 -1 -3v-6q0 -18 9.5 -27t22.5 -9q18 0 25.5 16t7.5 30q0 26 -18.5 44.5t-51.5 18.5
q-20 0 -37.5 -7.5t-31 -29t-21.5 -60t-8 -99.5v-51h156v84q-4 -1 -8 -1h-9z" />
    <glyph glyph-name="ffi" unicode="&#xfb03;" horiz-adv-x="634" 
d="M241 689q36 0 63 -12.5t44 -34.5q23 28 54 37.5t64 9.5q65 0 102.5 -33t37.5 -87q0 -42 -23.5 -71.5t-65.5 -29.5q-40 0 -64 23t-24 55q0 12 1 16t2 6h50q-1 -1 -1 -3v-6q0 -18 9.5 -27t22.5 -9q17 0 25 13.5t8 32.5q0 26 -21 44.5t-59 18.5q-21 0 -40.5 -7.5t-34.5 -29
t-24 -60t-9 -99.5v-51h187v-281q0 -29 14.5 -43.5t48.5 -14.5q9 0 12 1t4 2v-47q-4 -2 -9 -4t-13 -3t-22 -1q-43 0 -69 23.5t-26 86.5v223h-127v-325h-60v325h-155v-325h-60v325h-72v58h72v51q0 80 13 129.5t35 77t50.5 37t59.5 9.5zM298 385v84q-5 -1 -16 -1q-40 0 -64 23
t-24 55q0 12 1 16t2 6h50q-1 -1 -1 -3v-6q0 -18 9.5 -27t22.5 -9q18 0 25.5 16t7.5 30q0 26 -18.5 44.5t-51.5 18.5q-20 0 -37.5 -7.5t-31 -29t-21.5 -60t-8 -99.5v-51h155z" />
    <glyph glyph-name="ffl" unicode="&#xfb04;" horiz-adv-x="659" 
d="M242 689q35 0 62.5 -12.5t44.5 -34.5q22 28 50 37.5t60 9.5q67 0 98.5 -42t31.5 -136v-407q0 -29 14.5 -43.5t48.5 -14.5q9 0 12 1t4 2v-47q-4 -2 -9 -4t-13 -3t-22 -1q-43 0 -69 23.5t-26 86.5v407q0 63 -15 92t-55 29q-20 0 -37.5 -7.5t-31 -29t-21.5 -60t-8 -99.5v-51
h127v-58h-127v-325h-60v325h-157v-325h-60v325h-72v58h72v51q0 80 13 129.5t35 77t50.5 37t59.5 9.5zM301 385v85q-5 -1 -9 -1.5t-9 -0.5q-40 0 -64 23t-24 55q0 12 1 16t2 6h50q-1 -1 -1 -3v-6q0 -18 9.5 -27t22.5 -9q17 0 25 13.5t8 32.5q0 26 -18.5 44.5t-51.5 18.5
q-20 0 -37.5 -7.5t-31 -29t-21.5 -60t-8 -99.5v-51h157z" />
    <glyph glyph-name="imacron" unicode="&#x12b;" horiz-adv-x="152" 
d="M108 597v-597h-61v597h61zM202 660h-244v50h244v-50z" />
    <glyph glyph-name="trademark" unicode="&#x2122;" horiz-adv-x="510" 
d="M315 402l-44 128v-246h-50v356h-44v-356h-51v356h-83v49h228l68 -211l68 211h50v-405h-50v246l-45 -128h-47z" />
    <glyph glyph-name="pi" unicode="&#x3c0;" horiz-adv-x="489" 
d="M478 630h-98v-532q0 -52 63 -52q9 0 12 1t4 2v-47q-4 -2 -9 -4t-13 -3t-22 -1q-52 0 -73.5 27.5t-21.5 78.5v530h-153v-630h-60v630h-92v60h463v-60z" />
    <glyph glyph-name="Omega" unicode="&#x2126;" horiz-adv-x="537" 
d="M495 0h-191v15q14 16 37 48.5t45.5 77t38.5 100.5t16 121q0 69 -13 118.5t-36 82t-54.5 47.5t-69.5 15t-69.5 -15t-54 -47.5t-35.5 -82t-13 -118.5q0 -63 15.5 -118.5t37 -100t44 -77t37.5 -49.5l1 -17h-189v47h112q-14 15 -34 41.5t-38.5 65t-32 90.5t-13.5 118
q0 85 17 146t48 100.5t73.5 58t93.5 18.5t94 -18.5t74 -58t48 -100.5t17 -146q0 -72 -14 -124t-33 -89.5t-38 -61.5t-29 -40h108v-47z" />
    <glyph glyph-name="partialdiff" unicode="&#x2202;" horiz-adv-x="436" 
d="M231 638q-15 0 -26 -3t-19 -7q-9 -4 -15 -10l-19 39q11 9 26 16q12 6 29.5 11.5t38.5 5.5q42 0 71 -24t46.5 -63t25.5 -89t8 -103q0 -39 -4.5 -85.5t-14.5 -92.5t-26 -89.5t-40 -76.5t-56 -53t-73 -20q-39 0 -69 13.5t-50 37t-30 56t-10 70.5q0 36 13.5 77t38.5 76.5
t60.5 59t79.5 23.5t72 -21.5t44 -52.5q2 20 3 39.5t1 38.5q0 49 -4.5 90.5t-16.5 72t-32.5 47.5t-51.5 17zM216 347q-31 0 -55 -16t-41 -41t-26 -56.5t-9 -62.5q0 -62 27.5 -91t70.5 -29q26 0 47.5 16.5t38.5 44t30 64.5t21 78q-12 93 -104 93z" />
    <glyph glyph-name="Delta" horiz-adv-x="441" 
d="M244 689l178 -689h-403l170 689h55zM95 59h250l-128 488z" />
    <glyph glyph-name="product" unicode="&#x220f;" horiz-adv-x="377" 
d="M334 630h-15v-630h-60v630h-140v-630h-60v630h-19v60h294v-60z" />
    <glyph glyph-name="summation" unicode="&#x2211;" horiz-adv-x="453" 
d="M414 60v-60h-384v60l159 285l-159 284v60h384v-60h-314l159 -284l-161 -285h316z" />
    <glyph glyph-name="minus" unicode="&#x2212;" horiz-adv-x="414" 
d="M378 278h-340v60h340v-60z" />
    <glyph glyph-name="radical" unicode="&#x221a;" horiz-adv-x="683" 
d="M234 -95l-130 544h-83v61h130l115 -480l188 782h217v-52h-168l-207 -855h-62z" />
    <glyph glyph-name="infinity" unicode="&#x221e;" horiz-adv-x="861" 
d="M428 252q-10 -23 -24.5 -44t-38.5 -37t-59 -25.5t-86 -9.5q-90 0 -137.5 44t-47.5 119t48 119t137 44q51 0 86.5 -8.5t59.5 -22.5t39 -33t25 -41q10 21 25 40.5t39 34.5t59 23.5t86 8.5q89 0 137 -44t48 -119t-47.5 -119t-137.5 -44q-51 0 -86.5 9t-59.5 24.5t-39.5 36
t-25.5 44.5zM218 193q46 0 77 10t52 26.5t33.5 37.5t20.5 42q-8 17 -20.5 34t-33 30.5t-52 22t-77.5 8.5q-60 0 -91 -30t-31 -75t31 -75.5t91 -30.5zM641 195q60 0 91 30.5t31 75.5t-31 75t-91 30q-46 0 -77.5 -9t-52 -24t-33 -34t-20.5 -38q8 -19 20.5 -38t33.5 -34
t52 -24.5t77 -9.5z" />
    <glyph glyph-name="integral" unicode="&#x222b;" horiz-adv-x="517" 
d="M290 133q0 -78 -12 -127t-33 -76t-49 -36.5t-59 -9.5q-56 0 -88 33t-32 87q0 42 23.5 71.5t65.5 29.5q40 0 64 -23t24 -55q0 -8 -2 -16q-1 -4 -1 -6h-50v3q0 2 0.5 3t0.5 3q0 18 -9.5 27t-22.5 9q-17 0 -25 -13.5t-8 -32.5q0 -26 15.5 -44.5t44.5 -18.5q18 0 35 7.5
t29.5 28.5t20 58t7.5 97v314q0 78 12 127t33 76t49 36.5t59 9.5q56 0 88 -33t32 -87q0 -42 -23.5 -71.5t-65.5 -29.5q-35 0 -56.5 23t-21.5 55q0 12 1 16t2 6h50q-1 -1 -1 -3v-6q0 -36 27 -36q14 0 21 13.5t7 32.5q0 26 -15.5 44.5t-44.5 18.5q-19 0 -36 -7.5t-29.5 -28.5
t-19.5 -58.5t-7 -97.5v-313z" />
    <glyph glyph-name="approxequal" unicode="&#x2248;" horiz-adv-x="586" 
d="M47 267q17 35 43 62q22 23 54 42.5t74 19.5q34 0 60 -16.5t49 -36t47.5 -36t56.5 -16.5q35 0 57.5 16.5t34.5 36.5q14 24 21 54l49 -18q-11 -42 -32 -75q-18 -28 -49.5 -51t-80.5 -23q-36 0 -63 16.5t-50 36t-46.5 36t-53.5 16.5q-35 0 -59.5 -15t-40.5 -33
q-18 -21 -31 -48zM46 421q17 35 43 62q22 23 54 42.5t74 19.5q34 0 60 -16.5t49 -36t47.5 -36t56.5 -16.5q35 0 57.5 16.5t34.5 36.5q14 24 21 54l49 -18q-11 -42 -32 -75q-18 -28 -49.5 -51t-80.5 -23q-36 0 -63 16.5t-50 36t-46.5 36t-53.5 16.5q-35 0 -59.5 -15
t-40.5 -33q-18 -21 -31 -48z" />
    <glyph glyph-name="notequal" unicode="&#x2260;" horiz-adv-x="468" 
d="M422 438h-128l-45 -103h173v-60h-199l-84 -192l-62 1l84 191h-112v60h138l45 103h-183v60h210l55 125h62l-55 -125h101v-60z" />
    <glyph glyph-name="lessequal" unicode="&#x2264;" horiz-adv-x="433" 
d="M357 105l-316 217v26l316 217l26 -53l-254 -177l254 -177zM389 0h-350v60h350v-60z" />
    <glyph glyph-name="greaterequal" unicode="&#x2265;" horiz-adv-x="437" 
d="M50 156l253 177l-253 177l26 53l316 -217v-26l-316 -217zM44 58h350v-60h-350v60z" />
    <glyph glyph-name="lozenge" unicode="&#x25ca;" horiz-adv-x="417" 
d="M181 689h56l163 -345l-163 -344h-56l-163 344zM209 71l129 273l-129 274l-129 -274z" />
    <glyph glyph-name="Imacron" unicode="&#x12a;" horiz-adv-x="158" 
d="M109 561v-561h-61v561h61zM198 642h-244v50h244v-50z" />
    <glyph glyph-name="dotlessj" unicode="&#x237;" horiz-adv-x="335" 
d="M148 -4q-60 0 -95 36t-35 94q0 45 23.5 78t65.5 33q40 0 64 -26.5t24 -61.5q0 -8 -2 -16q-1 -4 -1 -6h-50v1q0 1 0.5 2.5t0.5 5.5q0 23 -9.5 34.5t-22.5 11.5q-17 0 -25 -16.5t-8 -39.5q0 -31 18.5 -52t51.5 -21q16 0 30 5t24.5 20t17 41.5t6.5 69.5v367h60v-367
q0 -61 -11.5 -99t-30.5 -59t-44 -28t-52 -7z" />
    <glyph glyph-name="commaaccent" unicode="&#xf6c3;" horiz-adv-x="237" 
d="M84 -57q0 17 10.5 29t30.5 12q15 0 26.5 -12t11.5 -29q0 -14 -3.5 -32t-10 -35.5t-15.5 -33.5t-20 -25l-32 20q11 11 18 30t10 38q-12 4 -19 14t-7 24z" />
    <glyph glyph-name="commaaccent.cap" horiz-adv-x="112" 
d="M7 -57q0 17 10.5 29t30.5 12q15 0 26.5 -12t11.5 -29q0 -14 -3.5 -32t-10 -35.5t-15.5 -33.5t-20 -25l-32 20q11 11 18 30t10 38q-12 4 -19 14t-7 24z" />
    <glyph glyph-name="apple" horiz-adv-x="-245" 
d="M-133 191q0 20 -13.5 35t-30 30.5t-30 34.5t-13.5 48q0 23 12.5 37.5t33.5 14.5q15 0 25.5 -5.5t16.5 -12.5q0 32 -6 61q-20 -11 -43 -11t-40.5 13t-17.5 36q0 19 13.5 30.5t34.5 11.5q23 0 38.5 -13.5t24.5 -36.5q20 20 31 55.5t11 78.5h17q0 -51 -13.5 -91t-39.5 -62
q4 -17 6.5 -35t2.5 -37q18 18 42 18q21 0 33.5 -14.5t12.5 -37.5q0 -29 -14 -48t-30.5 -34.5t-30.5 -30.5t-14 -35h-19zM-181 442q22 0 38 10q-7 19 -18.5 31t-30.5 12q-14 0 -21 -6.5t-7 -15.5q0 -14 10.5 -22.5t28.5 -8.5z" />
    <glyph glyph-name="uni00A0" unicode="&#xa0;" horiz-adv-x="419" 
 />
    <glyph glyph-name="L_a" horiz-adv-x="469" 
d="M266 634q-43 0 -43 -56v-6q0 -2 1 -3h-50q-1 1 -2 5t-1 17q0 39 22.5 68.5t72.5 29.5q39 0 62.5 -12t37 -38t18 -67.5t4.5 -101.5v-255q0 -29 12 -46.5t41 -17.5q9 0 12 1t4 2v-47q-4 -2 -9 -4t-13 -3t-22 -1q-26 0 -44.5 11t-29.5 36q-8 -20 -23 -34t-41 -14
q-48 0 -77.5 37t-29.5 105q0 42 13.5 74t35.5 55.5t51 38.5t60 22v40q0 44 -2 75t-9 51t-19 29t-32 9zM110 689v-632h347v-57h-408v689h61zM328 367q-40 -12 -70 -43.5t-30 -83.5q0 -40 13.5 -61t33.5 -21q17 0 27 8.5t16 19.5q7 12 10 28v153z" />
    <glyph glyph-name="L_e" horiz-adv-x="450" 
d="M368 221q0 2 -0.5 3t-0.5 3v3h50q0 -1 1 -5q2 -8 2 -17q0 -51 -25 -80t-70 -29q-27 0 -51 8.5t-43 32.5t-30 66.5t-11 111.5v157q0 69 10 111.5t26 66.5t37 32.5t44 8.5q37 0 59.5 -19t34.5 -54t15.5 -83.5t3.5 -108.5v-10h-170v-101q0 -51 6 -82.5t15 -49.5t20.5 -24.5
t22.5 -6.5q29 0 41.5 19t12.5 47zM110 689v-633h331v-56h-392v689h61zM307 634q-11 0 -21.5 -6t-18.5 -23t-12.5 -48t-4.5 -82h109q-2 73 -12.5 116t-39.5 43z" />
    <glyph glyph-name="L_i" horiz-adv-x="321" 
d="M110 689v-633h216v-56h-277v689h61zM187 562h60v-354q0 -29 14.5 -43.5t48.5 -14.5q9 0 12 1t4 2v-47q-4 -2 -9 -4t-13 -3t-22 -1q-43 0 -69 23.5t-26 86.5v354zM172 647q0 19 12.5 32t31.5 13t32 -13t13 -32t-13 -31.5t-32 -12.5t-31.5 12.5t-12.5 31.5z" />
    <glyph glyph-name="L_o" horiz-adv-x="513" 
d="M469 573q0 2 -0.5 3t-0.5 3v3h50q0 -1 1 -5q2 -8 2 -17q0 -44 -19.5 -73t-53.5 -39v-132q0 -68 -10.5 -111t-28.5 -67t-41.5 -32.5t-48.5 -8.5q-26 0 -49.5 8.5t-41.5 32.5t-28.5 66.5t-10.5 111.5v154q0 69 10.5 111.5t28.5 66.5t41 33t49 9q24 0 46 -7t39.5 -27
t29 -55.5t14.5 -92.5q22 16 22 65zM110 689v-633h337v-56h-398v689h61zM249 316q0 -51 5.5 -82.5t15 -49.5t22.5 -24.5t27 -6.5t26.5 6.5t22 24.5t15 50t5.5 82v128q-48 4 -83.5 28t-50.5 76q-2 -16 -3.5 -35.5t-1.5 -42.5v-154zM318 634q-18 0 -31 -10q2 -60 31 -89t69 -35
q-2 41 -8 67t-15 41t-21 20.5t-25 5.5z" />
    <glyph glyph-name="L_u" horiz-adv-x="480" 
d="M370 101v42q-17 -17 -40 -32.5t-52 -15.5q-32 0 -49.5 15.5t-26 39t-10.5 51.5t-2 54v435h60v-434v-35t4 -32.5t14 -24t29 -9.5q20 0 39 11.5t34 24.5v499h60v-589h-60zM110 689v-632h327v-57h-388v689h61z" />
    <glyph glyph-name="ampersand.alt" horiz-adv-x="593" 
d="M491 297q0 -1 1 -1h-50q-1 1 -2 5t-1 17q0 31 16 53.5t55 22.5q36 0 56.5 -23.5t20.5 -62.5q0 -42 -27 -71t-72 -29q-14 0 -28.5 4t-27.5 9t-22.5 10t-13.5 7q10 -29 10 -64q0 -88 -43 -134t-132 -46q-37 0 -70 11t-58 34.5t-40 60t-15 87.5q0 52 9.5 87.5t23.5 59
t31.5 37.5t34.5 23q-14 6 -28.5 15.5t-27 25.5t-20.5 40t-8 59q0 42 12.5 71.5t33 48t46.5 27t53 8.5q68 0 103 -33t35 -87q0 -6 -0.5 -10t-1.5 -7q-1 -4 -1 -5h-50v3q0 2 0.5 3t0.5 3q0 13 -5 26t-15.5 23t-27 16.5t-38.5 6.5q-15 0 -30 -4.5t-27 -15.5t-19.5 -30t-7.5 -48
q0 -27 7 -47t18 -33.5t24.5 -20.5t26.5 -7h68v-56h-68q-17 0 -33 -10.5t-29 -32.5t-21 -56t-8 -80q0 -68 35.5 -102t86.5 -34q59 0 87 28.5t28 94.5q0 42 -19 71t-53 29q-26 0 -40.5 -18.5t-14.5 -50.5q0 -25 7.5 -37t18.5 -12q14 0 17 10.5t3 21.5q0 2 -0.5 3t-0.5 3v3h50
q0 -1 1 -5q2 -8 2 -17q0 -33 -17.5 -54.5t-52.5 -21.5q-44 0 -66 28t-22 76q0 60 30.5 93.5t84.5 33.5q30 0 56.5 -10.5t52 -22.5t51 -22.5t54.5 -10.5q18 0 28.5 13.5t10.5 30.5q0 12 -4 21t-15 9q-8 0 -12.5 -9t-4.5 -24v-8z" />
    <glyph glyph-name="C.swash" horiz-adv-x="360" 
d="M97 251q0 -60 8.5 -98t22.5 -59.5t33.5 -30t42.5 -8.5q36 0 50 20.5t14 52.5q0 2 -0.5 4t-0.5 4v4h57q1 -2 2 -6q2 -8 2 -18q0 -22 -7 -44t-22 -39t-39 -28t-58 -11q-35 0 -65 11.5t-52.5 40.5t-35.5 78.5t-13 126.5v185q0 67 10 112.5t27 74t41 43t51 19.5
q18 81 59.5 148.5t101 116.5t132.5 76.5t153 27.5q28 0 52 -5t44 -13q8 11 17 22t20 21q-46 36 -90.5 76.5t-91 80.5t-96 76.5t-106 64.5t-121.5 44.5t-142 16.5q-64 0 -115.5 -18.5t-88 -50.5t-56.5 -74t-20 -89q0 -53 14.5 -87.5t35 -54.5t43.5 -28t41 -8q59 0 93 41
t34 104q0 2 -0.5 3t-0.5 3v3h50q0 -1 1 -5q2 -8 2 -17q0 -37 -11 -71t-33.5 -60t-56 -41.5t-78.5 -15.5q-27 0 -60.5 10t-63 36t-50 71.5t-20.5 116.5q0 59 24 111.5t68.5 92t107.5 62.5t140 23q87 0 159 -18.5t133 -49t113.5 -70t100.5 -82t93.5 -84.5t92.5 -78
q42 27 97 42.5t125 15.5q57 0 93.5 -11.5t57.5 -29t29 -37t8 -35.5q0 -19 -6.5 -38t-21.5 -34t-40.5 -24t-63.5 -9q-81 0 -147 25t-126 65q-21 -18 -36 -39q32 -29 48 -68.5t16 -82.5q0 -21 -5 -42t-15 -37.5t-26 -26.5t-38 -10q-37 0 -59 37.5t-22 94.5q0 30 5.5 59.5
t17.5 56.5q-31 13 -67 13q-68 0 -130 -23.5t-113 -64.5t-88 -98t-54 -124q52 -5 81.5 -37.5t29.5 -81.5q0 -54 -21.5 -82.5t-69.5 -28.5q-38 0 -66 29t-28 92v18t1 19q-26 -15 -42 -55.5t-16 -124.5v-185zM1067 1009q35 0 53.5 15t18.5 34q0 7 -4.5 17t-18.5 19t-39 15
t-66 6q-52 0 -94 -10t-76 -28q50 -31 105 -49.5t121 -18.5zM214 579q0 -34 9.5 -50t22.5 -16q17 0 25 16.5t8 39.5q0 25 -16.5 41t-45.5 18q-3 -24 -3 -49zM717 869q0 -35 7 -55.5t18 -20.5q6 0 10 6t6.5 14t3 17.5t0.5 17.5q0 59 -32 100q-13 -38 -13 -79z" />
    <glyph glyph-name="D.swash" horiz-adv-x="381" 
d="M172 1099q0 13 1 17t2 5h50q-1 -1 -1 -3v-6q0 -45 10.5 -88t35 -76.5t65.5 -53.5t102 -20q52 0 98 21.5t80 63t54 102.5t20 139q0 52 -15.5 106t-46 105t-76 96t-105.5 78.5t-134 53t-161 19.5q-110 0 -199 -25t-153 -72t-98.5 -115t-34.5 -153q0 -55 19 -102t56 -79
q26 30 62 48.5t84 18.5q29 0 49 -8.5t32.5 -21.5t18 -28.5t5.5 -28.5q0 -34 -30.5 -58t-87.5 -24q-63 0 -114 23q-9 -23 -14 -47t-5 -49q0 -40 12 -75t33 -61t50 -41t64 -15h19q-9 31 -9 71q0 46 24 72.5t62 26.5q23 0 37.5 -9.5t23 -24.5t11.5 -32t3 -32q0 -10 -2.5 -24
t-9.5 -28.5t-20 -28.5t-33 -25q25 -22 64 -22h17q54 0 101 -9.5t82 -36.5t55 -76t20 -129v-185q0 -80 -20 -129.5t-55 -77t-82 -37t-101 -9.5h-17v633q-44 0 -75.5 15.5t-51.5 44.5q-20 -3 -43 -3q-48 0 -88 18.5t-69.5 51.5t-45.5 78t-16 99q0 67 28 126q-51 39 -77 99.5
t-26 130.5q0 99 39 177.5t110.5 132.5t172 83t223.5 29q98 0 180 -21.5t148.5 -59t117 -87.5t84.5 -107.5t51 -119t17 -120.5q0 -93 -24.5 -164t-67 -119.5t-99.5 -73.5t-121 -25q-79 0 -130 27t-81 68t-42 91t-12 95zM284 438q0 52 -11.5 86.5t-32 56t-48.5 32t-61 13.5
v-563q33 3 61 13t48.5 32t32 57t11.5 88v185zM-126 1066q58 0 58 26q0 11 -11.5 21t-46.5 10q-26 0 -47 -11t-38 -30q19 -8 40 -12t45 -4zM12 822q0 13 -3.5 25.5t-17.5 12.5q-8 0 -15 -10.5t-7 -33.5q0 -30 8 -57q22 12 28.5 29t6.5 34z" />
    <glyph glyph-name="E.alt" horiz-adv-x="330" 
d="M49 0v689h254v-56h-193v-253h163v-56h-163v-268h193v-56h-254z" />
    <glyph glyph-name="G.swash" horiz-adv-x="365" 
d="M97 251q0 -61 9 -99.5t24 -60t35.5 -29t43.5 -7.5q12 0 24.5 6.5t23 21t17 38t6.5 57.5l-1 95q0 30 -8 43t-25 13q-13 0 -22.5 -9t-9.5 -27v-6q0 -2 1 -3h-50q-1 2 -2 6t-1 16q0 32 24 55t64 23q42 0 65.5 -29t23.5 -82v-101q0 -49 -12 -83t-31 -55t-42 -30.5t-45 -9.5
q-35 0 -66.5 10t-55 38.5t-37.5 78.5t-14 130v185q0 67 10 112.5t27.5 74t41.5 43t51 19.5q18 81 59.5 148.5t101 116.5t132.5 76.5t153 27.5q28 0 52 -5t44 -13q8 11 17 22t20 21q-46 36 -90.5 76.5t-91 80.5t-96 76.5t-106 64.5t-121.5 44.5t-142 16.5q-64 0 -115.5 -18.5
t-88 -50.5t-56.5 -74t-20 -89q0 -53 14.5 -87.5t35 -54.5t43.5 -28t41 -8q59 0 93 41t34 104q0 2 -0.5 3t-0.5 3v3h50q0 -1 1 -5q2 -8 2 -17q0 -37 -11 -71t-33.5 -60t-56 -41.5t-78.5 -15.5q-27 0 -60.5 10t-63 36t-50 71.5t-20.5 116.5q0 59 24 111.5t68.5 92t107.5 62.5
t140 23q87 0 159 -18.5t133 -49t113.5 -70t100.5 -82t93.5 -84.5t92.5 -78q42 27 97 42.5t125 15.5q57 0 93.5 -11.5t57.5 -29t29 -37t8 -35.5q0 -19 -6.5 -38t-21.5 -34t-40.5 -24t-63.5 -9q-81 0 -147 25t-126 65q-21 -18 -36 -39q32 -29 48 -68.5t16 -82.5q0 -21 -5 -42
t-15 -37.5t-26 -26.5t-38 -10q-37 0 -59 37.5t-22 94.5q0 30 5.5 59.5t17.5 56.5q-31 13 -67 13q-68 0 -130 -23.5t-113 -64.5t-88 -98t-54 -124q30 -3 51 -14t34.5 -27.5t19.5 -36.5t6 -41q0 -54 -24.5 -82.5t-75.5 -28.5q-16 0 -31 7t-27 22t-19.5 38t-7.5 54v19t1 19
q-26 -14 -42.5 -55t-16.5 -126v-185zM1068 1009q35 0 53.5 15t18.5 34q0 7 -4.5 17t-18.5 19t-39 15t-66 6q-52 0 -94 -10t-76 -28q50 -31 105 -49.5t121 -18.5zM280 569q0 55 -62 59q-3 -24 -3 -49q0 -34 9.5 -50t22.5 -16q17 0 25 16.5t8 39.5zM718 869q0 -35 7 -55.5
t18 -20.5q6 0 10 6t6.5 14t3 17.5t0.5 17.5q0 59 -32 100q-13 -38 -13 -79z" />
    <glyph glyph-name="H.swash" horiz-adv-x="370" 
d="M449 -477q22 0 34 5t12 21q0 27 -54 27q-38 0 -77 -11q18 -19 38.5 -30.5t46.5 -11.5zM477 -221q47 0 47 26q0 16 -13 21t-33 5q-23 0 -43.5 -9t-39.5 -24q33 -19 82 -19zM117 -288q-13 0 -23 -6t-10 -20q0 -11 9.5 -19.5t25.5 -8.5q22 0 41 6t36 16q-17 15 -36 23.5
t-43 8.5zM321 689v-689q0 -42 5.5 -86t27.5 -78q26 22 56 36t68 14q21 0 39.5 -4.5t32.5 -13.5t22.5 -23t8.5 -34q0 -45 -29.5 -65t-74.5 -20q-40 0 -70 9t-53 24q-18 -20 -36.5 -40.5t-38.5 -40.5q13 -16 24 -31.5t22 -31.5q27 10 55.5 15.5t60.5 5.5q62 0 86.5 -24
t24.5 -60q0 -34 -23.5 -58t-77.5 -24q-50 0 -84.5 21t-60.5 52q-39 -19 -77 -44t-78 -52.5t-83 -54t-92 -47.5t-105 -34t-122 -13q-68 0 -125 21t-98 60t-64 94t-23 123q0 61 15.5 104t41.5 70t59.5 39t69.5 12q41 0 70.5 -16t49 -40.5t28.5 -53t9 -53.5q0 -6 -0.5 -10
t-1.5 -7q-1 -4 -1 -5h-50v3q0 2 0.5 3t0.5 3q0 21 -7 41.5t-20.5 37t-33 27t-44.5 10.5q-24 0 -47 -8.5t-40.5 -28t-28 -51t-10.5 -77.5q0 -54 18.5 -98t51.5 -75t79 -48t101 -17q59 0 110.5 11.5t96.5 31t85 44t78 50.5t75 50.5t75 44.5l-36 50q-23 -16 -49.5 -25.5
t-58.5 -9.5q-46 0 -72 23.5t-26 60.5q0 21 8 35.5t21 23.5t29 13.5t32 4.5q41 0 71.5 -13.5t54.5 -35.5q18 18 35.5 38.5t35.5 40.5q-18 22 -28.5 48t-16 53t-7.5 53.5t-2 49.5v297h-138v-297h-61v689h61v-333h138v333h61z" />
    <glyph glyph-name="C.alt" horiz-adv-x="369" 
d="M176 511q0 13 1 17t2 5h50q-1 -1 -1 -3v-6q0 -49 31 -49q18 0 26.5 17.5t8.5 43.5q0 42 -22.5 68t-62.5 26q-23 0 -43.5 -7t-35.5 -28t-24 -58.5t-9 -98.5v-185q0 -61 7.5 -98.5t21 -58.5t31 -28t37.5 -7q37 0 55 26.5t18 65.5q0 2 -0.5 3t-0.5 3v3h50q0 -1 1 -5
q2 -8 2 -17q0 -63 -33.5 -101.5t-91.5 -38.5q-32 0 -60.5 9.5t-50 37t-34.5 77t-13 129.5v185q0 80 14 129.5t37.5 77t55 37t66.5 9.5q67 0 106 -43t39 -112q0 -51 -24.5 -86t-67.5 -35q-24 0 -40 8.5t-26.5 22.5t-15 31t-4.5 34z" />
    <glyph glyph-name="U.swash" horiz-adv-x="428" 
d="M502 1113q54 0 54 27q0 16 -12 21t-34 5q-26 0 -46.5 -11.5t-38.5 -30.5q39 -11 77 -11zM539 858q20 0 33 5t13 21q0 26 -47 26q-49 0 -82 -19q19 -15 39.5 -24t43.5 -9zM180 1031q-16 0 -25.5 -8.5t-9.5 -19.5q0 -14 10 -20t23 -6q24 0 43 8.5t36 23.5q-17 10 -36 16
t-41 6zM382 251q0 -80 -13.5 -130t-36.5 -78.5t-53 -38.5t-64 -10t-64 10t-53 38.5t-36.5 78.5t-13.5 130v438h61v-438q0 -61 8.5 -99.5t23 -60t34 -29t40.5 -7.5t40.5 7.5t34 29t23 60t8.5 99.5v438q0 23 2 49.5t7.5 53.5t16 53t28.5 48q-18 20 -35.5 40.5t-35.5 38.5
q-24 -22 -54.5 -35.5t-71.5 -13.5q-16 0 -32 4.5t-29 13.5t-21 23.5t-8 35.5q0 37 26 60.5t72 23.5q32 0 58.5 -9.5t49.5 -25.5l36 50q-57 30 -112.5 70t-116 76t-131.5 61t-160 25q-55 0 -101 -17t-79 -48t-51.5 -75t-18.5 -98q0 -46 10.5 -77.5t28 -51t40.5 -28t47 -8.5
q25 0 44.5 10.5t33 27t20.5 37t7 41.5q0 2 -0.5 3t-0.5 3v3h50q0 -1 1 -5q2 -8 2 -17q0 -25 -9 -53.5t-28.5 -53t-49 -40.5t-70.5 -16q-36 0 -69.5 12t-59.5 39t-41.5 69.5t-15.5 104.5q0 68 23 123t64 94t98 60t125 21q66 0 122 -13t105 -34t92 -47.5t83 -54t78 -53
t77 -43.5q26 31 60.5 52t84.5 21q54 0 77.5 -24t23.5 -58q0 -36 -24.5 -60t-86.5 -24q-32 0 -60.5 5.5t-55.5 15.5q-11 -16 -22 -31.5t-24 -31.5q20 -20 38.5 -40.5t36.5 -40.5q23 15 53 24t70 9q45 0 74.5 -20t29.5 -65q0 -20 -8.5 -34t-22.5 -23t-32.5 -13.5t-39.5 -4.5
q-38 0 -68 14t-56 36q-22 -34 -27.5 -78t-5.5 -86v-438z" />
    <glyph glyph-name="Q_u" horiz-adv-x="778" 
d="M593 -168q2 0 3 1v-50q-1 -1 -5 -2t-17 -1q-41 0 -64 24.5t-23 56.5q0 42 31 68.5t80 26.5q63 0 98 -39t35 -106q0 -42 -15.5 -77t-44 -60t-69.5 -39t-91 -14q-67 0 -126.5 18t-105 61t-73 115t-29.5 181q-29 3 -54.5 16.5t-44.5 42.5t-30 76.5t-11 119.5v185
q0 80 13.5 129.5t36.5 77t53.5 37t64.5 9.5t64.5 -9.5t53.5 -37t36.5 -77t13.5 -129.5v-185q0 -70 -10.5 -117t-29 -76t-43 -43t-52.5 -18q1 -90 23.5 -150t59.5 -96t86 -51.5t104 -15.5q73 0 116 35t43 92q0 40 -18.5 62t-53.5 22q-22 0 -35.5 -9t-13.5 -25q0 -15 10.5 -22
t27.5 -7h6zM312 436q0 61 -8.5 98.5t-23 58.5t-34 28t-41.5 7t-41.5 -7t-34 -28t-23 -58.5t-8.5 -98.5v-185q0 -61 8.5 -100t23 -61t34 -30.5t41.5 -8.5t41.5 8.5t34 30.5t23 61t8.5 100v185zM689 0v48q-20 -18 -51.5 -36t-70.5 -18q-35 0 -54.5 15.5t-29.5 39t-12 51.5
t-2 54v535h60v-534v-35t5 -32.5t17 -24t35 -9.5q29 0 56 14t47 28v593h60v-689h-60z" />
    <glyph glyph-name="R.alt" horiz-adv-x="332" 
d="M499 -87q-2 0 -3 -0.5t-3 -0.5h-3v50q1 0 5 1q3 1 7 1.5t10 0.5q53 0 80 -27.5t27 -67.5q0 -62 -36 -96t-96 -34t-102 31t-73 89t-54.5 140.5t-47.5 186.5l-42 185q-25 -4 -58 -6v-366h-61v689h17q57 0 101.5 -5.5t74.5 -23t46 -48.5t16 -82q0 -57 -20 -91t-58 -51
l43 -192q21 -92 40 -166t43 -125.5t56 -79.5t77 -28q32 0 53 18.5t21 53.5q0 20 -17 32t-43 12zM243 530q0 27 -8.5 44.5t-25.5 28.5t-42 16.5t-57 7.5v-199q66 4 99.5 25t33.5 77z" />
    <glyph glyph-name="R_a" horiz-adv-x="673" 
d="M66 689q57 0 101.5 -5.5t74.5 -23t46 -48.5t16 -82q0 -66 -25.5 -100.5t-74.5 -49.5q18 -63 33.5 -111.5t35.5 -85t49 -62t73.5 -41.5t108.5 -23t155 -7v-56q-100 0 -172 9t-123 27.5t-84.5 48.5t-57.5 71.5t-41.5 95.5t-35.5 122q-8 -1 -17 -1.5t-18 -0.5v-366h-61v689
h17zM461 634q-43 0 -43 -56v-6q0 -2 1 -3h-50q-1 1 -2 5t-1 17q0 39 22.5 68.5t72.5 29.5q39 0 62.5 -12t37 -38t18 -67.5t4.5 -101.5v-255q0 -29 12 -46.5t41 -17.5q9 0 12 1t4 2v-47q-4 -2 -9 -4t-13 -3t-22 -1q-26 0 -44.5 11t-29.5 36q-8 -20 -22.5 -34t-41.5 -14
q-48 0 -77.5 37t-29.5 105q0 42 13.5 74t35.5 55.5t51 38.5t60 22v40q0 88 -11.5 126t-50.5 38zM243 530q0 27 -8.5 44.5t-25.5 28.5t-42 16.5t-57 7.5v-199q66 4 99.5 25t33.5 77zM523 367q-40 -12 -70 -43.5t-30 -83.5q0 -40 13.5 -61t33.5 -21q17 0 27 8.5t16 19.5
q7 12 10 28v153z" />
    <glyph glyph-name="R_e" horiz-adv-x="639" 
d="M66 689q57 0 101.5 -5.5t74.5 -23t46 -48.5t16 -82q0 -66 -25.5 -100.5t-75.5 -49.5q16 -63 30.5 -111.5t33 -85t45 -62t66.5 -41.5t96 -23t135 -7v-56q-88 0 -152 9t-110 27.5t-77 48.5t-53.5 71.5t-39 95.5t-32.5 122q-8 -1 -17 -1.5t-18 -0.5v-366h-61v689h17z
M243 530q0 27 -8.5 44.5t-25.5 28.5t-42 16.5t-57 7.5v-199q66 4 99.5 25t33.5 77zM500 634q-11 0 -21.5 -6t-18.5 -23t-12.5 -48t-4.5 -82h109q-2 73 -12.5 116t-39.5 43zM561 221q0 2 -0.5 3t-0.5 3v3h50q0 -1 1 -5q2 -8 2 -17q0 -51 -25 -80t-70 -29q-27 0 -51 8.5
t-43 32.5t-30 66.5t-11 111.5v157q0 69 10 111.5t26 66.5t37 32.5t44 8.5q37 0 59.5 -19t34.5 -54t15.5 -83.5t3.5 -108.5v-10h-170v-101q0 -51 6 -82.5t15 -49.5t20.5 -24.5t22.5 -6.5q29 0 41.5 19t12.5 47z" />
    <glyph glyph-name="R_i" horiz-adv-x="529" 
d="M65 689q57 0 101.5 -5.5t74.5 -23t46 -48.5t16 -82q0 -66 -25.5 -101t-75.5 -50q17 -94 35 -157t51 -101.5t89.5 -54.5t150.5 -16v-56q-107 0 -172.5 20t-106 65t-63 116t-43.5 173q-8 -1 -16.5 -1.5t-17.5 -0.5v-366h-61v689h17zM382 562h60v-354q0 -29 14.5 -43.5
t48.5 -14.5q9 0 12 1t4 2v-47q-4 -2 -9 -4t-13 -3t-22 -1q-43 0 -69 23.5t-26 86.5v354zM242 530q0 27 -8.5 44.5t-25.5 28.5t-42 16.5t-57 7.5v-199q66 4 99.5 25t33.5 77zM367 647q0 19 12.5 32t31.5 13q18 0 31.5 -13t13.5 -32t-13.5 -31.5t-31.5 -12.5q-19 0 -31.5 12.5
t-12.5 31.5z" />
    <glyph glyph-name="R_o" horiz-adv-x="712" 
d="M657 573q0 2 -0.5 3t-0.5 3v3h50q0 -1 1 -5q2 -8 2 -17q0 -44 -19.5 -73t-53.5 -39v-132q0 -68 -10.5 -111t-28.5 -67t-41.5 -32.5t-48.5 -8.5q-26 0 -49.5 8.5t-41.5 32.5t-28.5 66.5t-10.5 111.5v154q0 69 10.5 111.5t28.5 66.5t41 33t49 9q24 0 46 -7t39.5 -27
t29 -55.5t14.5 -92.5q22 16 22 65zM66 689q57 0 101.5 -5.5t74.5 -23t46 -48.5t16 -82q0 -66 -25.5 -100.5t-75.5 -49.5q17 -63 32 -111.5t34.5 -85t48 -62t71.5 -41.5t104.5 -23t148.5 -7v-56q-96 0 -165.5 9t-118.5 27.5t-82 48.5t-56 71.5t-40 95.5t-35 122
q-8 -1 -17 -1.5t-18 -0.5v-366h-61v689h17zM437 316q0 -51 5.5 -82.5t15 -49.5t22 -24.5t27.5 -6.5q14 0 26.5 6.5t22 24.5t15 50t5.5 82v128q-48 4 -83 28t-51 76q-2 -16 -3.5 -35.5t-1.5 -42.5v-154zM243 530q0 27 -8.5 44.5t-25.5 28.5t-42 16.5t-57 7.5v-199
q66 4 99.5 25t33.5 77zM506 634q-8 0 -16 -2.5t-15 -7.5q2 -60 31 -89t69 -35q-2 41 -8 67t-15 41t-21 20.5t-25 5.5z" />
    <glyph glyph-name="R_u" horiz-adv-x="648" 
d="M67 689q57 0 101.5 -5.5t74.5 -23t46 -48.5t16 -82q0 -66 -25.5 -100.5t-75.5 -49.5q15 -63 29.5 -111.5t33 -85t45 -62t66 -41.5t95.5 -23t135 -7v-56q-88 0 -151.5 9t-109.5 27.5t-76.5 48.5t-53 71.5t-38.5 95.5t-33 122q-8 -1 -17 -1.5t-18 -0.5v-366h-61v689h17z
M539 101v42q-17 -17 -40 -32.5t-52 -15.5q-32 0 -49.5 15.5t-26 39t-10.5 51.5t-2 54v435h60v-434v-35t4 -32.5t14 -24t29 -9.5t38.5 11.5t34.5 24.5v499h60v-589h-60zM244 530q0 27 -8.5 44.5t-25.5 28.5t-42 16.5t-57 7.5v-199q66 4 99.5 25t33.5 77z" />
    <glyph glyph-name="T_a" horiz-adv-x="563" 
d="M362 531q-43 0 -43 -56v-6q0 -2 1 -3h-50q-1 1 -2 5t-1 17q0 39 22.5 68.5t72.5 29.5q39 0 62.5 -12t37 -38t18 -67.5t4.5 -101.5v-255q0 -29 12 -46.5t41 -17.5q9 0 12 1t4 2v-47q-4 -2 -9 -4t-13 -3t-22 -1q-26 0 -44.5 11t-29.5 36q-8 -20 -23 -34t-41 -14
q-48 0 -77.5 37t-29.5 105q0 42 13.5 74t35.5 55.5t51 38.5t60 22v40q0 44 -2 75t-9 51t-19 29t-32 9zM201 638v-638h-61v638h-123v55h539v-55h-355zM424 264q-40 -12 -70 -43.5t-30 -83.5q0 -40 13.5 -61t33.5 -21q17 0 27 8.5t16 19.5q7 12 10 28v153z" />
    <glyph glyph-name="T_e" horiz-adv-x="546" 
d="M339 211q0 -51 6 -82.5t15 -49.5t20.5 -24.5t22.5 -6.5q29 0 41.5 19t12.5 47q0 2 -0.5 3t-0.5 3v3h50q0 -1 1 -5q2 -8 2 -17q0 -51 -25 -80t-70 -29q-27 0 -51 8.5t-43 32.5t-30 66.5t-11 111.5v157q0 69 10 111.5t26 66.5t37 32.5t44 8.5q37 0 59.5 -19t34.5 -54
t15.5 -83.5t3.5 -108.5v-10h-170v-101zM201 638v-638h-61v638h-123v55h509v-55h-325zM396 527q-11 0 -21.5 -6t-18.5 -23t-12.5 -48t-4.5 -82h109q-2 73 -12.5 116t-39.5 43z" />
    <glyph glyph-name="T_i" horiz-adv-x="435" 
d="M201 638v-638h-61v638h-123v55h419v-55h-235zM280 458h60v-354q0 -29 14.5 -43.5t48.5 -14.5q9 0 12 1t4 2v-47q-4 -2 -9 -4t-13 -3t-22 -1q-43 0 -69 23.5t-26 86.5v354zM265 543q0 19 12.5 32t31.5 13t32 -13t13 -32t-13 -31.5t-32 -12.5t-31.5 12.5t-12.5 31.5z" />
    <glyph glyph-name="T_o" horiz-adv-x="622" 
d="M560 470q0 2 -0.5 3t-0.5 3v3h50q0 -1 1 -5q2 -8 2 -17q0 -44 -19.5 -73t-53.5 -39v-132q0 -68 -10.5 -111t-28.5 -67t-41.5 -32.5t-48.5 -8.5q-26 0 -49.5 8.5t-41.5 32.5t-28.5 66.5t-10.5 111.5v154q0 69 10.5 111.5t28.5 66.5t41 33t49 9q24 0 46 -7t39.5 -27
t29 -55.5t14.5 -92.5q22 16 22 65zM201 638v-638h-61v638h-123v55h519v-55h-335zM340 213q0 -51 5.5 -82.5t15 -49.5t22.5 -24.5t27 -6.5t26.5 6.5t22 24.5t15 50t5.5 82v128q-48 4 -83.5 28t-50.5 76q-2 -16 -3.5 -35.5t-1.5 -42.5v-154zM409 531q-18 0 -31 -10
q2 -60 31 -89t69 -35q-2 41 -8 67t-15 41t-21 20.5t-25 5.5z" />
    <glyph glyph-name="T_u" horiz-adv-x="589" 
d="M479 0v42q-17 -17 -40 -32.5t-52 -15.5q-32 0 -49.5 15.5t-26 39t-10.5 51.5t-2 54v435h60v-434v-35t4 -32.5t14 -24t29 -9.5q20 0 39 11.5t34 24.5v499h60v-589h-60zM201 638v-638h-61v638h-123v55h529v-55h-345z" />
    <glyph glyph-name="F.alt" horiz-adv-x="321" 
d="M108 633v-218h163v-54h-163v-361h-61v689h254v-56h-193z" />
    <glyph glyph-name="a.alt2" horiz-adv-x="397" 
d="M38 421q0 62 5 112t20 85t43 54t74 19q20 0 36 -6t27.5 -13.5t17.5 -14t7 -7.5v37h60v-589q0 -27 15 -40.5t48 -13.5q9 0 12 1t4 2v-47q-4 -2 -9 -4t-13 -3t-22 -1q-27 0 -44 7.5t-26.5 16.5t-13 17t-3.5 9q-1 -2 -7.5 -10t-18.5 -17t-29.5 -16t-40.5 -7q-46 0 -74 19
t-43 54t-20 85t-5 112v159zM268 598q-11 9 -24 16q-11 6 -26 11.5t-32 5.5q-27 0 -44.5 -12.5t-27 -38.5t-13 -66t-3.5 -94v-160q0 -54 3.5 -93.5t13.5 -65t27 -37.5t44 -12q19 0 34 5t26 11q12 7 22 17v513z" />
    <glyph glyph-name="K_a" horiz-adv-x="673" 
d="M110 689v-242l158 241h64l-130 -201q19 -86 34 -152.5t35 -115t48.5 -81t74 -52t112.5 -28t163 -8.5v-56q-100 0 -172 9.5t-123.5 30.5t-86 54t-58 79.5t-40.5 108t-34 139.5l-45 -70v-345h-61v689h61zM471 634q-43 0 -43 -56v-6q0 -2 1 -3h-50q-1 1 -2 5t-1 17
q0 39 22.5 68.5t72.5 29.5q39 0 62.5 -12t37 -38t18 -67.5t4.5 -101.5v-255q0 -29 12 -46.5t41 -17.5q9 0 12 1t4 2v-47q-4 -2 -9 -4t-13 -3t-22 -1q-26 0 -44.5 11t-29.5 36q-8 -20 -22.5 -34t-41.5 -14q-48 0 -77.5 37t-29.5 105q0 61 25 98.5t55 57.5q35 24 80 34v40
q0 88 -11.5 126t-50.5 38zM533 367q-28 -8 -50 -25q-19 -14 -34.5 -39t-15.5 -63q0 -40 13.5 -61t33.5 -21q17 0 27 8.5t16 19.5q7 12 10 28v153z" />
    <glyph glyph-name="K_e" horiz-adv-x="629" 
d="M110 689v-242l158 241h64l-131 -201q15 -83 28 -148t30 -113.5t42.5 -82t66.5 -54.5t101 -30t146 -9v-56q-90 0 -155 9.5t-111.5 30.5t-76.5 54t-51.5 79.5t-36.5 107.5t-30 139l-44 -69v-345h-61v689h61zM430 318q0 -51 6 -82.5t15 -49.5t20.5 -24.5t22.5 -6.5
q29 0 41.5 19t12.5 47q0 2 -0.5 3t-0.5 3v3h50q0 -1 1 -5q2 -8 2 -17q0 -51 -25 -80t-70 -29q-27 0 -51 8.5t-43 32.5t-30 66.5t-11 111.5v157q0 69 10 111.5t26 66.5t37 32.5t44 8.5q37 0 59.5 -19t34.5 -54t15.5 -83.5t3.5 -108.5v-10h-170v-101zM487 634q-11 0 -21.5 -6
t-18.5 -23t-12.5 -48t-4.5 -82h109q-2 73 -12.5 116t-39.5 43z" />
    <glyph glyph-name="K_i" horiz-adv-x="516" 
d="M110 689v-242l158 241h64l-131 -201q12 -86 22 -151.5t23 -114t32.5 -81.5t51 -53t77.5 -28.5t112 -8.5v-56q-71 0 -122.5 9.5t-88 30.5t-60.5 53.5t-41 79t-29.5 107.5t-24.5 138l-43 -67v-345h-61v689h61zM373 562h60v-354q0 -29 14.5 -43.5t48.5 -14.5q9 0 12 1t4 2
v-47q-4 -2 -9 -4t-13 -3t-22 -1q-43 0 -69 23.5t-26 86.5v354zM358 647q0 19 12.5 32t31.5 13t32 -13t13 -32t-13 -31.5t-32 -12.5t-31.5 12.5t-12.5 31.5z" />
    <glyph glyph-name="K_o" horiz-adv-x="702" 
d="M646 573q0 2 -0.5 3t-0.5 3v3h50q0 -1 1 -5q2 -8 2 -17q0 -44 -19.5 -73t-53.5 -39v-132q0 -68 -10.5 -111t-28.5 -67t-41.5 -32.5t-48.5 -8.5q-26 0 -49.5 8.5t-41.5 32.5t-28.5 66.5t-10.5 111.5v154q0 69 10.5 111.5t28.5 66.5t41 33t49 9q24 0 46 -7t39.5 -27
t29 -55.5t14.5 -92.5q22 16 22 65zM110 689v-242l158 241h64l-130 -201q18 -85 32.5 -150.5t33.5 -114t46.5 -81.5t71.5 -53.5t108.5 -29t156.5 -8.5v-56q-96 0 -165.5 9.5t-119 30.5t-82.5 54t-56.5 79.5t-40 108t-32.5 139.5l-45 -70v-345h-61v689h61zM426 316
q0 -51 5.5 -82.5t15 -49.5t22 -24.5t27.5 -6.5q14 0 26.5 6.5t22 24.5t15 50t5.5 82v128q-48 4 -83.5 28t-50.5 76q-2 -16 -3.5 -35.5t-1.5 -42.5v-154zM495 634q-18 0 -31 -10q2 -60 31 -89t69 -35q-2 41 -8 67t-15 41t-21 20.5t-25 5.5z" />
    <glyph glyph-name="K_u" horiz-adv-x="658" 
d="M110 689v-242l158 241h64l-131 -201l30 -150t30.5 -114t43 -82t66.5 -53t101 -29t146 -9v-56q-90 0 -155 9.5t-111.5 30.5t-77 54t-52 79.5t-37 108t-30.5 139.5l-45 -70v-345h-61v689h61zM549 101v42q-17 -17 -40 -32.5t-52 -15.5q-32 0 -49.5 15.5t-26 39t-10.5 51.5
t-2 54v435h60v-434v-35t4 -32.5t14 -24t29 -9.5t38.5 11.5t34.5 24.5v499h60v-589h-60z" />
    <glyph glyph-name="F_a" horiz-adv-x="491" 
d="M46 0v446q0 78 14 127t37.5 76t55 36.5t66.5 9.5q32 0 56.5 -6t42.5 -16t30 -22.5t20 -25.5q18 -31 21 -70q10 -8 19 -27q7 -17 13 -47t6 -81v-290q0 -29 12 -46.5t41 -17.5q9 0 12 1t4 2v-47q-4 -2 -9 -4t-13 -3t-22 -1q-22 0 -36 7t-22.5 15t-12.5 15.5t-4 9.5
q0 -1 -3.5 -8t-11 -15.5t-19 -15.5t-29.5 -7q-48 0 -77.5 37t-29.5 105q0 61 25 98.5t55 57.5q35 24 80 34v136q-1 -1 -6.5 -8t-16.5 -15.5t-27.5 -15.5t-39.5 -7q-41 0 -60 24.5t-19 54.5q0 42 26.5 67.5t72.5 25.5q7 0 13 -0.5t12 -1.5q-8 12 -21 23q-12 9 -31.5 16.5
t-50.5 7.5q-23 0 -43.5 -7t-35.5 -27.5t-24 -57t-9 -96.5v-25h104v-56h-104v-365h-61zM367 264q-28 -8 -50 -25q-19 -14 -34.5 -39t-15.5 -63q0 -40 13.5 -61t33.5 -21q17 0 27 8.5t16 19.5q7 12 10 28v153zM327 526q-4 1 -8 3q-10 4 -22 4q-18 0 -31.5 -9.5t-13.5 -27.5
q0 -9 7 -16t21 -7q16 0 25.5 8t14.5 18q5 11 7 27z" />
    <glyph glyph-name="F_e" horiz-adv-x="432" 
d="M216 697q65 0 102.5 -33t37.5 -87q0 -38 -23.5 -64.5t-65.5 -26.5q-35 0 -56.5 23t-21.5 55q0 13 1 17t2 5h50q-1 -1 -1 -3v-6q0 -36 28 -36q13 0 20 10.5t7 25.5q0 26 -21 44.5t-59 18.5q-23 0 -43.5 -7.5t-35.5 -28.5t-24 -58.5t-9 -97.5v-61h74v-60h-74v-325h-61v446
q0 78 14 127t38 76t55 36.5t66 9.5zM400 222h-140v-31q0 -45 4 -72.5t11 -43.5t16.5 -21.5t19.5 -5.5q19 0 28 19t9 47q0 2 -0.5 3t-0.5 3v3h50q0 -1 1 -5q2 -8 2 -17q0 -51 -22.5 -80t-62.5 -29q-23 0 -44 7.5t-36.5 29.5t-25 60.5t-9.5 101.5v87q0 63 8 101.5t21.5 60.5
t31 29.5t36.5 7.5q34 0 54 -17.5t31 -50t14.5 -77.5t3.5 -100v-10zM297 417q-8 0 -14.5 -5t-11.5 -20t-8 -42t-3 -72h79q-2 64 -10.5 101.5t-31.5 37.5z" />
    <glyph glyph-name="F_o" horiz-adv-x="514" 
d="M470 380q0 2 -0.5 3t-0.5 3v3h45q0 -1 1 -5q2 -8 2 -17q0 -44 -19.5 -73t-53.5 -39v-72q0 -59 -10 -96t-26.5 -57.5t-38 -28t-44.5 -7.5q-24 0 -45.5 7t-38 27.5t-26.5 57.5t-10 97v104q0 60 9.5 97t26 57.5t38 28t45.5 7.5q22 0 42.5 -6.5t37 -24.5t27 -50.5t12.5 -84.5
q27 17 27 69zM233 697q69 0 109.5 -33t40.5 -87q0 -38 -23.5 -64.5t-65.5 -26.5q-35 0 -56.5 23t-21.5 55q0 13 1 17t2 5h50q-1 -1 -1 -3v-6q0 -36 28 -36q13 0 20 10.5t7 25.5q0 26 -24 44.5t-66 18.5q-27 0 -51 -7.5t-42 -28.5t-28.5 -58.5t-10.5 -97.5v-61h74v-60h-74
v-325h-61v446q0 78 16 127t42.5 76t61.5 36.5t73 9.5zM265 183q0 -42 4.5 -68t12.5 -40.5t19 -19.5t24 -5q12 0 23 5.5t19 20t12.5 40.5t4.5 67v68q-39 5 -69.5 23.5t-47.5 58.5q-2 -11 -2 -22v-24v-104zM324 421q-17 0 -30 -10q6 -51 29 -76.5t61 -30.5q-1 36 -6 59
t-13.5 36t-18.5 17.5t-22 4.5z" />
    <glyph glyph-name="F_u" horiz-adv-x="455" 
d="M223 697q69 0 109.5 -33t40.5 -87q0 -38 -23.5 -64.5t-65.5 -26.5q-35 0 -56.5 23t-21.5 55q0 13 1 17t2 5h50q-1 -1 -1 -3v-6q0 -36 28 -36q13 0 20 10.5t7 25.5q0 26 -24 44.5t-66 18.5q-25 0 -47 -7.5t-38.5 -28.5t-26.5 -58.5t-10 -97.5v-61h74v-60h-74v-325h-61v446
q0 78 15 127t40 76t58.5 36.5t69.5 9.5zM369 0v36q-14 -16 -32 -29t-40 -13q-32 0 -49.5 15.5t-26 39t-10.5 51.5t-2 54v325h60v-324v-35t4 -32.5t14 -24t29 -9.5q14 0 27.5 9.5t25.5 21.5v394h60v-479h-60z" />
    <glyph glyph-name="L_l" horiz-adv-x="388" 
d="M108 689v-633h275v-56h-336v689h61zM244 689h60v-479q0 -29 14.5 -43.5t48.5 -14.5q9 0 12 1t4 2v-47q-4 -2 -9 -4t-13 -3t-22 -1q-43 0 -69 23.5t-26 86.5v479z" />
    <glyph glyph-name="C_h" horiz-adv-x="708" 
d="M672 0h-60v349v35t-5 32.5t-17 24t-35 9.5q-29 0 -57.5 -14.5t-47.5 -28.5v-154q0 -81 -15 -131.5t-42.5 -79t-65.5 -38.5t-84 -10q-45 0 -83 10t-66 38.5t-43.5 79t-15.5 131.5v183q0 80 14 129.5t37.5 77t55 37t66.5 9.5q60 0 95 -33t35 -87q0 -42 -23.5 -71.5
t-65.5 -29.5q-40 0 -64 23t-24 55q0 12 1 16t2 6h50q-1 -1 -1 -3v-6q0 -18 9.5 -27t22.5 -9q17 0 25 13.5t8 32.5q0 26 -18.5 42.5t-51.5 16.5q-23 0 -43.5 -7t-35.5 -28t-24 -58.5t-9 -98.5v-185q0 -61 11 -99.5t31 -60t46.5 -29t58.5 -7.5q33 0 60.5 7.5t46.5 29.5
t29.5 61t10.5 101v436h60v-236q20 18 51.5 37t72.5 19q35 0 54.5 -15.5t29.5 -39t12 -52t2 -53.5v-350z" />
    <glyph glyph-name="O_O" horiz-adv-x="574" 
d="M35 436q0 80 13.5 129.5t36.5 77t53.5 37t64.5 9.5q23 0 43.5 -3.5t39.5 -14.5q19 11 40 14.5t44 3.5q34 0 64.5 -9.5t53.5 -37t36.5 -77t13.5 -129.5v-185q0 -80 -13.5 -130t-36.5 -78.5t-53.5 -38.5t-64.5 -10q-23 0 -44 4t-40 15q-19 -11 -39.5 -15t-43.5 -4
q-34 0 -64.5 10t-53.5 38.5t-36.5 78.5t-13.5 130v185zM202 436q0 69 10 114.5t28 74.5q-18 6 -37 6q-22 0 -41.5 -7.5t-34 -29t-23 -59.5t-8.5 -99v-185q0 -61 8.5 -100t23 -61t34 -30t41.5 -8q20 0 38 6q-18 29 -28.5 76t-10.5 117v185zM477 436q0 61 -8.5 99t-23 59.5
t-34 29t-41.5 7.5q-21 0 -37 -6q17 -29 27.5 -74.5t10.5 -114.5v-185q0 -70 -10.5 -117t-28.5 -76q18 -6 38 -6q22 0 41.5 8t34 30t23 61t8.5 100v185zM310 436q0 53 -6.5 88t-17.5 57q-11 -22 -17 -57t-6 -88v-185q0 -53 6 -88.5t17 -58.5q7 22 12 47q5 21 8.5 47.5
t3.5 52.5v185z" />
    <glyph glyph-name="w_w_w" horiz-adv-x="1326" 
d="M248 689q2 -20 6 -45q3 -21 7.5 -51t10.5 -65q5 35 9 64.5t7 51.5q4 25 6 45h61q-6 -43 -14 -93q-7 -43 -16 -98.5t-20 -116.5q15 -75 32 -149t35 -136q10 40 19.5 87.5t17.5 97t15.5 99t13.5 94.5q14 106 26 215h61q-3 -30 -7 -66q-4 -31 -9 -71.5t-11 -87.5
q7 -45 15.5 -93t17.5 -96t18.5 -93.5t20.5 -85.5q17 62 32 136.5t29 148.5q-13 61 -23 116.5t-18 98.5q-9 50 -16 93h61q2 -20 6 -45q3 -21 7.5 -51t10.5 -65q5 35 9 64.5t7 51.5q4 25 6 45h61q-6 -43 -14 -93q-7 -43 -16 -98.5t-20 -116.5q15 -75 32 -149t35 -136
q10 40 19.5 87.5t17.5 97t15.5 99t13.5 94.5q14 106 26 215h61q-3 -30 -7 -65q-8 -63 -20 -160q7 -45 15.5 -93t17.5 -96t18.5 -93.5t20.5 -85.5q17 62 32 136.5t29 148.5q-13 61 -23 116.5t-18 98.5q-9 50 -16 93h61q2 -20 6 -45q3 -21 7.5 -51t10.5 -65q5 35 9 64.5
t7 51.5q4 25 6 45h61q-6 -43 -14 -93q-7 -43 -16 -98.5t-20 -116.5q15 -75 32 -149t35 -136q10 40 19.5 87.5t17.5 97t15.5 99t13.5 94.5q14 106 26 215h61q-16 -147 -35 -280q-8 -57 -18 -115.5t-21 -113t-23 -101.5t-25 -79h-60q-17 43 -33.5 110.5t-33.5 143.5
q-15 -77 -30.5 -144t-32.5 -110h-60q-9 24 -18 57.5t-17.5 73.5t-17 83.5t-16.5 88.5q-14 -91 -31 -171.5t-37 -131.5h-60q-17 43 -33.5 110.5t-33.5 143.5q-15 -77 -30.5 -144t-32.5 -110h-60q-9 24 -18 57.5t-18 73.5t-17.5 83.5t-16.5 88.5q-14 -91 -31 -172t-36 -131
h-60q-17 43 -33.5 110.5t-33.5 143.5q-15 -77 -30.5 -144t-32.5 -110h-60q-13 32 -26 79t-25 101.5t-23 113t-20 115.5q-22 133 -42 280h61q14 -110 31 -216q7 -45 15.5 -94.5t18 -99t19.5 -96.5t21 -87q17 62 32 136t29 149q-13 61 -23 116.5t-18 98.5q-9 50 -16 93h61z
" />
    <glyph glyph-name="a" unicode="a" horiz-adv-x="353" 
d="M149 634q-34 0 -48.5 -14t-14.5 -42v-6q0 -2 1 -3h-50q-1 1 -2 5t-1 17q0 39 29.5 68.5t85.5 29.5q45 0 72.5 -12t43 -38t21 -67.5t5.5 -101.5v-360q0 -29 14.5 -46.5t48.5 -17.5q9 0 12 1t4 2v-47q-4 -2 -9 -4t-13 -3t-22 -1q-32 0 -54 13.5t-33 44.5q-14 -23 -37 -41
t-58 -18q-23 0 -44 11t-37 32t-25.5 52t-9.5 72q0 51 17.5 89.5t46.5 66.5t65 44t74 22v88q0 44 -3 75t-12 51t-25 29t-42 9zM156 53q23 0 38 12t23 26q10 17 14 38v192q-27 -5 -53 -17.5t-46 -33t-32 -48t-12 -62.5q0 -53 19.5 -80t48.5 -27z" />
    <glyph glyph-name="apple.alt" horiz-adv-x="-491" 
d="M-429 395q20 0 35 13.5t30.5 30t34.5 30t48 13.5q23 0 37.5 -12.5t14.5 -33.5q0 -15 -5.5 -25.5t-11.5 -16.5q31 0 60 6q-11 20 -11 43t13 40.5t36 17.5q19 0 30.5 -13.5t11.5 -34.5q0 -23 -13.5 -38.5t-36.5 -24.5q20 -20 55.5 -31t78.5 -11v-17q-51 0 -90.5 13.5
t-62.5 39.5q-16 -4 -34 -6.5t-38 -2.5q18 -17 18 -42q0 -21 -14.5 -33.5t-37.5 -12.5q-29 0 -48 14t-34.5 30.5t-30.5 30.5t-35 14v19zM-178 443q0 -21 11 -38q19 7 30.5 18.5t11.5 30.5q0 14 -6.5 21t-15.5 7q-14 0 -22.5 -10.5t-8.5 -28.5z" />
    <glyph glyph-name="i.end" horiz-adv-x="998" 
d="M514 132q0 41 11 85.5t35.5 81t63.5 60.5t95 24q72 0 122 -23t80.5 -68.5t44.5 -113.5t14 -158q0 -101 -19 -194t-60 -164.5t-106 -114t-158 -42.5q-77 0 -134 22.5t-95.5 61t-57.5 90t-19 110.5q0 36 4.5 69t14.5 61q-17 12 -29.5 26.5t-22.5 30.5q-41 -19 -88 -19
q-26 0 -55 7.5t-53 26.5t-39.5 50t-15.5 79v390h60v-378q0 -35 9 -58.5t24 -37t35.5 -19t44.5 -5.5q25 0 52 12q-14 36 -18.5 67.5t-4.5 48.5q0 22 3.5 45.5t13 43.5t25.5 33t42 13q38 0 58 -24.5t20 -72.5q0 -53 -17.5 -97t-49.5 -74q7 -10 14.5 -19t17.5 -17
q19 26 44.5 41t59.5 15t60 -19t26 -52q0 -29 -20 -52.5t-68 -23.5q-21 0 -39 3t-35 8q-7 -22 -10 -48t-3 -54q0 -47 15.5 -87.5t46.5 -71t77 -48t107 -17.5q77 0 131 37.5t87.5 100.5t49 145t15.5 172q0 75 -10.5 131.5t-34 94.5t-62 57.5t-94.5 19.5q-41 0 -69.5 -17
t-47.5 -45.5t-27.5 -65t-8.5 -76.5v-6q0 -2 1 -3h-50q-1 1 -2 5t-1 17zM33 648q0 19 12.5 32t31.5 13t32 -13t13 -32t-13 -31.5t-32 -12.5t-31.5 12.5t-12.5 31.5zM307 140q0 -14 2.5 -34.5t9.5 -43.5q15 19 24.5 46t9.5 62q0 47 -20 47q-8 0 -13 -7.5t-8 -18.5t-4 -24.5
t-1 -26.5zM479 -29q-33 0 -55 -28q12 -3 25.5 -5t29.5 -2q17 0 25 6t8 12q0 8 -9 12.5t-24 4.5z" />
    <glyph glyph-name="exclamdbl" unicode="&#x203c;" horiz-adv-x="358" 
d="M122 749l-14 -615h-49l-14 615h77zM44 33q0 17 11.5 29t28.5 12t29 -12t12 -29t-12 -28.5t-29 -11.5t-28.5 11.5t-11.5 28.5zM312 749l-14 -615h-49l-14 615h77zM234 33q0 17 11.5 29t28.5 12t29 -12t12 -29t-12 -28.5t-29 -11.5t-28.5 11.5t-11.5 28.5z" />
    <glyph glyph-name="onedotenleader" unicode="&#x2024;" horiz-adv-x="159" 
d="M39 33q0 17 11.5 29t28.5 12t29 -12t12 -29t-12 -28.5t-29 -11.5t-28.5 11.5t-11.5 28.5z" />
    <glyph glyph-name="twodotenleader" unicode="&#x2025;" horiz-adv-x="301" 
d="M39 33q0 17 11.5 29t28.5 12t29 -12t12 -29t-12 -28.5t-29 -11.5t-28.5 11.5t-11.5 28.5zM181 34q0 17 11.5 29t28.5 12t29 -12t12 -29t-12 -28.5t-29 -11.5t-28.5 11.5t-11.5 28.5z" />
    <glyph glyph-name="afii61352" unicode="&#x2116;" horiz-adv-x="603" 
d="M326 689v-689h-61l-147 485v-485h-61v689h61l147 -498v498h61zM380 531q0 51 7.5 82t20.5 47.5t30 22t36 5.5t36 -5.5t30 -22t20.5 -47.5t7.5 -82q0 -55 -7.5 -88.5t-20.5 -51.5t-30 -24t-36 -6t-36 6t-30 24t-20.5 51.5t-7.5 88.5zM428 531q0 -39 3.5 -62.5t9.5 -36.5
t14 -17t17 -4t17 4t14 17t9.5 36.5t3.5 62.5q0 35 -3.5 56t-9.5 32.5t-14 15t-17 3.5t-17 -3.5t-14 -15t-9.5 -32.5t-3.5 -56zM567 282h-184v56h184v-56z" />
    <glyph glyph-name="lira" unicode="&#x20a4;" horiz-adv-x="453" 
d="M284 57q13 0 24.5 9t11.5 32q0 3 -0.5 5t-0.5 3v1h50q0 -2 1 -6q2 -8 2 -16q0 -35 -24 -61.5t-64 -26.5q-19 0 -34 5t-30.5 10.5t-33 10.5t-41.5 5q-14 0 -31 -4.5t-31 -9.5q-17 -6 -33 -14v60q6 2 14 6q7 3 15.5 6.5t18.5 6.5v122h-48v60h48v64h-48v60h48v61
q0 78 14 127t37.5 76t55 36.5t66.5 9.5q65 0 102.5 -33t37.5 -87q0 -42 -23.5 -71.5t-65.5 -29.5q-40 0 -64 23t-24 55q0 12 1 16t2 6h50q-1 -1 -1 -3v-6q0 -18 9.5 -27t22.5 -9q17 0 25 13.5t8 32.5q0 26 -21 44.5t-59 18.5q-23 0 -43.5 -7.5t-35.5 -28.5t-24 -58.5
t-9 -97.5v-61h134v-60h-134v-64h134v-60h-134v-114q21 -2 36.5 -6.5t29.5 -10t28 -9.5t31 -4z" />
    <glyph glyph-name="franc" unicode="&#x20a3;" horiz-adv-x="439" 
d="M105 0v146h-84v57h84v243q0 78 14 127t37.5 76t55 36.5t66.5 9.5q65 0 102.5 -33t37.5 -87q0 -42 -23.5 -71.5t-65.5 -29.5q-40 0 -64 23t-24 55q0 12 1 16t2 6h50q-1 -1 -1 -3v-6q0 -18 9.5 -27t22.5 -9q17 0 25 13.5t8 32.5q0 26 -21 44.5t-59 18.5q-23 0 -43.5 -7.5
t-35.5 -28.5t-24 -58.5t-9 -97.5v-61h134v-60h-134v-122h145v-57h-145v-146h-61z" />
    <glyph glyph-name="colonmonetary" unicode="&#x20a1;" horiz-adv-x="387" 
d="M310 766l-13 -98q26 -16 40.5 -41.5t14.5 -57.5q0 -42 -23.5 -71.5t-65.5 -29.5q-40 0 -64 23t-24 55q0 12 1 16t2 6h50q-1 -1 -1 -3v-6q0 -18 9.5 -27t22.5 -9q17 0 25 13.5t8 32.5q0 26 -21 44.5t-59 18.5q-23 0 -43.5 -7.5t-36 -29t-24.5 -60t-9 -99.5v-185
q0 -61 9 -99.5t24.5 -60t36 -29t43.5 -7.5q38 0 59 18.5t21 44.5q0 19 -8 32.5t-25 13.5q-13 0 -22.5 -9t-9.5 -27v-6q0 -2 1 -3h-50q-1 2 -2 6t-1 16q0 32 24 55t64 23q42 0 65.5 -29.5t23.5 -71.5q0 -43 -24 -73t-67 -41l-10 -81h-51l9 75q-8 0 -14.5 0.5t-14.5 1.5
l-9 -77h-51l11 90q-20 10 -37 27.5t-29 46t-19 69t-7 95.5v185q0 70 9.5 114.5t27 72t41.5 41.5t53 23l10 79h50l-10 -77q8 -1 15 -1t14 -2l11 80h50z" />
    <glyph glyph-name="longs_t" unicode="&#xfb05;" horiz-adv-x="599" 
d="M505 470v-57h-133v-229q0 -43 6.5 -69.5t17 -41.5t24.5 -20t30 -5q33 0 51.5 21t18.5 52q0 23 -8 39.5t-25 16.5q-13 0 -22.5 -11.5t-9.5 -34.5v-8q0 -1 1 -1h-50q-1 2 -2 6t-1 16q0 35 24 61.5t64 26.5q42 0 65.5 -33t23.5 -78q0 -58 -35 -94t-95 -36q-27 0 -52 7
t-44 28t-30.5 59t-11.5 99v229h-66v57h66v69q0 40 -18.5 66.5t-51.5 26.5q-20 0 -37.5 -7.5t-31 -29t-21.5 -60t-8 -99.5v-436h-60v327h-72v58h72v51q0 80 13 129.5t35 77t50.5 37t59.5 9.5q60 0 95 -41.5t35 -108.5v-69h133z" />
    <glyph glyph-name="foursuperior" unicode="&#x2074;" horiz-adv-x="275" 
d="M204 687v-260h36v-45h-36v-59h-49v59h-119v45l52 265l47 -5l-54 -260h74v260h49z" />
    <glyph glyph-name="twothirds" unicode="&#x2154;" horiz-adv-x="572" 
d="M363 362h176v-50l-73 -102q32 -8 51 -34t19 -76q0 -32 -7 -52.5t-19 -32.5t-28 -16.5t-34 -4.5t-34 5t-28 18.5t-19 37t-7 59.5h50q0 -42 11 -56t27 -14t27 11.5t11 44.5q0 35 -14.5 49t-37.5 15l-31 42l74 106h-114v50zM31 323q1 34 10.5 59t23 44t29.5 36t29.5 35
t22.5 40.5t9 54.5q0 27 -10 36.5t-24 9.5t-23.5 -12.5t-9.5 -51.5h-50q0 34 7 56.5t18 35t26 17.5t32 5t32 -4.5t26.5 -15t18.5 -29.5t7 -47q0 -45 -14 -74.5t-33.5 -52t-39 -43.5t-29.5 -49h118v-50h-176zM490 689l-306 -689l-62 1l306 688h62z" />
    <glyph glyph-name="zeroinferior" unicode="&#x2080;" horiz-adv-x="270" 
d="M91 39q0 -46 3.5 -73.5t9.5 -42.5t14 -19.5t17 -4.5t17 4.5t14 19.5t9.5 42.5t3.5 73.5q0 42 -3.5 67t-9.5 38.5t-14 17.5t-17 4t-17 -4t-14 -17.5t-9.5 -38.5t-3.5 -67zM41 39q0 58 7.5 93t20.5 54t30 24.5t36 5.5t36 -5.5t30 -24.5t20.5 -54t7.5 -93q0 -63 -7.5 -100.5
t-20.5 -57.5t-30 -26t-36 -6t-36 6t-30 26t-20.5 57.5t-7.5 100.5z" />
    <glyph glyph-name="oneinferior" unicode="&#x2081;" horiz-adv-x="183" 
d="M131 215v-365h-51v254l-22 -47l-41 24l63 134h51z" />
    <glyph glyph-name="twoinferior" unicode="&#x2082;" horiz-adv-x="245" 
d="M31 -151q1 34 10.5 59t23 44t29.5 36t29.5 35t22.5 40.5t9 54.5q0 27 -10 36.5t-24 9.5t-23.5 -12.5t-9.5 -51.5h-50q0 34 7 56.5t18 35t26 17.5t32 5t32 -4.5t26.5 -15t18.5 -29.5t7 -47q0 -45 -14 -74t-33.5 -52t-39 -44t-29.5 -49h118v-50h-176v0z" />
    <glyph glyph-name="threeinferior" unicode="&#x2083;" horiz-adv-x="273" 
d="M51 215h176v-50l-73 -102q32 -8 51 -34t19 -76q0 -32 -7 -52.5t-19 -32.5t-28 -16.5t-34 -4.5t-34 5t-28 18.5t-19 37t-7 59.5h50q0 -42 11 -56t27 -14t27 11.5t11 44.5q0 35 -14.5 49t-37.5 15l-31 42l74 106h-114v50z" />
    <glyph glyph-name="fourinferior" unicode="&#x2084;" horiz-adv-x="241" 
d="M190 214v-260h36v-45h-36v-59h-49v59h-119v45l52 265l47 -5l-54 -260h74v260h49z" />
    <glyph glyph-name="a.end" horiz-adv-x="1180" 
d="M156 53q24 0 38.5 12t22.5 26q10 17 14 39v191q-27 -5 -53 -17.5t-46 -33t-32 -48t-12 -62.5q0 -53 19.5 -80t48.5 -27zM491 157q0 -14 2.5 -32.5t8.5 -39.5q16 17 25.5 42.5t9.5 59.5q0 47 -20 47q-8 0 -13 -7.5t-8 -18.5t-4 -24.5t-1 -26.5zM663 -10q-33 0 -55 -31
q12 -3 25.5 -5.5t29.5 -2.5q17 0 25 6.5t8 13.5q0 9 -9 14t-24 5zM149 634q-35 0 -49 -13.5t-14 -42.5v-6q0 -2 1 -3h-50q-1 1 -2 5t-1 17q0 39 29.5 68.5t85.5 29.5q45 0 72.5 -12t43 -38t21 -67.5t5.5 -101.5v-321q0 -32 6 -53.5t18.5 -34t32 -17.5t46.5 -5q30 0 59 12
q-12 33 -16 61.5t-4 44.5q0 22 3.5 45.5t13 43.5t25.5 33t42 13q38 0 58 -24.5t20 -72.5q0 -51 -18 -93t-53 -71q8 -12 16.5 -23t19.5 -20q19 26 44.5 41t59.5 15t60 -19t26 -52q0 -29 -20 -52.5t-68 -23.5q-21 0 -39 3t-35 8q-7 -22 -10 -48t-3 -54q0 -47 15.5 -87.5
t46.5 -71t77 -48t107 -17.5q77 0 131 37.5t87.5 100.5t49 145t15.5 172q0 75 -10.5 131.5t-34 94.5t-62 57.5t-94.5 19.5q-41 0 -69.5 -17t-47.5 -45.5t-27.5 -65t-8.5 -76.5v-6q0 -2 1 -3h-50q-1 1 -2 5t-1 17q0 41 11 85.5t35.5 81t63.5 60.5t95 24q72 0 122 -23
t80.5 -68.5t44.5 -113.5t14 -158q0 -101 -19 -194t-60 -164.5t-106 -114t-158 -42.5q-77 0 -134 22.5t-95.5 61t-57.5 90t-19 110.5q0 36 4.5 69t14.5 61q-19 14 -33 30.5t-25 34.5q-42 -17 -92 -17q-45 0 -83.5 17t-56.5 61q-14 -26 -37.5 -47.5t-62.5 -21.5q-23 0 -44 11
t-37 32t-25.5 52t-9.5 72q0 51 17.5 89.5t46.5 66.5t65 44t74 22v88q0 44 -3 75t-12 51t-25 29t-42 9z" />
    <glyph glyph-name="d.end" horiz-adv-x="1173" 
d="M691 149q0 41 11 85.5t35.5 81t63.5 60.5t95 24q72 0 122 -23t80.5 -68.5t44.5 -113.5t14 -158q0 -101 -19 -194t-60 -164.5t-106 -114t-158 -42.5q-77 0 -134 22.5t-95.5 61t-57.5 90t-19 110.5q0 36 4.5 69t14.5 61q-17 12 -29.5 26.5t-22.5 30.5q-41 -19 -88 -19
q-20 0 -41.5 4.5t-41.5 14t-37 26t-28 40.5q-12 -26 -33.5 -46t-56.5 -20q-55 0 -92.5 49t-37.5 143q0 58 18 104t47 78.5t65.5 52t74.5 26.5v243h60v-540q0 -35 9 -58.5t24 -37t35.5 -19t44.5 -5.5q25 0 52 12q-14 36 -18.5 67.5t-4.5 48.5q0 22 3.5 45.5t13 43.5t25.5 33
t42 13q38 0 58 -24.5t20 -72.5q0 -53 -17.5 -97t-49.5 -74q7 -10 14.5 -19t17.5 -17q19 26 44.5 41t59.5 15t60 -19t26 -52q0 -29 -20 -52.5t-68 -23.5q-21 0 -39 3t-35 8q-7 -22 -10 -48t-3 -54q0 -47 15.5 -87.5t46.5 -71t77 -48t107 -17.5q77 0 131 37.5t87.5 100.5
t49 145t15.5 172q0 75 -10.5 131.5t-34 94.5t-62 57.5t-94.5 19.5q-41 0 -69.5 -17t-47.5 -45.5t-27.5 -65t-8.5 -76.5v-6q0 -2 1 -3h-50q-1 1 -2 5t-1 17zM224 385q-28 -7 -54 -23t-46.5 -41t-32.5 -59t-12 -77q0 -64 20.5 -98t49.5 -34q24 0 38.5 12t22.5 26q10 17 14 39
v255zM484 157q0 -14 2.5 -34.5t9.5 -43.5q15 19 24.5 46t9.5 62q0 47 -20 47q-8 0 -13 -7.5t-8 -18.5t-4 -24.5t-1 -26.5zM656 -10q-33 0 -55 -31q12 -3 25.5 -5.5t29.5 -2.5q17 0 25 6.5t8 13.5q0 9 -9 14t-24 5z" />
    <glyph glyph-name="iacute.end" horiz-adv-x="988" 
d="M510 132q0 41 11 85.5t35.5 81t63.5 60.5t95 24q72 0 122 -23t80.5 -68.5t44.5 -113.5t14 -158q0 -101 -19 -194t-60 -164.5t-106 -114t-158 -42.5q-77 0 -134 22.5t-95.5 61t-57.5 90t-19 110.5q0 36 4.5 69t14.5 61q-17 12 -29.5 26.5t-22.5 30.5q-41 -19 -88 -19
q-26 0 -55 7.5t-53 26.5t-39.5 50t-15.5 79v390h60v-378q0 -35 9 -58.5t24 -37t35.5 -19t44.5 -5.5q25 0 52 12q-14 36 -18.5 67.5t-4.5 48.5q0 22 3.5 45.5t13 43.5t25.5 33t42 13q38 0 58 -24.5t20 -72.5q0 -53 -17.5 -97t-49.5 -74q7 -10 14.5 -19t17.5 -17
q19 26 44.5 41t59.5 15t60 -19t26 -52q0 -29 -20 -52.5t-68 -23.5q-21 0 -39 3t-35 8q-7 -22 -10 -48t-3 -54q0 -47 15.5 -87.5t46.5 -71t77 -48t107 -17.5q77 0 131 37.5t87.5 100.5t49 145t15.5 172q0 75 -10.5 131.5t-34 94.5t-62 57.5t-94.5 19.5q-41 0 -69.5 -17
t-47.5 -45.5t-27.5 -65t-8.5 -76.5v-6q0 -2 1 -3h-50q-1 1 -2 5t-1 17zM303 140q0 -14 2.5 -34.5t9.5 -43.5q15 19 24.5 46t9.5 62q0 47 -20 47q-8 0 -13 -7.5t-8 -18.5t-4 -24.5t-1 -26.5zM475 -29q-33 0 -55 -28q12 -3 25.5 -5t29.5 -2q17 0 25 6t8 12q0 8 -9 12.5
t-24 4.5zM156 710l44 -37l-108 -132l-37 33z" />
    <glyph glyph-name="icircumflex.end" horiz-adv-x="995" 
d="M510 132q0 41 11 85.5t35.5 81t63.5 60.5t95 24q72 0 122 -23t80.5 -68.5t44.5 -113.5t14 -158q0 -101 -19 -194t-60 -164.5t-106 -114t-158 -42.5q-77 0 -134 22.5t-95.5 61t-57.5 90t-19 110.5q0 36 4.5 69t14.5 61q-17 12 -29.5 26.5t-22.5 30.5q-41 -19 -88 -19
q-26 0 -55 7.5t-53 26.5t-39.5 50t-15.5 79v390h60v-378q0 -35 9 -58.5t24 -37t35.5 -19t44.5 -5.5q25 0 52 12q-14 36 -18.5 67.5t-4.5 48.5q0 22 3.5 45.5t13 43.5t25.5 33t42 13q38 0 58 -24.5t20 -72.5q0 -53 -17.5 -97t-49.5 -74q7 -10 14.5 -19t17.5 -17
q19 26 44.5 41t59.5 15t60 -19t26 -52q0 -29 -20 -52.5t-68 -23.5q-21 0 -39 3t-35 8q-7 -22 -10 -48t-3 -54q0 -47 15.5 -87.5t46.5 -71t77 -48t107 -17.5q77 0 131 37.5t87.5 100.5t49 145t15.5 172q0 75 -10.5 131.5t-34 94.5t-62 57.5t-94.5 19.5q-41 0 -69.5 -17
t-47.5 -45.5t-27.5 -65t-8.5 -76.5v-6q0 -2 1 -3h-50q-1 1 -2 5t-1 17zM303 140q0 -14 2.5 -34.5t9.5 -43.5q15 19 24.5 46t9.5 62q0 47 -20 47q-8 0 -13 -7.5t-8 -18.5t-4 -24.5t-1 -26.5zM475 -29q-33 0 -55 -28q12 -3 25.5 -5t29.5 -2q17 0 25 6t8 12q0 8 -9 12.5
t-24 4.5zM-2 541l-44 37l108 132h37l108 -132l-44 -37l-83 111z" />
    <glyph glyph-name="idieresis.end" horiz-adv-x="999" 
d="M510 132q0 41 11 85.5t35.5 81t63.5 60.5t95 24q72 0 122 -23t80.5 -68.5t44.5 -113.5t14 -158q0 -101 -19 -194t-60 -164.5t-106 -114t-158 -42.5q-77 0 -134 22.5t-95.5 61t-57.5 90t-19 110.5q0 36 4.5 69t14.5 61q-17 12 -29.5 26.5t-22.5 30.5q-41 -19 -88 -19
q-26 0 -55 7.5t-53 26.5t-39.5 50t-15.5 79v390h60v-378q0 -35 9 -58.5t24 -37t35.5 -19t44.5 -5.5q25 0 52 12q-14 36 -18.5 67.5t-4.5 48.5q0 22 3.5 45.5t13 43.5t25.5 33t42 13q38 0 58 -24.5t20 -72.5q0 -53 -17.5 -97t-49.5 -74q7 -10 14.5 -19t17.5 -17
q19 26 44.5 41t59.5 15t60 -19t26 -52q0 -29 -20 -52.5t-68 -23.5q-21 0 -39 3t-35 8q-7 -22 -10 -48t-3 -54q0 -47 15.5 -87.5t46.5 -71t77 -48t107 -17.5q77 0 131 37.5t87.5 100.5t49 145t15.5 172q0 75 -10.5 131.5t-34 94.5t-62 57.5t-94.5 19.5q-41 0 -69.5 -17
t-47.5 -45.5t-27.5 -65t-8.5 -76.5v-6q0 -2 1 -3h-50q-1 1 -2 5t-1 17zM303 140q0 -14 2.5 -34.5t9.5 -43.5q15 19 24.5 46t9.5 62q0 47 -20 47q-8 0 -13 -7.5t-8 -18.5t-4 -24.5t-1 -26.5zM475 -29q-33 0 -55 -28q12 -3 25.5 -5t29.5 -2q17 0 25 6t8 12q0 8 -9 12.5
t-24 4.5zM-37 672q0 17 11.5 29t28.5 12t29 -12t12 -29t-12 -28.5t-29 -11.5t-28.5 11.5t-11.5 28.5zM113 672q0 17 11.5 29t28.5 12t29 -12t12 -29t-12 -28.5t-29 -11.5t-28.5 11.5t-11.5 28.5z" />
    <glyph glyph-name="igrave.end" horiz-adv-x="1002" 
d="M509 132q0 41 11 85.5t35.5 81t63.5 60.5t95 24q72 0 122 -23t80.5 -68.5t44.5 -113.5t14 -158q0 -101 -19 -194t-60 -164.5t-106 -114t-158 -42.5q-77 0 -134 22.5t-95.5 61t-57.5 90t-19 110.5q0 36 4.5 69t14.5 61q-17 12 -29.5 26.5t-22.5 30.5q-41 -19 -88 -19
q-26 0 -55 7.5t-53 26.5t-39.5 50t-15.5 79v390h60v-378q0 -35 9 -58.5t24 -37t35.5 -19t44.5 -5.5q25 0 52 12q-14 36 -18.5 67.5t-4.5 48.5q0 22 3.5 45.5t13 43.5t25.5 33t42 13q38 0 58 -24.5t20 -72.5q0 -53 -17.5 -97t-49.5 -74q7 -10 14.5 -19t17.5 -17
q19 26 44.5 41t59.5 15t60 -19t26 -52q0 -29 -20 -52.5t-68 -23.5q-21 0 -39 3t-35 8q-7 -22 -10 -48t-3 -54q0 -47 15.5 -87.5t46.5 -71t77 -48t107 -17.5q77 0 131 37.5t87.5 100.5t49 145t15.5 172q0 75 -10.5 131.5t-34 94.5t-62 57.5t-94.5 19.5q-41 0 -69.5 -17
t-47.5 -45.5t-27.5 -65t-8.5 -76.5v-6q0 -2 1 -3h-50q-1 1 -2 5t-1 17zM302 140q0 -14 2.5 -34.5t9.5 -43.5q15 19 24.5 46t9.5 62q0 47 -20 47q-8 0 -13 -7.5t-8 -18.5t-4 -24.5t-1 -26.5zM474 -29q-33 0 -55 -28q12 -3 25.5 -5t29.5 -2q17 0 25 6t8 12q0 8 -9 12.5
t-24 4.5zM100 573l-37 -33l-108 132l44 37z" />
    <glyph glyph-name="imacron.end" horiz-adv-x="1006" 
d="M510 132q0 41 11 85.5t35.5 81t63.5 60.5t95 24q72 0 122 -23t80.5 -68.5t44.5 -113.5t14 -158q0 -101 -19 -194t-60 -164.5t-106 -114t-158 -42.5q-77 0 -134 22.5t-95.5 61t-57.5 90t-19 110.5q0 36 4.5 69t14.5 61q-17 12 -29.5 26.5t-22.5 30.5q-41 -19 -88 -19
q-26 0 -55 7.5t-53 26.5t-39.5 50t-15.5 79v390h60v-378q0 -35 9 -58.5t24 -37t35.5 -19t44.5 -5.5q25 0 52 12q-14 36 -18.5 67.5t-4.5 48.5q0 22 3.5 45.5t13 43.5t25.5 33t42 13q38 0 58 -24.5t20 -72.5q0 -53 -17.5 -97t-49.5 -74q7 -10 14.5 -19t17.5 -17
q19 26 44.5 41t59.5 15t60 -19t26 -52q0 -29 -20 -52.5t-68 -23.5q-21 0 -39 3t-35 8q-7 -22 -10 -48t-3 -54q0 -47 15.5 -87.5t46.5 -71t77 -48t107 -17.5q77 0 131 37.5t87.5 100.5t49 145t15.5 172q0 75 -10.5 131.5t-34 94.5t-62 57.5t-94.5 19.5q-41 0 -69.5 -17
t-47.5 -45.5t-27.5 -65t-8.5 -76.5v-6q0 -2 1 -3h-50q-1 1 -2 5t-1 17zM303 140q0 -14 2.5 -34.5t9.5 -43.5q15 19 24.5 46t9.5 62q0 47 -20 47q-8 0 -13 -7.5t-8 -18.5t-4 -24.5t-1 -26.5zM475 -29q-33 0 -55 -28q12 -3 25.5 -5t29.5 -2q17 0 25 6t8 12q0 8 -9 12.5
t-24 4.5zM175 660h-244v50h244v-50z" />
    <glyph glyph-name="iogonek.end" horiz-adv-x="1002" 
d="M511 132q0 41 11 85.5t35.5 81t63.5 60.5t95 24q72 0 122 -23t80.5 -68.5t44.5 -113.5t14 -158q0 -101 -19 -194t-60 -164.5t-106 -114t-158 -42.5q-77 0 -134 22.5t-95.5 61t-57.5 90t-19 110.5q0 36 4.5 69t14.5 61q-17 12 -29.5 26.5t-22.5 30.5q-41 -19 -88 -19
q-17 -6 -30 -17q-11 -9 -20 -22.5t-9 -31.5q0 -11 3.5 -20.5t13 -16t26.5 -10.5t43 -4v-47q-71 0 -103.5 28.5t-32.5 69.5q0 31 13.5 50.5t30.5 31.5q-20 7 -37.5 19t-31 30t-21.5 43.5t-8 59.5v390h60v-378q0 -35 9 -58.5t24 -37t35.5 -19t44.5 -5.5q25 0 52 12
q-14 36 -18.5 67.5t-4.5 48.5q0 22 3.5 45.5t13 43.5t25.5 33t42 13q38 0 58 -24.5t20 -72.5q0 -53 -17.5 -97t-49.5 -74q7 -10 14.5 -19t17.5 -17q19 26 44.5 41t59.5 15t60 -19t26 -52q0 -29 -20 -52.5t-68 -23.5q-21 0 -39 3t-35 8q-7 -22 -10 -48t-3 -54
q0 -47 15.5 -87.5t46.5 -71t77 -48t107 -17.5q77 0 131 37.5t87.5 100.5t49 145t15.5 172q0 75 -10.5 131.5t-34 94.5t-62 57.5t-94.5 19.5q-41 0 -69.5 -17t-47.5 -45.5t-27.5 -65t-8.5 -76.5v-6q0 -2 1 -3h-50q-1 1 -2 5t-1 17zM304 140q0 -14 2.5 -34.5t9.5 -43.5
q15 19 24.5 46t9.5 62q0 47 -20 47q-8 0 -13 -7.5t-8 -18.5t-4 -24.5t-1 -26.5zM30 648q0 19 12.5 32t31.5 13t32 -13t13 -32t-13 -31.5t-32 -12.5t-31.5 12.5t-12.5 31.5zM476 -29q-33 0 -55 -28q12 -3 25.5 -5t29.5 -2q17 0 25 6t8 12q0 8 -9 12.5t-24 4.5z" />
    </font>
</defs>
</svg>
